<svg xmlns="http://www.w3.org/2000/svg" width="270" height="144.265" viewBox="0 0 270 144.265">
  <g id="Group_1071" data-name="Group 1071" transform="translate(-375 -2290)">
    <g id="Group_1065" data-name="Group 1065">
      <g id="Group_1061" data-name="Group 1061" transform="translate(357.076 2082.965)">
        <g id="Group_1056" data-name="Group 1056">
          <path id="Path_2978" data-name="Path 2978" d="M125.576,242.606H80.006L57.221,282.071l22.785,39.464h45.57l22.784-39.464Z" fill="#141414" style="mix-blend-mode: overlay;isolation: isolate"/>
          <path id="Path_2979" data-name="Path 2979" d="M137.316,230.43l-2.342-4.079H70.621l-32.169,55.72L68.266,333.71l2.343,4.08h64.353l32.168-55.719Zm-7.235,98.907H75.5l-27.29-47.266L75.5,234.8h54.579l27.289,47.268Z" fill="#141414" style="mix-blend-mode: overlay;isolation: isolate"/>
        </g>
        <path id="Path_2980" data-name="Path 2980" d="M128.508,232.009H73.929l-27.29,47.268,27.29,47.267h54.579l27.29-47.267ZM124,318.741H78.434L55.648,279.277l22.786-39.465H124l22.785,39.465Z" fill="none"/>
        <path id="Path_2981" data-name="Path 2981" d="M124,239.812H78.434L55.648,279.277l22.785,39.464H124l22.784-39.464Z" transform="translate(0.275 0.224)"/>
        <path id="Path_2982" data-name="Path 2982" d="M135.744,227.636l-2.343-4.079H69.048l-32.169,55.72,29.815,51.64L69.036,335h64.353l32.169-55.719Zm-7.236,98.908H73.929l-27.29-47.267,27.29-47.268h54.579l27.29,47.268Z" fill="#0d161e"/>
        <path id="Path_2983" data-name="Path 2983" d="M84.356,239.812H78.433L55.648,279.277l22.785,39.464h5.923L61.571,279.277Z" fill="#0d161e"/>
      </g>
      <path id="Path_2988" data-name="Path 2988" d="M54.882,337.589,21.15,279.164l40.033-69.335H141.3l31.536,53.24,2.4-1.423-32.348-54.61H59.571l-36.9,63.919-4.746,8.209,34.537,59.82L59.537,351.3h82.522v-2.794H61.153Z" transform="translate(357.076 2082.965)" fill="#0d161e"/>
      <g id="Group_1063" data-name="Group 1063" transform="translate(357.076 2082.965)">
        <path id="Path_2989" data-name="Path 2989" d="M175.371,261.058a4.056,4.056,0,1,0,4.056,4.056A4.056,4.056,0,0,0,175.371,261.058Z" fill="#141414" style="mix-blend-mode: overlay;isolation: isolate"/>
        <g id="Group_1062" data-name="Group 1062">
          <path id="Path_2990" data-name="Path 2990" d="M179.16,264.747a4.056,4.056,0,1,1-4.056-4.056A4.056,4.056,0,0,1,179.16,264.747Z" fill="#fff"/>
          <path id="Path_2991" data-name="Path 2991" d="M178.554,264.747a3.45,3.45,0,1,1-3.45-3.45A3.45,3.45,0,0,1,178.554,264.747Z"/>
          <path id="Path_2992" data-name="Path 2992" d="M172.242,264.747a3.449,3.449,0,0,1,3.156-3.436c-.1-.008-.195-.014-.294-.014a3.45,3.45,0,0,0,0,6.9c.1,0,.2-.005.294-.013A3.449,3.449,0,0,1,172.242,264.747Z" fill="#24303b"/>
        </g>
      </g>
      <rect id="Rectangle_562" data-name="Rectangle 562" width="147" height="2.794" transform="translate(498 2431.472)" fill="#0d161e"/>
    </g>
  </g>
  <path id="Icon_awesome-eye" data-name="Icon awesome-eye" d="M40.255,16.973A22.552,22.552,0,0,0,20.25,4.5,22.555,22.555,0,0,0,.245,16.974a2.275,2.275,0,0,0,0,2.052A22.552,22.552,0,0,0,20.25,31.5,22.555,22.555,0,0,0,40.255,19.026,2.275,2.275,0,0,0,40.255,16.973ZM20.25,28.125A10.125,10.125,0,1,1,30.375,18,10.125,10.125,0,0,1,20.25,28.125Zm0-16.875a6.7,6.7,0,0,0-1.78.266,3.364,3.364,0,0,1-4.7,4.7,6.735,6.735,0,1,0,6.484-4.97Z" transform="translate(63 54.5)" fill="#fff"/>
</svg>
