<?xml version="1.0" encoding="UTF-8" standalone="no"?>
<svg
   xmlns:dc="http://purl.org/dc/elements/1.1/"
   xmlns:cc="http://creativecommons.org/ns#"
   xmlns:rdf="http://www.w3.org/1999/02/22-rdf-syntax-ns#"
   xmlns:svg="http://www.w3.org/2000/svg"
   xmlns="http://www.w3.org/2000/svg"
   xmlns:xlink="http://www.w3.org/1999/xlink"
   xmlns:sodipodi="http://sodipodi.sourceforge.net/DTD/sodipodi-0.dtd"
   xmlns:inkscape="http://www.inkscape.org/namespaces/inkscape"
   width="222"
   height="185"
   viewBox="0 0 222 185"
   fill="none"
   version="1.1"
   id="svg196"
   sodipodi:docname="aboutUsExpertise.svg"
   inkscape:version="1.0.2 (e86c870879, 2021-01-15)">
  <metadata
     id="metadata202">
    <rdf:RDF>
      <cc:Work
         rdf:about="">
        <dc:format>image/svg+xml</dc:format>
        <dc:type
           rdf:resource="http://purl.org/dc/dcmitype/StillImage" />
        <dc:title></dc:title>
      </cc:Work>
    </rdf:RDF>
  </metadata>
  <defs
     id="defs200">
    <linearGradient
       inkscape:collect="always"
       id="linearGradient1178">
      <stop
         style="stop-color:#e5e5e5;stop-opacity:1;"
         offset="0"
         id="stop1174" />
      <stop
         style="stop-color:#f9fafb;stop-opacity:1"
         offset="1"
         id="stop1176" />
    </linearGradient>
    <linearGradient
       inkscape:collect="always"
       xlink:href="#linearGradient1178"
       id="linearGradient1180"
       x1="108.4957"
       y1="18.423385"
       x2="114.1697"
       y2="18.423385"
       gradientUnits="userSpaceOnUse"
       gradientTransform="matrix(0.95254391,0,0,1.0007087,5.2733112,-0.01305612)" />
  </defs>
  <sodipodi:namedview
     pagecolor="#ffffff"
     bordercolor="#666666"
     borderopacity="1"
     objecttolerance="10"
     gridtolerance="10"
     guidetolerance="10"
     inkscape:pageopacity="0"
     inkscape:pageshadow="2"
     inkscape:window-width="2560"
     inkscape:window-height="1015"
     id="namedview198"
     showgrid="false"
     inkscape:zoom="4.7533289"
     inkscape:cx="46.407242"
     inkscape:cy="61.160971"
     inkscape:window-x="0"
     inkscape:window-y="0"
     inkscape:window-maximized="1"
     inkscape:current-layer="svg196" />
  <path
     d="m 154.9937,110.43164 h 42.947 l 21.476,-35.228005 -21.476,-35.228 h -42.947 l -21.476,35.228 z m 43.724,1.272 h -44.501 l -22.248,-36.500005 22.248,-36.5 h 44.501 l 22.251,36.5 z"
     fill="#0a2640"
     id="path16"
     style="fill:#0d161e;fill-opacity:1" />
  <path
     d="m 198.6697,183.70364 h -44.598 l -22.103,-36.341 1.165,-0.639 21.716,35.703 h 43.041 l 21.523,-35.382 -21.716,-35.703 1.166,-0.638 22.105,36.341 z"
     fill="#0a2640"
     id="path18"
     style="fill:#0d161e;fill-opacity:1" />
  <path
     d="M 89.793702,73.931645 H 132.7407 l 21.476,-35.22801 -21.476,-35.228 H 89.793702 l -21.476,35.228 z m 43.723998,1.272 H 89.016702 l -22.248,-36.50001 22.248,-36.5 H 133.5177 l 22.251,36.5 z"
     fill="#0a2640"
     id="path26"
     style="fill:#0d161e;fill-opacity:1" />
  <path
     d="m 24.993696,182.43164 h 42.947 l 21.476004,-35.228 -21.476004,-35.228 h -42.947 l -21.476,35.228 z m 43.724,1.272 h -44.501 l -22.248,-36.5 22.248,-36.5 h 44.501 l 22.251004,36.5 z"
     fill="#0a2640"
     id="path28"
     style="fill:#0d161e;fill-opacity:1" />
  <path
     d="m 91.648907,74.437442 c 0,1.104 -0.897,1.999 -2.001,1.999 -1.104,0 -1.999,-0.895 -1.999,-1.999 0,-1.104 0.895,-2.001 1.999,-2.001 1.104,0 2.001,0.897 2.001,2.001 z"
     fill="#0a2640"
     id="path46"
     style="fill:#0d161e;fill-opacity:1" />
  <path
     d="m 95.313674,104.40452 h 33.951996 v 5.608 H 95.313674 Z m 34.399996,8.742 0.075,0.004 v -10.184 c 0,-0.953 -0.803,-1.725 -1.794,-1.725 H 96.585674 c -0.991,0 -1.797,0.772 -1.797,1.725 v 18.55 c 0,0.953 0.806,1.725 1.797,1.725 h 24.804996 c -0.146,-0.602 -0.232,-1.226 -0.232,-1.869 0,-4.537 3.839,-8.226 8.555,-8.226 z"
     fill="#0a2640"
     id="path48"
     style="fill:#0d161e;fill-opacity:1" />
  <path
     d="m 176.26589,59.026849 c -0.128,-0.09 -0.306,-0.103 -0.455,-0.033 -0.15,0.072 -0.246,0.214 -0.246,0.366 v 3.488 c -8.217,0.48 -14.663,6.841 -14.663,14.371 0,3.543 1.413,6.944 3.996,9.6 0.082,0.083 0.194,0.128 0.307,0.13 0.091,0.002 0.182,-0.026 0.259,-0.084 l 3.622,-2.658 c 0.094,-0.068 0.15,-0.171 0.157,-0.283 0.007,-0.109 -0.038,-0.221 -0.122,-0.3 -1.825,-1.734 -2.824,-4.005 -2.824,-6.403 0,-4.794 4.083,-8.828 9.268,-9.183 v 3.494 c 0,0.153 0.096,0.291 0.246,0.354 0.149,0.066 0.327,0.046 0.455,-0.051 l 4.24,-3.133 0.079,-0.05 1.629,-1.216 2.52,-1.862 c 0.105,-0.078 0.168,-0.196 0.168,-0.321 0,-0.123 -0.063,-0.239 -0.168,-0.313 z"
     fill="#0a2640"
     id="path50"
     style="fill:#0d161e;fill-opacity:1" />
  <path
     d="m 186.10989,67.037849 -3.577,2.718 c -0.091,0.071 -0.147,0.173 -0.151,0.283 -0.007,0.11 0.039,0.216 0.123,0.291 1.887,1.671 2.932,3.935 2.932,6.369 0,4.81 -4.112,8.674 -9.14,8.738 v -3.423 c 0,-0.146 -0.087,-0.279 -0.226,-0.343 -0.138,-0.065 -0.303,-0.05 -0.424,0.039 l -3.826,2.831 c -0.067,0.023 -0.13,0.065 -0.176,0.121 l -0.017,0.021 -3.578,2.648 c -0.094,0.07 -0.148,0.176 -0.148,0.288 0,0.115 0.054,0.223 0.148,0.296 l 7.597,5.942 c 0.073,0.056 0.16,0.088 0.249,0.092 0.061,0 0.119,-0.009 0.175,-0.034 0.139,-0.058 0.226,-0.186 0.226,-0.332 v -3.216 c 7.983,0.057 14.605,-6.017 14.605,-13.668 0,-3.631 -1.51,-7.061 -4.229,-9.637 -0.151,-0.141 -0.394,-0.151 -0.563,-0.024 z"
     fill="#0a2640"
     id="path52"
     style="fill:#0d161e;fill-opacity:1" />
  <path
     d="m 56.163709,87.693303 h -21.161 v -15.67 h 1.877 v -3.519 c 0,-2.774 1.573,-5.36 4.143,-6.651 6.611,-3.32 13.264,1.203 13.264,7.178 h -0.057 v 2.992 h 1.934 z m 6.669,-40.461 h -34.499 l -17.249,28.499 17.249,28.501007 h 34.499 l 17.252,-28.501007 z"
     fill="#0a2640"
     id="path54"
     style="fill:#0d161e;fill-opacity:1" />
  <rect
     x="31.179428"
     y="128.90785"
     width="27"
     height="39"
     fill="#0a2640"
     id="rect56"
     style="fill:#0d161e;fill-opacity:1" />
  <path
     d="m 158.9227,164.81464 c 2.347,0 4.251,-1.903 4.251,-4.251 0,-2.347 -1.904,-4.25 -4.251,-4.25 -2.348,0 -4.251,1.903 -4.251,4.25 0,2.348 1.903,4.251 4.251,4.251 z"
     fill="#87828e"
     id="path60" />
  <path
     d="m 160.6227,164.46164 c -0.519,0.227 -1.095,0.354 -1.7,0.354 -2.349,0 -4.251,-1.905 -4.251,-4.251 0,-2.349 1.902,-4.251 4.251,-4.251 0.605,0 1.181,0.127 1.7,0.354 -1.501,0.655 -2.55,2.153 -2.55,3.897 0,1.741 1.049,3.239 2.55,3.897 z"
     fill="#a4a4a5"
     id="path62" />
  <path
     d="m 188.6867,153.20064 c 0,-1.845 1.087,-3.944 3.271,-5.306 5.115,-3.189 5.449,-7.323 0,-10.721 -2.185,-1.363 -3.271,-3.463 -3.271,-5.306 -12.553,-0.168 -13.101,21.509 0,21.333 z"
     fill="#e5e5e5"
     id="path64" />
  <path
     d="m 179.0947,143.59464 c -0.377,-5.704 2.904,-11.817 9.591,-11.727 0,1.844 1.087,3.943 3.272,5.306 3.117,1.943 4.342,4.129 3.861,6.239 -0.348,-1.536 -1.611,-3.064 -3.861,-4.466 -2.185,-1.363 -3.272,-3.462 -3.272,-5.306 -5.997,-0.08 -9.254,4.827 -9.591,9.954 z"
     fill="#0a2640"
     id="path66"
     style="fill:#0d161e;fill-opacity:1" />
  <path
     d="m 188.6857,153.20064 c -6.84,0.093 -9.959,-5.775 -9.591,-11.379 0.33,5.001 3.471,9.689 9.591,9.606 0,-1.845 1.088,-3.944 3.272,-5.306 2.189,-1.364 3.503,-2.902 3.861,-4.482 0.497,2.183 -0.857,4.383 -3.861,6.255 -2.184,1.362 -3.272,3.461 -3.272,5.306 z"
     fill="#ffffff"
     id="path68" />
  <path
     d="m 189.2077,160.95564 h -5.431 v 6.467 h 5.431 z"
     fill="#ffffff"
     id="path70" />
  <path
     d="m 168.6667,164.18964 c 0,-0.893 0.723,-1.617 1.616,-1.617 h 4.254 v 3.233 h -4.254 c -0.893,0 -1.616,-0.724 -1.616,-1.616 z"
     fill="#0a2640"
     id="path72"
     style="fill:#0d161e;fill-opacity:1" />
  <path
     d="m 174.5377,164.18764 h -5.263 c -0.216,0 -0.423,0.046 -0.608,0.128 0,-0.011 0,-0.022 0,-0.033 v -0.187 c 0,-0.84 0.682,-1.522 1.523,-1.523 h 4.348 z"
     fill="#e5e5e5"
     id="path74" />
  <path
     d="m 172.8187,162.69364 c -0.235,0.447 -0.367,0.956 -0.367,1.495 0,0.604 0.166,1.17 0.454,1.653 0.564,0.947 1.598,1.581 2.78,1.581 h 5.17 v -6.467 h -5.17 c -1.247,0 -2.328,0.705 -2.867,1.738 z"
     fill="#ffffff"
     id="path76" />
  <path
     d="m 196.1047,166.50764 v -4.637 h -6.897 v 4.637 z"
     fill="#ffffff"
     id="path78" />
  <path
     d="m 196.1047,161.87064 h -6.897 v 1.616 h 6.897 z"
     fill="#e5e5e5"
     id="path80" />
  <path
     d="m 196.1047,164.89164 h -6.897 v 1.616 h 6.897 z"
     fill="#0a2640"
     id="path82"
     style="fill:#d5d5d5;fill-opacity:1" />
  <path
     d="m 175.6857,160.95564 h 5.171 v 1.737 h -8.038 c 0.539,-1.032 1.62,-1.737 2.867,-1.737 z"
     fill="#ffffff"
     id="path84" />
  <path
     d="m 189.2077,160.95564 h -5.431 v 1.737 h 5.431 z"
     fill="#e5e5e5"
     id="path86" />
  <path
     d="m 172.9057,165.84164 h 7.951 v 1.581 h -5.171 c -1.182,0 -2.216,-0.634 -2.78,-1.581 z"
     fill="#48423d"
     id="path88"
     style="fill:#e5e5e5;fill-opacity:1" />
  <path
     d="m 189.2077,165.84164 h -5.431 v 1.581 h 5.431 z"
     fill="#0a2640"
     id="path90"
     style="fill:#d4d4d4;fill-opacity:1" />
  <path
     d="m 183.7767,160.95564 h -2.92 v 6.466 h 2.92 z"
     fill="#87828e"
     id="path92" />
  <path
     d="m 183.7767,165.84164 h -2.921 v 1.58 h 2.921 z"
     fill="#a4a4a5"
     id="path94"
     style="fill:#d4d4d4;fill-opacity:1" />
  <path
     d="m 183.7767,160.95464 h -2.921 v 1.739 h 2.921 z"
     fill="#796e84"
     id="path96"
     style="fill:#e5e5e5;fill-opacity:1" />
  <path
     d="m 159.6257,155.66064 v -3.617 c 0,-1.697 1.381,-3.077 3.077,-3.077 h 3.372 v 3.077 c 0,2.472 2.011,4.484 4.484,4.484 2.739,0 4.594,-2.129 4.594,-4.484 0,-2.472 -2.011,-4.483 -4.484,-4.483 h -3.188 v -3.104 c 3.635,-0.354 6.486,-3.427 6.486,-7.154 v -6.94 c 0,-1.506 -1.225,-2.73 -2.73,-2.73 h -0.776 c -0.254,-0.548 -0.808,-0.929 -1.45,-0.929 -0.881,0 -1.598,0.717 -1.598,1.599 0,0.881 0.717,1.598 1.598,1.598 0.616,0 1.151,-0.35 1.418,-0.862 h 0.808 c 0.73,0 1.324,0.594 1.324,1.324 v 6.94 c 0,3.189 -2.594,5.783 -5.783,5.783 -3.188,0 -5.782,-2.594 -5.782,-5.783 v -6.94 c 0,-0.73 0.593,-1.324 1.323,-1.324 h 0.808 c 0.267,0.511 0.802,0.862 1.418,0.862 0.881,0 1.598,-0.717 1.598,-1.599 0,-0.881 -0.717,-1.598 -1.598,-1.598 -0.642,0 -1.196,0.381 -1.45,0.929 h -0.776 c -1.505,0 -2.73,1.224 -2.73,2.73 v 6.94 c 0,3.727 2.851,6.799 6.486,7.154 v 3.103 h -3.372 c -2.472,0 -4.483,2.012 -4.483,4.484 v 3.617 c -2.4,0.343 -4.251,2.41 -4.251,4.903 0,2.732 2.222,4.954 4.954,4.954 2.732,0 4.954,-2.222 4.954,-4.954 0,-2.492 -1.851,-4.56 -4.251,-4.903 z m 7.855,-6.694 h 3.189 c 1.696,0 3.077,1.38 3.077,3.077 0,1.596 -1.241,3.078 -3.188,3.078 -1.697,0 -3.078,-1.381 -3.078,-3.078 z m -8.558,15.145 c -1.956,0 -3.548,-1.592 -3.548,-3.548 0,-1.956 1.592,-3.547 3.548,-3.547 1.956,0 3.547,1.591 3.547,3.547 0,1.956 -1.591,3.548 -3.547,3.548 z"
     fill="#0a2640"
     id="path98"
     style="fill:#0d161e;fill-opacity:1" />
  <path
     d="m 179.3937,150.14764 c 0,3.863 3.142,7.006 7.005,7.006 h 3.251 c 1.465,0 2.499,-1.302 2.138,-2.685 -0.365,-1.403 -1.594,-1.584 -2.362,-1.795 0.197,-1.598 1.27,-3.164 2.904,-4.182 2.809,-1.752 4.294,-3.815 4.294,-5.968 0,-1.491 -0.745,-3.734 -4.294,-5.947 -1.634,-1.019 -2.707,-2.585 -2.904,-4.183 0.776,-0.212 1.998,-0.394 2.362,-1.794 0.36,-1.383 -0.672,-2.685 -2.138,-2.685 h -3.251 c -3.863,0 -7.005,3.143 -7.005,7.006 v 2.527 c -1.37,3.279 -1.373,7.248 0,10.454 z m 11.034,4.676 c 0.123,0.474 -0.212,0.924 -0.778,0.924 h -3.251 c -3.036,0 -5.514,-2.43 -5.595,-5.447 1.775,2.265 4.434,3.618 7.791,3.604 1.231,0.337 1.682,0.342 1.833,0.919 z m -9.628,-19.903 c 0,-3.087 2.512,-5.599 5.599,-5.599 h 3.251 c 0.569,0 0.9,0.452 0.778,0.923 -0.147,0.564 -0.538,0.565 -1.837,0.92 -3.203,-0.015 -5.926,1.326 -7.791,3.808 z m -0.059,2.948 c 0.002,-0.004 0.004,-0.008 0.005,-0.013 1.446,-3.32 4.116,-5.1 7.283,-5.272 0.257,2.009 1.57,3.948 3.557,5.187 2.375,1.481 3.631,3.125 3.631,4.754 0,1.641 -1.256,3.292 -3.631,4.773 -1.988,1.24 -3.302,3.18 -3.557,5.19 -3.409,-0.156 -5.927,-1.97 -7.283,-4.999 -0.002,-0.004 -0.004,-0.007 -0.006,-0.011 -1.306,-2.926 -1.302,-6.606 0.001,-9.609 z"
     fill="#0a2640"
     id="path100"
     style="fill:#0d161e;fill-opacity:1" />
  <path
     d="m 186.8597,149.22064 c 0.389,0 0.704,-0.315 0.704,-0.703 v -11.967 c 0,-0.388 -0.315,-0.703 -0.704,-0.703 -0.388,0 -0.703,0.315 -0.703,0.703 v 11.967 c 0,0.388 0.315,0.703 0.703,0.703 z"
     fill="#0a2640"
     id="path102"
     style="fill:#0d161e;fill-opacity:1" />
  <path
     d="m 183.4297,147.65864 c 0.389,0 0.704,-0.315 0.704,-0.704 v -8.841 c 0,-0.389 -0.315,-0.703 -0.704,-0.703 -0.388,0 -0.703,0.314 -0.703,0.703 v 8.841 c 0,0.389 0.315,0.704 0.703,0.704 z"
     fill="#0a2640"
     id="path104"
     style="fill:#0d161e;fill-opacity:1" />
  <path
     d="m 196.1047,159.26064 c -0.388,0 -0.703,0.315 -0.703,0.704 v 1.202 h -5.49 c 0,-1.815 0,-1.306 0,-3.087 0,-0.388 -0.315,-0.703 -0.704,-0.703 -0.388,0 -0.703,0.315 -0.703,0.703 v 2.173 c -0.744,0 -9.916,0 -12.819,0 -1.304,0 -2.461,0.638 -3.178,1.617 l -2.317,-0.001 c -1.017,0 -1.874,0.685 -2.14,1.617 h -3.387 c -0.389,0 -0.704,0.315 -0.704,0.703 0,0.388 0.315,0.703 0.704,0.703 h 3.387 c 0.266,0.932 1.124,1.617 2.14,1.617 2.356,0 1.961,0 2.318,-0.001 0.716,0.98 1.874,1.617 3.177,1.617 h 12.819 v 2.173 c 0,0.388 0.315,0.703 0.704,0.703 0.388,0 0.703,-0.315 0.703,-0.703 0,-1.779 0,-1.274 0,-3.087 h 5.49 v 1.202 c 0,0.389 0.315,0.703 0.704,0.703 0.388,0 0.703,-0.314 0.703,-0.703 0,-1.682 0,-6.741 0,-8.448 0,-0.389 -0.315,-0.704 -0.704,-0.704 z m -24.285,5.842 h -1.629 c -0.453,0 -0.821,-0.369 -0.821,-0.822 0,-0.096 0,-0.092 0,-0.092 0,-0.615 0.407,-0.914 0.82,-0.914 l 1.631,0.001 c -0.1,0.508 -0.096,1.344 -10e-4,1.827 z m 8.334,1.616 h -1.515 v -1.948 c 0,-0.388 -0.314,-0.703 -0.703,-0.703 -0.388,0 -0.703,0.315 -0.703,0.703 v 1.948 h -1.514 v -1.948 c 0,-0.388 -0.315,-0.703 -0.703,-0.703 -0.388,0 -0.703,0.315 -0.703,0.703 v 1.54 c -0.695,-0.452 -1.157,-1.233 -1.157,-2.122 0,-1.395 1.135,-2.53 2.53,-2.53 h 4.468 z m 2.92,0 h -1.514 v -5.06 h 1.514 z m 5.431,-4.306 c 0,0.042 0,0.056 0,0.056 0,0.204 0,1.076 0,4.25 h -1.105 v -1.948 c 0,-0.388 -0.315,-0.703 -0.703,-0.703 -0.388,0 -0.703,0.315 -0.703,0.703 v 1.948 h -1.514 v -5.06 h 4.025 c 0,0.458 0,0.667 0,0.754 z m 6.897,3.391 h -5.49 v -3.23 h 5.49 z"
     fill="#0a2640"
     id="path106"
     style="fill:#0d161e;fill-opacity:1" />
  <path
     d="m 45.169428,140.11986 h 6.967 l -1.37,-2.067 c -0.115,-0.174 -0.307,-0.278 -0.513,-0.278 h -5.084 -1.135 -5.084 c -0.206,0 -0.398,0.104 -0.513,0.278 l -1.37,2.067 h 6.967 z"
     fill="#ffffff"
     id="path108" />
  <path
     d="m 50.328428,149.50786 h -5.726 -5.727 l -0.59,1.631 h 6.317 6.316 z"
     fill="#ffffff"
     id="path110" />
  <path
     d="m 50.884428,151.13986 h -0.774 -2.38 -3.142 -2.272 -3.25 -0.774 l -1.348,2.651 c -0.132,0.261 -0.201,0.546 -0.201,0.835 v 5.285 c 0,0.429 0.37,0.776 0.826,0.776 h 7.019 7.018 c 0.456,0 0.826,-0.347 0.826,-0.776 v -5.285 c 0,-0.289 -0.069,-0.574 -0.201,-0.835 z"
     fill="#ffffff"
     id="path112" />
  <path
     d="m 44.603428,140.11886 h -0.003 -7.533 l 0.363,8.782 c 0.014,0.339 0.323,0.607 0.699,0.607 h 6.471 0.003 6.471 c 0.376,0 0.685,-0.268 0.699,-0.607 l 0.363,-8.782 z"
     fill="#ffffff"
     id="path114" />
  <path
     d="m 36.743428,158.52986 v 1.381 c 0,0.363 0.266,0.667 0.625,0.751 h 14.44 c 0.358,-0.084 0.624,-0.388 0.624,-0.751 v -1.381 z"
     fill="#ffffff"
     id="path116" />
  <path
     d="m 44.585428,157.77286 c 1.253,0 2.268,-0.954 2.268,-2.13 0,-1.177 -1.015,-2.131 -2.268,-2.131 -1.253,0 -2.269,0.954 -2.269,2.131 0,1.176 1.016,2.13 2.269,2.13 z"
     fill="#0a2640"
     id="path118"
     style="fill:#0d161e;fill-opacity:1" />
  <path
     d="m 44.585428,155.97786 c -0.279,0 -0.505,-0.212 -0.505,-0.474 v -2.13 c 0,-0.262 0.226,-0.474 0.505,-0.474 0.278,0 0.504,0.212 0.504,0.474 v 2.13 c 0,0.262 -0.226,0.474 -0.504,0.474 z"
     fill="#ffffff"
     id="path120" />
  <path
     d="m 48.092428,156.02986 c -0.228,0 -0.412,-0.174 -0.412,-0.387 0,-1.603 -1.389,-2.907 -3.095,-2.907 -1.707,0 -3.095,1.304 -3.095,2.907 0,0.213 -0.185,0.387 -0.413,0.387 -0.228,0 -0.412,-0.174 -0.412,-0.387 0,-2.03 1.758,-3.682 3.92,-3.682 2.161,0 3.92,1.652 3.92,3.682 0,0.213 -0.185,0.387 -0.413,0.387 z"
     fill="#ffffff"
     id="path122" />
  <path
     d="m 45.912428,149.50786 h -2.684 v -2.454 c 0,-0.25 0.217,-0.454 0.484,-0.454 h 1.717 c 0.267,0 0.483,0.204 0.483,0.454 z"
     fill="#0a2640"
     id="path124"
     style="fill:#0d161e;fill-opacity:1" />
  <path
     d="m 45.183428,147.81386 0.915,-0.327 h 4.438 c 0.208,0 0.359,0.185 0.305,0.374 -0.038,0.13 -0.164,0.22 -0.308,0.219 l -5.309,-0.052 c -0.13,-0.001 -0.162,-0.171 -0.041,-0.214 z"
     fill="#ffffff"
     id="path126" />
  <path
     d="m 46.050428,144.00386 h -2.96 c -0.237,0 -0.429,-0.181 -0.429,-0.404 v -3.481 h 3.819 v 3.481 c 0,0.223 -0.193,0.404 -0.43,0.404 z"
     fill="#ffffff"
     id="path128" />
  <path
     d="m 53.911428,141.37886 h -1.827 l -0.042,1.01 h 0.661 0.72 c 0.155,0 0.281,0.103 0.281,0.23 v 3.338 c 0,0.047 -0.018,0.094 -0.052,0.133 l -0.977,1.12 c -0.053,0.06 -0.138,0.096 -0.229,0.096 h -0.608 l -0.041,1.01 h 0.9 c 0.334,0 0.648,-0.131 0.841,-0.353 l 1.214,-1.391 c 0.124,-0.143 0.191,-0.313 0.191,-0.488 v -3.863 c 0,-0.465 -0.462,-0.842 -1.032,-0.842 z"
     fill="#0a2640"
     id="path130"
     style="fill:#0d161e;fill-opacity:1" />
  <path
     d="m 45.169428,137.77486 h -1.135 -2.25 v 2.345 h 2.25 1.135 2.188 v -2.345 z"
     fill="#ffffff"
     id="path132" />
  <path
     d="m 51.074428,149.72886 h -12.945 c -0.505,0 -0.915,-0.359 -0.934,-0.819 l -0.364,-8.782 c -0.002,-0.06 0.021,-0.119 0.066,-0.162 0.044,-0.043 0.106,-0.068 0.17,-0.068 h 15.069 c 0.064,0 0.126,0.025 0.17,0.068 0.044,0.043 0.068,0.102 0.066,0.162 l -0.364,8.782 c -0.019,0.46 -0.429,0.819 -0.934,0.819 z m -13.762,-9.388 0.354,8.552 c 0.009,0.221 0.212,0.394 0.463,0.394 h 12.945 c 0.25,0 0.454,-0.173 0.463,-0.394 l 0.354,-8.552 z"
     fill="#0a2640"
     id="path134"
     style="fill:#0d161e;fill-opacity:1" />
  <path
     d="m 52.575428,141.37886 h -15.807 c -0.195,0 -0.353,-0.149 -0.353,-0.332 v -0.596 c 0,-0.183 0.158,-0.332 0.353,-0.332 h 15.807 c 0.196,0 0.354,0.149 0.354,0.332 v 0.596 c 0,0.183 -0.158,0.332 -0.354,0.332 z"
     fill="#0a2640"
     id="path136"
     style="fill:#0d161e;fill-opacity:1" />
  <path
     d="m 52.462374,141.57783 h -15.807 c -0.325,0 -0.589,-0.249 -0.589,-0.554 v -0.596 c 0,-0.305 0.264,-0.553 0.589,-0.553 h 15.808 c 0.324,0 0.589,0.248 0.589,0.553 v 0.596 c 0,0.305 -0.265,0.554 -0.59,0.554 z m -15.807,-1.26 c -0.065,0 -0.118,0.049 -0.118,0.11 v 0.596 c 0,0.061 0.053,0.111 0.118,0.111 h 15.808 c 0.065,0 0.117,-0.05 0.117,-0.111 v -0.596 c 0,-0.061 -0.052,-0.11 -0.117,-0.11 z"
     fill="#ffffff"
     id="path138" />
  <path
     d="m 52.453428,148.75886 h -0.901 c -0.064,0 -0.125,-0.024 -0.17,-0.068 -0.044,-0.043 -0.068,-0.102 -0.065,-0.162 l 0.041,-1.01 c 0.005,-0.119 0.109,-0.212 0.236,-0.212 h 0.607 c 0.025,0 0.042,-0.01 0.047,-0.016 l 0.977,-1.12 -10e-4,-3.331 c -0.001,0.003 -0.018,-0.008 -0.046,-0.008 h -1.381 c -0.064,0 -0.125,-0.025 -0.17,-0.068 -0.044,-0.043 -0.068,-0.102 -0.065,-0.162 l 0.042,-1.01 c 0.004,-0.119 0.108,-0.213 0.235,-0.213 h 1.827 c 0.699,0 1.268,0.477 1.268,1.063 v 3.863 c 0,0.228 -0.085,0.445 -0.245,0.628 l -1.213,1.391 c -0.237,0.273 -0.62,0.435 -1.023,0.435 z m -0.656,-0.443 h 0.656 c 0.263,0 0.509,-0.101 0.658,-0.272 l 1.214,-1.391 c 0.09,-0.103 0.138,-0.224 0.138,-0.348 v -3.863 c 0,-0.342 -0.358,-0.62 -0.797,-0.62 h -1.6 l -0.024,0.567 h 1.136 c 0.285,0 0.518,0.202 0.518,0.451 v 3.338 c 0,0.098 -0.038,0.195 -0.106,0.273 l -0.977,1.121 c -0.097,0.111 -0.251,0.177 -0.412,0.177 h -0.381 z"
     fill="#ffffff"
     id="path140" />
  <path
     d="m 50.918428,151.36086 h -12.633 c -0.076,0 -0.147,-0.034 -0.192,-0.092 -0.044,-0.058 -0.056,-0.133 -0.031,-0.2 l 0.59,-1.632 c 0.033,-0.09 0.122,-0.15 0.223,-0.15 h 11.453 c 0.101,0 0.19,0.06 0.223,0.15 l 0.59,1.632 c 0.025,0.067 0.013,0.142 -0.031,0.2 -0.045,0.058 -0.116,0.092 -0.192,0.092 z m -12.304,-0.443 h 11.975 l -0.43,-1.189 h -11.115 z"
     fill="#0a2640"
     id="path142"
     style="fill:#0d161e;fill-opacity:1" />
  <path
     d="m 51.606428,160.90786 h -14.037 c -0.585,0 -1.061,-0.447 -1.061,-0.997 v -5.285 c 0,-0.32 0.077,-0.642 0.224,-0.93 l 1.347,-2.652 c 0.039,-0.077 0.122,-0.126 0.213,-0.126 h 12.592 c 0.091,0 0.173,0.049 0.212,0.126 l 1.348,2.652 c 0.146,0.288 0.224,0.61 0.224,0.93 v 5.285 c 0,0.55 -0.477,0.997 -1.062,0.997 z m -13.166,-9.547 -1.283,2.525 c -0.116,0.23 -0.178,0.485 -0.178,0.74 v 5.285 c 0,0.306 0.265,0.554 0.59,0.554 h 14.037 c 0.326,0 0.59,-0.248 0.59,-0.554 v -5.285 c 0,-0.254 -0.061,-0.51 -0.178,-0.74 l -1.283,-2.525 z"
     fill="#0a2640"
     id="path144"
     style="fill:#0d161e;fill-opacity:1" />
  <path
     d="m 52.136428,140.34086 h -15.069 c -0.086,0 -0.165,-0.044 -0.206,-0.114 -0.042,-0.07 -0.04,-0.156 0.006,-0.224 l 1.369,-2.067 c 0.159,-0.24 0.426,-0.382 0.714,-0.382 h 11.303 c 0.288,0 0.555,0.142 0.714,0.382 l 1.369,2.067 c 0.045,0.068 0.048,0.154 0.006,0.224 -0.041,0.07 -0.12,0.114 -0.206,0.114 z m -14.645,-0.443 h 14.221 l -1.146,-1.728 c -0.072,-0.109 -0.189,-0.174 -0.313,-0.174 h -11.303 c -0.124,0 -0.241,0.065 -0.314,0.174 z"
     fill="#0a2640"
     id="path146"
     style="fill:#0d161e;fill-opacity:1" />
  <path
     d="m 44.034428,137.77486 h 1.135 2.188 v -3.343 c 0,-0.167 -0.144,-0.303 -0.322,-0.303 h -4.929 c -0.178,0 -0.323,0.136 -0.323,0.303 v 3.343 z"
     fill="#ffffff"
     id="path148" />
  <path
     d="m 47.357428,137.99586 h -5.573 c -0.131,0 -0.236,-0.099 -0.236,-0.221 v -3.343 c 0,-0.289 0.25,-0.524 0.558,-0.524 h 4.929 c 0.308,0 0.558,0.235 0.558,0.524 v 3.343 c 0,0.122 -0.106,0.221 -0.236,0.221 z m -5.338,-0.443 h 5.103 v -3.121 c 0,-0.045 -0.039,-0.081 -0.087,-0.081 h -4.929 c -0.048,0 -0.087,0.036 -0.087,0.081 z"
     fill="#0a2640"
     id="path150"
     style="fill:#0d161e;fill-opacity:1" />
  <path
     d="m 47.357428,140.34086 h -5.573 c -0.131,0 -0.236,-0.1 -0.236,-0.222 0,-0.122 0.105,-0.221 0.236,-0.221 h 5.573 c 0.13,0 0.236,0.099 0.236,0.221 0,0.122 -0.106,0.222 -0.236,0.222 z"
     fill="#0a2640"
     id="path152"
     style="fill:#0d161e;fill-opacity:1" />
  <path
     d="m 43.228428,147.53086 -0.123,-0.044 h -4.439 c -0.208,0 -0.359,0.185 -0.304,0.374 0.037,0.13 0.164,0.22 0.308,0.219 l 4.558,-0.045 z"
     fill="#ffffff"
     id="path154"
     style="display:inline" />
  <path
     d="m 117.6667,46.075635 h -18.911 c -0.41,0 -0.742,-0.34 -0.742,-0.76 0,-0.419 0.332,-0.759 0.742,-0.759 h 18.911 c 0.41,0 0.742,0.34 0.742,0.759 0,0.42 -0.332,0.76 -0.742,0.76 z"
     fill="#000000"
     id="path156"
     style="fill:#0d161e;fill-opacity:1" />
  <path
     d="m 96.0207,47.862635 h -3.569 c -0.409,0 -0.741,-0.34 -0.741,-0.759 v -3.654 c 0,-0.42 0.332,-0.76 0.741,-0.76 h 3.569 c 0.41,0 0.742,0.34 0.742,0.76 v 3.654 c 0,0.419 -0.332,0.759 -0.742,0.759 z"
     fill="#000000"
     id="path158"
     style="fill:#0d161e;fill-opacity:1" />
  <path
     d="m 94.6297,47.136635 c -0.343,0 -0.671,-0.164 -0.881,-0.443 l -1.311,-1.738 c -0.251,-0.332 -0.191,-0.809 0.133,-1.066 0.324,-0.256 0.79,-0.195 1.04,0.137 l 1.001,1.327 2.775,-4.126 c 0.232,-0.345 0.694,-0.432 1.031,-0.194 0.338,0.237 0.423,0.71 0.19,1.056 l -3.062,4.554 c -0.201,0.299 -0.532,0.483 -0.886,0.493 -0.01,0 -0.02,0 -0.03,0 z"
     fill="#e5e5e5"
     id="path160" />
  <path
     d="m 117.6667,38.481635 h -18.911 c -0.41,0 -0.742,-0.34 -0.742,-0.759 0,-0.419 0.332,-0.759 0.742,-0.759 h 18.911 c 0.41,0 0.742,0.34 0.742,0.759 0,0.419 -0.332,0.759 -0.742,0.759 z"
     fill="#000000"
     id="path162"
     style="display:inline;fill:#0d161e;fill-opacity:1" />
  <path
     d="m 96.0207,40.269635 h -3.569 c -0.409,0 -0.741,-0.34 -0.741,-0.76 v -3.654 c 0,-0.419 0.332,-0.759 0.741,-0.759 h 3.569 c 0.41,0 0.742,0.34 0.742,0.759 v 3.654 c 0,0.42 -0.332,0.76 -0.742,0.76 z"
     fill="#000000"
     id="path164"
     style="fill:#0d161e;fill-opacity:1" />
  <path
     d="m 94.6297,39.543635 c -0.343,0 -0.67,-0.164 -0.881,-0.443 l -1.311,-1.739 c -0.251,-0.332 -0.191,-0.809 0.133,-1.065 0.325,-0.257 0.79,-0.195 1.04,0.137 l 1.002,1.327 2.774,-4.126 c 0.232,-0.346 0.694,-0.433 1.031,-0.195 0.338,0.238 0.423,0.711 0.191,1.056 l -3.063,4.555 c -0.201,0.298 -0.532,0.482 -0.886,0.492 -0.01,0 -0.02,0.001 -0.03,0.001 z"
     fill="#e5e5e5"
     id="path166"
     style="display:inline" />
  <path
     d="m 117.6667,32.266635 h -25.956 c -0.41,0 -0.742,-0.34 -0.742,-0.759 0,-0.42 0.332,-0.76 0.742,-0.76 h 25.956 c 0.41,0 0.742,0.34 0.742,0.76 0,0.419 -0.332,0.759 -0.742,0.759 z"
     fill="#000000"
     id="path168"
     style="fill:#0d161e;fill-opacity:1" />
  <path
     d="m 117.6667,53.668635 h -18.911 c -0.41,0 -0.742,-0.34 -0.742,-0.759 0,-0.419 0.332,-0.759 0.742,-0.759 h 18.911 c 0.41,0 0.742,0.34 0.742,0.759 0,0.419 -0.332,0.759 -0.742,0.759 z"
     fill="#000000"
     id="path170"
     style="fill:#0d161e;fill-opacity:1" />
  <path
     d="m 96.0207,55.456635 h -3.569 c -0.409,0 -0.741,-0.34 -0.741,-0.76 v -3.654 c 0,-0.419 0.332,-0.759 0.741,-0.759 h 3.569 c 0.41,0 0.742,0.34 0.742,0.759 v 3.654 c 0,0.42 -0.332,0.76 -0.742,0.76 z"
     fill="#000000"
     id="path172"
     style="fill:#0d161e;fill-opacity:1" />
  <path
     d="m 94.6297,54.729635 c -0.343,0 -0.671,-0.164 -0.881,-0.443 l -1.311,-1.738 c -0.251,-0.332 -0.191,-0.809 0.133,-1.066 0.324,-0.256 0.79,-0.195 1.04,0.137 l 1.001,1.327 2.775,-4.126 c 0.232,-0.345 0.694,-0.432 1.031,-0.194 0.338,0.237 0.423,0.71 0.19,1.056 l -3.062,4.554 c -0.201,0.299 -0.532,0.483 -0.886,0.493 -0.01,0 -0.02,0 -0.03,0 z"
     fill="#e5e5e5"
     id="path174"
     style="display:inline" />
  <path
     d="m 108.4957,25.539335 v -7.5516 c 0,-1.6041 1.27,-2.9045 2.837,-2.9045 1.567,0 2.837,1.3004 2.837,2.9045 v 7.5516 c 0,1.6041 -1.27,2.9043 -2.837,2.9043 -1.567,0 -2.837,-1.3002 -2.837,-2.9043 z"
     fill="#0a2640"
     id="path176"
     style="fill:#0d161e;fill-opacity:1" />
  <path
     d="m 114.02497,21.765902 v -3.778476 c 0,-1.605237 -1.20973,-2.906558 -2.70237,-2.906558 -1.49264,0 -2.70237,1.301321 -2.70237,2.906558 v 3.778476 z"
     fill="#000000"
     id="path178"
     style="display:inline;fill:url(#linearGradient1180);fill-opacity:1;stroke:#0d161e;stroke-width:0.195266;stroke-miterlimit:4;stroke-dasharray:none;stroke-opacity:1" />
  <path
     d="m 240.364,101.12 c -1.769,0 -3.207,-1.4734 -3.207,-3.2842 v -7.5517 c 0,-1.811 1.439,-3.2841 3.207,-3.2841 1.769,0 3.208,1.4733 3.208,3.2841 v 7.5517 c 0,1.8108 -1.439,3.2842 -3.208,3.2842 z m 0,-13.3609 c -1.36,0 -2.466,1.1326 -2.466,2.5248 v 7.5517 c 0,1.3922 1.106,2.5244 2.466,2.5244 1.36,0 2.466,-1.1322 2.466,-2.5244 v -7.5517 c 0,-1.392 -1.106,-2.5248 -2.466,-2.5248 z"
     fill="#0a2640"
     id="path180"
     style="display:none" />
  <path
     d="m 229.675,99.6258 c 3.002,0 5.436,-2.492 5.436,-5.566 0,-3.0739 -2.434,-5.5659 -5.436,-5.5659 -3.002,0 -5.436,2.492 -5.436,5.5659 0,3.074 2.434,5.566 5.436,5.566 z"
     fill="#0a2640"
     id="path182"
     style="display:none" />
  <path
     d="m 101.5087,16.268535 c -0.282,-0.0461 -0.571,-0.071 -0.865,-0.071 -0.294,0 -0.583,0.0247 -0.865,0.071 v 10.9901 c 0.282,0.0461 0.571,0.071 0.865,0.071 0.294,0 0.583,-0.0247 0.865,-0.071 z"
     fill="#0a2640"
     id="path184"
     style="display:inline;fill:#0d161e;fill-opacity:1" />
  <path
     d="m 100.6437,27.708635 c -3.202,0 -5.807,-2.6669 -5.807,-5.9454 0,-3.2784 2.605,-5.9456 5.807,-5.9456 3.202,0 5.807,2.6672 5.807,5.9456 0,3.2785 -2.605,5.9454 -5.807,5.9454 z m 0,-11.1316 c -2.793,0 -5.065,2.3266 -5.065,5.1862 0,2.8597 2.272,5.1863 5.065,5.1863 2.793,0 5.065,-2.3266 5.065,-5.1863 0,-2.8598 -2.272,-5.1862 -5.065,-5.1862 z"
     fill="#0a2640"
     id="path186"
     style="fill:#0d161e;fill-opacity:1" />
  <path
     d="m 132.2627,52.739635 -6.53,-14.853 c -0.086,-0.196 -0.131,-0.409 -0.131,-0.624 v -5.495 c 0,-0.105 0.083,-0.19 0.186,-0.19 h 0.778 c 0.205,0 0.371,-0.17 0.371,-0.38 v -1.67 c 0,-0.21 -0.166,-0.38 -0.371,-0.38 h -9.641 c -0.204,0 -0.37,0.17 -0.37,0.38 v 1.67 c 0,0.21 0.166,0.38 0.37,0.38 h 0.779 c 0.102,0 0.185,0.085 0.185,0.19 v 5.495 c 0,0.215 -0.044,0.427 -0.13,0.624 l -6.53,14.853 c -0.466,1.058 -0.706,2.205 -0.706,3.366 v 0.011 c 0,1.174 0.929,2.126 2.076,2.126 h 9.147 9.146 c 1.147,0 2.077,-0.952 2.077,-2.126 v -0.011 c 0,-1.161 -0.241,-2.308 -0.706,-3.366 z"
     fill="#0a2640"
     id="path188"
     style="display:inline;fill:#0d161e;fill-opacity:1" />
  <path
     d="m 131.3167,53.175635 -3.179,-7.231 c -0.083,-0.187 -0.264,-0.307 -0.464,-0.307 v 0 c -0.147,0 -0.285,0.066 -0.381,0.178 -0.408,0.474 -1.003,0.774 -1.669,0.774 -0.634,0 -1.206,-0.272 -1.611,-0.708 -0.18,-0.195 -0.476,-0.195 -0.656,0 -0.405,0.436 -0.977,0.708 -1.611,0.708 -0.634,0 -1.206,-0.272 -1.611,-0.708 -0.18,-0.195 -0.476,-0.195 -0.656,0 -0.405,0.436 -0.977,0.708 -1.611,0.708 -0.665,0 -1.261,-0.3 -1.669,-0.774 -0.096,-0.112 -0.234,-0.178 -0.381,-0.178 -0.2,0 -0.381,0.12 -0.463,0.307 l -3.179,7.231 c -0.408,0.928 -0.615,1.915 -0.615,2.944 0.001,0.586 0.467,1.06 1.039,1.06 h 18.293 c 0.572,0 1.038,-0.477 1.038,-1.074 0,-1.017 -0.207,-2.003 -0.614,-2.93 z"
     fill="#e5e5e5"
     id="path190"
     style="display:inline" />
  <path
     d="m 119.5207,55.642635 c 1.229,0 2.225,-1.02 2.225,-2.278 0,-1.259 -0.996,-2.278 -2.225,-2.278 -1.229,0 -2.225,1.019 -2.225,2.278 0,1.258 0.996,2.278 2.225,2.278 z"
     fill="#000000"
     id="path192"
     style="display:inline;fill:#0d161e;fill-opacity:1" />
  <path
     d="m 123.2287,51.031635 c 0.819,0 1.484,-0.68 1.484,-1.518 0,-0.839 -0.665,-1.519 -1.484,-1.519 -0.819,0 -1.483,0.68 -1.483,1.519 0,0.838 0.664,1.518 1.483,1.518 z"
     fill="#000000"
     id="path194"
     style="display:inline;fill:#0d161e;fill-opacity:1" />
  <path
     d="m 24.593706,110.43166 h 42.946996 l 21.476,-35.228015 -21.476,-35.228 H 24.593706 l -21.4759985,35.228 z m 43.723996,1.272 H 23.816706 L 1.5687075,75.203645 l 22.2479985,-36.5 h 44.500996 l 22.251,36.5 z"
     fill="#0a2640"
     id="path26-3"
     style="fill:#0d161e;fill-opacity:1" />
  <rect
     style="fill:#0d161e;fill-opacity:1;stroke:#0d161e;stroke-width:0;stroke-linejoin:round"
     id="rect1067"
     width="43.5"
     height="1.4999993"
     x="89.633705"
     y="146.72363" />
  <rect
     style="fill:#0d161e;fill-opacity:1;stroke:#0d161e;stroke-width:0;stroke-linejoin:round"
     id="rect1067-7"
     width="44"
     height="1.4999993"
     x="-58.456013"
     y="189.32976"
     transform="rotate(-58.91559)" />
  <path
     d="m 134.91842,74.451864 c 0,1.104 -0.897,1.999 -2.001,1.999 -1.104,0 -1.999,-0.895 -1.999,-1.999 0,-1.104 0.895,-2.001 1.999,-2.001 1.104,0 2.001,0.897 2.001,2.001 z"
     fill="#0a2640"
     id="path46-5"
     style="fill:#0d161e;fill-opacity:1" />
  <path
     d="m 156.9079,38.907843 c 0,1.104 -0.897,1.999 -2.001,1.999 -1.104,0 -1.999,-0.895 -1.999,-1.999 0,-1.104 0.895,-2.001 1.999,-2.001 1.104,0 2.001,0.897 2.001,2.001 z"
     fill="#0a2640"
     id="path46-3"
     style="fill:#0d161e;fill-opacity:1" />
  <path
     d="m 69.593355,38.994813 c 0,1.104 -0.89701,1.999 -2.00101,1.999 -1.104,0 -1.99899,-0.895 -1.99899,-1.999 0,-1.104 0.89499,-2.001 1.99899,-2.001 1.104,0 2.00101,0.897 2.00101,2.001 z"
     fill="#0a2640"
     id="path46-56"
     style="fill:#0d161e;fill-opacity:1" />
  <path
     d="m 70.648698,111.09859 c 0,1.104 -0.897,1.999 -2.001,1.999 -1.104,0 -1.999,-0.895 -1.999,-1.999 0,-1.104 0.895,-2.001 1.999,-2.001 1.104,0 2.001,0.897 2.001,2.001 z"
     fill="#0a2640"
     id="path46-2"
     style="fill:#0d161e;fill-opacity:1" />
  <path
     d="m 92.126106,147.27733 c 0,1.104 -0.897,1.999 -2.001,1.999 -1.104,0 -1.999,-0.895 -1.999,-1.999 0,-1.104 0.895,-2.001 1.999,-2.001 1.104,0 2.001,0.897 2.001,2.001 z"
     fill="#0a2640"
     id="path46-2-9"
     style="fill:#0d161e;fill-opacity:1" />
  <path
     d="m 135.04368,147.27245 c 0,1.104 -0.897,1.999 -2.001,1.999 -1.104,0 -1.999,-0.895 -1.999,-1.999 0,-1.104 0.895,-2.001 1.999,-2.001 1.104,0 2.001,0.897 2.001,2.001 z"
     fill="#0a2640"
     id="path46-2-1"
     style="fill:#0d161e;fill-opacity:1" />
  <path
     d="m 156.64376,111.09031 c 0,1.104 -0.897,1.999 -2.001,1.999 -1.104,0 -1.999,-0.895 -1.999,-1.999 0,-1.104 0.895,-2.001 1.999,-2.001 1.104,0 2.001,0.897 2.001,2.001 z"
     fill="#0a2640"
     id="path46-2-2"
     style="fill:#0d161e;fill-opacity:1" />
</svg>
