<svg width="240" height="237" viewBox="0 0 240 237" fill="none" xmlns="http://www.w3.org/2000/svg">
<path d="M194.687 146.593H45.3121V154.914H194.687V146.593Z" fill="#EBE7F2"/>
<path d="M166.103 57.7068H202.5C203.792 57.7068 204.844 58.7446 204.844 60.0212V158.154C204.844 159.433 205.893 160.469 207.188 160.469C208.482 160.469 209.531 159.433 209.531 158.154V60.0212C209.531 56.1922 206.378 53.0779 202.5 53.0779H166.103C164.808 53.0779 163.759 54.1138 163.759 55.3923C163.759 56.6708 164.808 57.7068 166.103 57.7068Z" fill="#846F75"/>
<path d="M32.8125 160.469C34.1072 160.469 35.1562 159.433 35.1562 158.154V60.0212C35.1562 58.7446 36.2081 57.7068 37.5 57.7068H73.8975C75.1922 57.7068 76.2412 56.6708 76.2412 55.3923C76.2412 54.1138 75.1922 53.0779 73.8975 53.0779H37.5C33.6225 53.0779 30.4688 56.1922 30.4688 60.0212V158.154C30.4688 159.433 31.5178 160.469 32.8125 160.469Z" fill="#846F75"/>
<path d="M166.102 69.2791H192.344V152.599H47.6559V69.2791H73.8974C75.1921 69.2791 76.2412 68.2431 76.2412 66.9646C76.2412 65.6861 75.1921 64.6501 73.8974 64.6501H45.3121C44.0174 64.6501 42.9684 65.6861 42.9684 66.9646V154.914C42.9684 156.192 44.0174 157.228 45.3121 157.228H194.687C195.981 157.228 197.031 156.192 197.031 154.914V66.9646C197.031 65.6861 195.981 64.6501 194.687 64.6501H166.101C164.807 64.6501 163.758 65.6861 163.758 66.9646C163.758 68.2431 164.808 69.2791 166.102 69.2791Z" fill="#846F75"/>
<path d="M214.531 164.172H25.4691C19.9556 164.172 15.4688 168.602 15.4688 174.047C15.4688 179.492 19.9547 183.922 25.4691 183.922H214.532C220.045 183.922 224.532 179.492 224.532 174.047C224.532 168.602 220.045 164.172 214.531 164.172ZM214.531 179.293H25.4691C22.5394 179.293 20.1562 176.94 20.1562 174.047C20.1562 171.154 22.5394 168.801 25.4691 168.801H214.532C217.462 168.801 219.845 171.154 219.845 174.047C219.845 176.94 217.461 179.293 214.531 179.293Z" fill="#846F75"/>
<path d="M123.721 98.9965H116.279C113.715 98.9965 111.474 97.2838 110.832 94.8333L109.024 87.9334L102.804 91.5486C100.597 92.8336 97.785 92.4799 95.9728 90.6895L90.7097 85.4921C88.8966 83.7026 88.5394 80.928 89.8397 78.746L93.5016 72.6034L86.5144 70.8176C84.0319 70.1816 82.2975 67.9708 82.2975 65.4388V58.0899C82.2975 55.557 84.0319 53.3453 86.5144 52.7102L93.5006 50.9244L89.8387 44.7828C88.5375 42.6016 88.8956 39.8261 90.7087 38.0357L95.9719 32.8393C97.7841 31.0469 100.594 30.6933 102.804 31.9792L109.024 35.5953L110.832 28.6955C111.475 26.2449 113.715 24.5322 116.279 24.5322H123.721C126.285 24.5322 128.526 26.2449 129.168 28.6955L130.976 35.5953L137.196 31.9792C139.406 30.6952 142.216 31.0469 144.029 32.8402L149.291 38.0357C151.104 39.8271 151.462 42.6007 150.162 44.7818L146.5 50.9244L153.487 52.7102C155.969 53.3453 157.703 55.5561 157.703 58.0899V65.4388C157.703 67.9699 155.97 70.1816 153.487 70.8176L146.5 72.6034L150.162 78.746C151.463 80.929 151.104 83.7026 149.292 85.4931L144.03 90.6895C142.217 92.4809 139.409 92.8354 137.197 91.5486L130.978 87.9334L129.17 94.8324C128.526 97.2838 126.286 98.9965 123.721 98.9965ZM110.521 82.0492C110.826 82.0492 111.131 82.1075 111.421 82.226C112.162 82.5306 112.692 83.1879 112.83 83.9674L115.37 93.6714C115.477 94.0806 115.851 94.3667 116.278 94.3667H123.72C124.148 94.3667 124.522 94.0806 124.628 93.6714L127.15 84.0498C127.287 83.2647 127.831 82.5648 128.576 82.2612C129.322 81.9575 130.18 82.014 130.837 82.475L139.573 87.5576C139.942 87.7714 140.411 87.7122 140.713 87.415L145.975 82.2177C146.278 81.9196 146.337 81.4567 146.121 81.0919L141.015 72.5275C140.555 71.8785 140.437 71.0046 140.745 70.2723C141.052 69.5409 141.694 68.9781 142.484 68.8429L152.311 66.335C152.724 66.2285 153.014 65.8591 153.014 65.4369V58.0881C153.014 57.6659 152.725 57.2966 152.311 57.191C152.311 57.1901 152.311 57.1901 152.311 57.1901L142.567 54.6997C141.774 54.5646 141.066 54.0267 140.759 53.2916C140.452 52.5575 140.507 51.7095 140.973 51.0614L146.121 42.4331C146.337 42.0693 146.277 41.6055 145.975 41.3074L140.713 36.111C140.41 35.8119 139.942 35.7527 139.574 35.9675L130.901 41.0102C130.245 41.4703 129.364 41.587 128.619 41.2852C127.875 40.9824 127.308 40.3427 127.17 39.5604L124.63 29.8555C124.523 29.4472 124.149 29.1611 123.722 29.1611H116.28C115.852 29.1611 115.478 29.4472 115.372 29.8564L112.85 39.478C112.712 40.2613 112.167 40.9621 111.423 41.2648C110.677 41.5657 109.819 41.5129 109.163 41.0519L100.428 35.9693C100.06 35.7555 99.5906 35.8147 99.2897 36.1119L94.0256 41.3092C93.7237 41.6083 93.6637 42.0712 93.8803 42.435L98.9869 50.9994C99.4528 51.6474 99.57 52.5186 99.2634 53.2537C98.9569 53.9887 98.3109 54.5479 97.5178 54.684L87.6909 57.1929C87.2766 57.2984 86.9878 57.6687 86.9878 58.0909V65.4397C86.9878 65.8619 87.2775 66.2303 87.6919 66.3377L97.4353 68.8272C98.2256 68.9623 98.9334 69.4974 99.2409 70.2288C99.5484 70.9602 99.4978 71.8054 99.0375 72.4544L93.8812 81.0947C93.6647 81.4585 93.7247 81.9214 94.0265 82.2186L99.2897 87.4168C99.5915 87.714 100.06 87.7742 100.429 87.5594L109.18 82.4667C109.577 82.1908 110.047 82.0492 110.521 82.0492ZM120 75.9659C112.071 75.9659 105.62 69.5946 105.62 61.7644C105.62 53.9341 112.071 47.5638 120 47.5638C127.929 47.5638 134.38 53.9341 134.38 61.7644C134.38 69.5946 127.929 75.9659 120 75.9659ZM120 52.1927C114.655 52.1927 110.307 56.4865 110.307 61.7644C110.307 67.0423 114.655 71.3369 120 71.3369C125.345 71.3369 129.693 67.0423 129.693 61.7644C129.693 56.4865 125.345 52.1927 120 52.1927Z" fill="#0A2640"/>
<path d="M85.499 111.865H62.2959C61.0012 111.865 59.9521 110.829 59.9521 109.551C59.9521 108.272 61.0012 107.236 62.2959 107.236H85.499C86.7937 107.236 87.8428 108.272 87.8428 109.551C87.8428 110.829 86.7937 111.865 85.499 111.865Z" fill="#0A2640"/>
<path d="M85.499 123.592H62.2959C61.0012 123.592 59.9521 122.556 59.9521 121.277C59.9521 119.999 61.0012 118.963 62.2959 118.963H85.499C86.7937 118.963 87.8428 119.999 87.8428 121.277C87.8428 122.556 86.7937 123.592 85.499 123.592Z" fill="#0A2640"/>
<path d="M85.499 135.319H62.2959C61.0012 135.319 59.9521 134.283 59.9521 133.004C59.9521 131.726 61.0012 130.69 62.2959 130.69H85.499C86.7937 130.69 87.8428 131.726 87.8428 133.004C87.8428 134.283 86.7937 135.319 85.499 135.319Z" fill="#0A2640"/>
<path d="M131.602 111.865H108.398C107.104 111.865 106.055 110.829 106.055 109.551C106.055 108.272 107.104 107.236 108.398 107.236H131.602C132.896 107.236 133.945 108.272 133.945 109.551C133.945 110.829 132.896 111.865 131.602 111.865Z" fill="#0A2640"/>
<path d="M131.602 123.592H108.398C107.104 123.592 106.055 122.556 106.055 121.277C106.055 119.999 107.104 118.963 108.398 118.963H131.602C132.896 118.963 133.945 119.999 133.945 121.277C133.945 122.556 132.896 123.592 131.602 123.592Z" fill="#0A2640"/>
<path d="M131.602 135.319H108.398C107.104 135.319 106.055 134.283 106.055 133.004C106.055 131.726 107.104 130.69 108.398 130.69H131.602C132.896 130.69 133.945 131.726 133.945 133.004C133.945 134.283 132.896 135.319 131.602 135.319Z" fill="#0A2640"/>
<path d="M177.704 111.865H154.501C153.206 111.865 152.157 110.829 152.157 109.551C152.157 108.272 153.206 107.236 154.501 107.236H177.704C178.999 107.236 180.048 108.272 180.048 109.551C180.048 110.829 178.999 111.865 177.704 111.865Z" fill="#0A2640"/>
<path d="M177.704 123.592H154.501C153.206 123.592 152.157 122.556 152.157 121.277C152.157 119.999 153.206 118.963 154.501 118.963H177.704C178.999 118.963 180.048 119.999 180.048 121.277C180.048 122.556 178.999 123.592 177.704 123.592Z" fill="#0A2640"/>
<path d="M177.704 135.319H154.501C153.206 135.319 152.157 134.283 152.157 133.004C152.157 131.726 153.206 130.69 154.501 130.69H177.704C178.999 130.69 180.048 131.726 180.048 133.004C180.048 134.283 178.999 135.319 177.704 135.319Z" fill="#0A2640"/>
</svg>

