<?xml version="1.0" encoding="UTF-8" standalone="no"?>
<svg
   xmlns:dc="http://purl.org/dc/elements/1.1/"
   xmlns:cc="http://creativecommons.org/ns#"
   xmlns:rdf="http://www.w3.org/1999/02/22-rdf-syntax-ns#"
   xmlns:svg="http://www.w3.org/2000/svg"
   xmlns="http://www.w3.org/2000/svg"
   xmlns:sodipodi="http://sodipodi.sourceforge.net/DTD/sodipodi-0.dtd"
   xmlns:inkscape="http://www.inkscape.org/namespaces/inkscape"
   width="840"
   height="540"
   viewBox="0 0 840 540"
   version="1.1"
   id="svg10"
   sodipodi:docname="firstPageServicesGrid_ResearchingNewInvention1.svg"
   inkscape:version="1.0.2 (e86c870879, 2021-01-15)">
  <metadata
     id="metadata14">
    <rdf:RDF>
      <cc:Work
         rdf:about="">
        <dc:format>image/svg+xml</dc:format>
        <dc:type
           rdf:resource="http://purl.org/dc/dcmitype/StillImage" />
        <dc:title></dc:title>
      </cc:Work>
    </rdf:RDF>
  </metadata>
  <sodipodi:namedview
     pagecolor="#ffffff"
     bordercolor="#666666"
     borderopacity="1"
     objecttolerance="10"
     gridtolerance="10"
     guidetolerance="10"
     inkscape:pageopacity="0"
     inkscape:pageshadow="2"
     inkscape:window-width="1920"
     inkscape:window-height="1015"
     id="namedview12"
     showgrid="false"
     inkscape:zoom="1"
     inkscape:cx="293.0021"
     inkscape:cy="263"
     inkscape:window-x="0"
     inkscape:window-y="0"
     inkscape:window-maximized="1"
     inkscape:current-layer="g653"
     inkscape:snap-global="true" />
  <defs
     id="defs7">
    <linearGradient
       id="linear-gradient"
       x1="-0.068999998"
       y1="-0.029999999"
       x2="0.5"
       y2="1"
       gradientUnits="objectBoundingBox">
      <stop
         offset="0"
         stop-color="#0d161e"
         id="stop2" />
      <stop
         offset="1"
         stop-color="#5d6368"
         id="stop4" />
    </linearGradient>
    <linearGradient
       id="linear-gradient-3"
       x1="58.252392"
       x2="58.252392"
       y2="101.00964"
       gradientUnits="userSpaceOnUse"
       gradientTransform="matrix(3.0441953,0,0,0.29005677,431.05325,65.681636)"
       y1="0">
      <stop
         offset="0"
         stop-color="#0d161e"
         stop-opacity="0.302"
         id="stop705" />
      <stop
         offset="1"
         stop-color="#c2c5c7"
         stop-opacity="0.071"
         id="stop707" />
    </linearGradient>
    <filter
       style="color-interpolation-filters:sRGB;"
       inkscape:label="Drop Shadow"
       id="filter733">
      <feFlood
         flood-opacity="0.498039"
         flood-color="rgb(0,0,0)"
         result="flood"
         id="feFlood723" />
      <feComposite
         in="flood"
         in2="SourceGraphic"
         operator="in"
         result="composite1"
         id="feComposite725" />
      <feGaussianBlur
         in="composite1"
         stdDeviation="3"
         result="blur"
         id="feGaussianBlur727" />
      <feOffset
         dx="6"
         dy="6"
         result="offset"
         id="feOffset729" />
      <feComposite
         in="SourceGraphic"
         in2="offset"
         operator="over"
         result="fbSourceGraphic"
         id="feComposite731" />
      <feColorMatrix
         result="fbSourceGraphicAlpha"
         in="fbSourceGraphic"
         values="0 0 0 -1 0 0 0 0 -1 0 0 0 0 -1 0 0 0 0 1 0"
         id="feColorMatrix939" />
      <feFlood
         id="feFlood941"
         flood-opacity="0.501961"
         flood-color="rgb(0,0,0)"
         result="flood"
         in="fbSourceGraphic" />
      <feComposite
         in2="fbSourceGraphic"
         id="feComposite943"
         in="flood"
         operator="in"
         result="composite1" />
      <feGaussianBlur
         id="feGaussianBlur945"
         in="composite1"
         stdDeviation="3"
         result="blur" />
      <feOffset
         id="feOffset947"
         dx="6"
         dy="-11"
         result="offset" />
      <feComposite
         in2="offset"
         id="feComposite949"
         in="fbSourceGraphic"
         operator="over"
         result="composite2" />
    </filter>
  </defs>
  <circle
     id="Ellipse_58"
     data-name="Ellipse 58"
     cx="263"
     cy="263"
     r="263"
     fill="url(#linear-gradient)" />
  <g
     style="fill:none;filter:url(#filter733)"
     id="g653"
     transform="translate(89.960574,66.650826)">
    <path
       d="M 706,0 H 0 v 470 h 706 z"
       fill="#fcfbfb"
       id="path296" />
    <path
       d="M 145.504,64.3754 H 34.0237 V 197.419 H 145.504 Z"
       fill="#ffffff"
       id="path298" />
    <path
       d="m 93.7798,73.4332 c 0.0051,0.8048 -0.2274,1.5929 -0.6681,2.2642 -0.4407,0.6713 -1.0697,1.1955 -1.8069,1.5058 -0.7372,0.3104 -1.5494,0.393 -2.3333,0.2372 -0.7839,-0.1557 -1.5042,-0.5427 -2.0692,-1.1118 -0.565,-0.569 -0.9492,-1.2945 -1.1039,-2.084 -0.1546,-0.7896 -0.0726,-1.6077 0.2355,-2.3502 0.3082,-0.7425 0.8286,-1.376 1.4951,-1.8199 0.6665,-0.4439 1.449,-0.6781 2.248,-0.6729 0.5256,0 1.0462,0.1043 1.5318,0.3069 0.4857,0.2026 0.9269,0.4995 1.2986,0.8739 0.3717,0.3744 0.6665,0.8188 0.8677,1.308 0.2012,0.4891 0.3047,1.0134 0.3047,1.5428 z"
       fill="#0c1821"
       id="path300" />
    <path
       d="m 55.2335,91.0262 c 11.2806,-0.864 22.5612,-0.9163 33.7899,-1.0472 11.2286,-0.1309 22.5356,0.1832 33.7896,1.0472 -11.28,0.8901 -22.535,0.9424 -33.7896,1.0733 -11.2546,0.1309 -22.5093,-0.1832 -33.7899,-1.0733 z"
       fill="#ebebeb"
       id="path302" />
    <path
       d="m 55.2335,101.55 c 12.2185,-1.431 24.5605,-1.431 36.779,0 -12.2205,1.396 -24.5585,1.396 -36.779,0 z"
       fill="#ebebeb"
       id="path304" />
    <path
       d="m 55.2335,112.048 c 7.7977,-0.812 15.5953,-0.995 23.393,-1.047 7.7977,-0.053 15.5953,0.235 23.3925,1.047 -7.7972,0.838 -15.5948,1.021 -23.3925,1.073 -7.7977,0.053 -15.5433,-0.235 -23.393,-1.073 z"
       fill="#ebebeb"
       id="path306" />
    <path
       d="m 55.2335,122.572 c 9.7991,-0.811 19.5981,-1.021 29.3972,-1.047 9.799,-0.026 19.5983,0.21 29.3713,1.047 -9.773,0.838 -19.5723,1.021 -29.3713,1.048 -9.7991,0.026 -19.5981,-0.236 -29.3972,-1.048 z"
       fill="#ebebeb"
       id="path308" />
    <path
       d="m 55.2335,133.096 c 8.5255,-0.838 17.0249,-1.021 25.5243,-1.073 8.4995,-0.053 17.0249,0.235 25.5502,1.073 -8.5253,0.812 -17.0247,1.021 -25.5502,1.047 -8.5254,0.027 -16.9988,-0.235 -25.5243,-1.047 z"
       fill="#ebebeb"
       id="path310" />
    <path
       d="m 55.2335,143.594 c 10.8908,-0.864 21.7815,-0.916 32.6722,-1.047 10.8907,-0.131 21.8073,0.183 32.6983,1.047 -10.891,0.89 -21.7816,0.943 -32.6983,1.074 -10.9167,0.131 -21.7814,-0.184 -32.6722,-1.074 z"
       fill="#ebebeb"
       id="path312" />
    <path
       d="m 55.2335,154.119 c 14.0346,-1.432 28.1768,-1.432 42.2114,0 -14.0363,1.396 -28.1751,1.396 -42.2114,0 z"
       fill="#ebebeb"
       id="path314" />
    <path
       d="m 55.2335,164.616 c 11.2806,-0.864 22.5612,-0.916 33.7899,-1.047 11.2286,-0.131 22.5356,0.183 33.7896,1.047 -11.28,0.89 -22.535,0.943 -33.7896,1.074 -11.2546,0.131 -22.5093,-0.184 -33.7899,-1.074 z"
       fill="#ebebeb"
       id="path316" />
    <path
       d="m 55.2335,175.141 c 11.2806,-0.864 22.5612,-0.917 33.7899,-1.048 11.2286,-0.131 22.5356,0.157 33.7896,1.048 -11.28,0.89 -22.535,0.942 -33.7896,1.047 -11.2546,0.104 -22.5093,-0.184 -33.7899,-1.047 z"
       fill="#ebebeb"
       id="path318" />
    <path
       d="M 673.042,178.675 H 585.76 v 104.168 h 87.282 z"
       fill="#ffffff"
       id="path320" />
    <path
       d="m 632.416,187.785 c 0.005,0.602 -0.167,1.192 -0.495,1.695 -0.329,0.502 -0.798,0.896 -1.348,1.13 -0.551,0.233 -1.158,0.297 -1.744,0.183 -0.587,-0.114 -1.126,-0.401 -1.551,-0.825 -0.424,-0.424 -0.714,-0.965 -0.832,-1.554 -0.119,-0.59 -0.06,-1.202 0.167,-1.759 0.227,-0.556 0.614,-1.032 1.11,-1.367 0.497,-0.335 1.081,-0.513 1.678,-0.513 0.395,-0.004 0.786,0.072 1.152,0.221 0.366,0.15 0.698,0.371 0.978,0.651 0.281,0.28 0.503,0.613 0.655,0.98 0.152,0.367 0.23,0.761 0.23,1.158 z"
       fill="#0c1821"
       id="path322" />
    <path
       d="m 599.744,207.08 c 6.035,-0.86 12.16,-0.86 18.195,0 -6.035,0.859 -12.16,0.859 -18.195,0 z"
       fill="#ebebeb"
       id="path324" />
    <path
       d="m 599.744,214.515 c 7.876,-0.908 15.829,-0.908 23.705,0 -7.878,0.872 -15.827,0.872 -23.705,0 z"
       fill="#ebebeb"
       id="path326" />
    <path
       d="m 599.744,221.924 c 7.296,-0.873 14.668,-0.873 21.963,0 -7.293,0.907 -14.67,0.907 -21.963,0 z"
       fill="#ebebeb"
       id="path328" />
    <path
       d="m 599.744,229.489 c 7.296,-0.872 14.668,-0.872 21.963,0 -7.295,0.873 -14.667,0.873 -21.963,0 z"
       fill="#ebebeb"
       id="path330" />
    <path
       d="m 599.744,236.793 c 6.327,-0.908 12.751,-0.908 19.078,0 -6.33,0.873 -12.748,0.873 -19.078,0 z"
       fill="#ebebeb"
       id="path332" />
    <path
       d="m 599.744,244.202 c 8.121,-0.873 16.311,-0.873 24.433,0 -8.12,0.907 -16.314,0.907 -24.433,0 z"
       fill="#ebebeb"
       id="path334" />
    <path
       d="m 599.744,251.637 c 6.695,-0.873 13.475,-0.873 20.17,0 -6.695,0.873 -13.475,0.873 -20.17,0 z"
       fill="#ebebeb"
       id="path336" />
    <path
       d="m 599.744,259.072 c 8.397,-0.908 16.867,-0.908 25.264,0 -8.399,0.873 -16.865,0.873 -25.264,0 z"
       fill="#ebebeb"
       id="path338" />
    <path
       d="m 599.744,266.481 c 8.399,-0.873 16.865,-0.873 25.264,0 -8.397,0.908 -16.867,0.908 -25.264,0 z"
       fill="#ebebeb"
       id="path340" />
    <path
       d="m 635.821,207.08 c 7.965,-0.873 16,-0.873 23.965,0 -7.965,0.873 -16,0.873 -23.965,0 z"
       fill="#ebebeb"
       id="path342" />
    <path
       d="m 635.821,214.515 c 5.212,-0.908 10.54,-0.908 15.751,0 -5.214,0.872 -10.536,0.872 -15.751,0 z"
       fill="#ebebeb"
       id="path344" />
    <path
       d="m 635.821,221.924 c 7.496,-0.873 15.066,-0.873 22.561,0 -7.493,0.907 -15.067,0.907 -22.561,0 z"
       fill="#ebebeb"
       id="path346" />
    <path
       d="m 635.821,229.489 c 7.287,-0.872 14.651,-0.872 21.938,0 -7.287,0.873 -14.651,0.873 -21.938,0 z"
       fill="#ebebeb"
       id="path348" />
    <path
       d="m 635.821,236.793 c 7.963,-0.907 16.002,-0.907 23.965,0 -7.965,0.873 -16,0.873 -23.965,0 z"
       fill="#ebebeb"
       id="path350" />
    <path
       d="m 635.821,244.202 c 6.33,-0.873 12.748,-0.873 19.078,0 -6.327,0.908 -12.75,0.908 -19.078,0 z"
       fill="#ebebeb"
       id="path352" />
    <path
       d="m 635.821,251.637 c 7.496,-0.872 15.066,-0.872 22.561,0 -7.495,0.873 -15.065,0.873 -22.561,0 z"
       fill="#ebebeb"
       id="path354" />
    <path
       d="m 635.821,259.072 c 5.779,-0.907 11.662,-0.907 17.441,0 -5.781,0.872 -11.66,0.872 -17.441,0 z"
       fill="#ebebeb"
       id="path356" />
    <path
       d="m 635.821,266.481 c 5.546,-0.873 11.193,-0.873 16.739,0 -5.543,0.907 -11.196,0.907 -16.739,0 z"
       fill="#ebebeb"
       id="path358" />
    <path
       d="m 192.342,146.37 h -67.06 v 67.543 h 67.06 z"
       fill="#0c1821"
       id="path360" />
    <path
       d="m 162.815,153.229 c 0,0.797 -0.235,1.576 -0.674,2.239 -0.44,0.663 -1.065,1.18 -1.797,1.485 -0.731,0.305 -1.536,0.385 -2.313,0.23 -0.776,-0.156 -1.489,-0.54 -2.049,-1.104 -0.56,-0.563 -0.941,-1.282 -1.096,-2.064 -0.154,-0.782 -0.075,-1.593 0.228,-2.329 0.303,-0.737 0.816,-1.367 1.474,-1.81 0.659,-0.443 1.433,-0.679 2.224,-0.679 0.526,0 1.046,0.104 1.532,0.307 0.486,0.202 0.927,0.499 1.299,0.874 0.371,0.374 0.666,0.819 0.867,1.308 0.202,0.489 0.305,1.013 0.305,1.543 z"
       fill="#0c1821"
       id="path362" />
    <path
       d="M 706,0 H 0 v 14.9485 h 706 z"
       fill="#dbdbdb"
       id="path364" />
    <path
       d="m 223.767,66.9401 113.196,-0.235 113.222,0.235 -113.222,0.2351 z"
       fill="#c7c7c7"
       id="path366" />
    <path
       d="M 223.767,76.2347 336.963,75.999 450.185,76.2347 336.963,76.4966 Z"
       fill="#c7c7c7"
       id="path368" />
    <path
       d="m 223.767,85.5545 113.196,-0.2619 113.222,0.2619 -113.222,0.2357 z"
       fill="#c7c7c7"
       id="path370" />
    <path
       d="m 223.767,94.8482 113.196,-0.2619 113.222,0.2619 -113.222,0.2357 z"
       fill="#c7c7c7"
       id="path372" />
    <path
       d="m 223.767,104.141 113.196,-0.235 113.222,0.235 -113.222,0.235 z"
       fill="#c7c7c7"
       id="path374" />
    <path
       d="m 223.767,113.436 113.196,-0.236 113.222,0.236 -113.222,0.262 z"
       fill="#c7c7c7"
       id="path376" />
    <path
       d="m 223.767,122.729 113.196,-0.235 113.222,0.235 -113.222,0.262 z"
       fill="#c7c7c7"
       id="path378" />
    <path
       d="m 223.767,132.049 113.196,-0.262 113.222,0.262 -113.222,0.236 z"
       fill="#c7c7c7"
       id="path380" />
    <path
       d="m 223.767,141.343 113.196,-0.262 113.222,0.262 -113.222,0.236 z"
       fill="#c7c7c7"
       id="path382" />
    <path
       d="m 223.767,150.636 113.196,-0.235 113.222,0.235 -113.222,0.235 z"
       fill="#c7c7c7"
       id="path384" />
    <path
       d="m 223.767,159.93 113.196,-0.235 113.222,0.235 -113.222,0.262 z"
       fill="#c7c7c7"
       id="path386" />
    <path
       d="m 223.767,169.25 113.196,-0.262 113.222,0.262 -113.222,0.236 z"
       fill="#c7c7c7"
       id="path388" />
    <path
       d="m 223.767,178.544 113.196,-0.262 113.222,0.262 -113.222,0.236 z"
       fill="#c7c7c7"
       id="path390" />
    <path
       d="m 223.767,187.837 113.196,-0.235 113.222,0.235 -113.222,0.235 z"
       fill="#c7c7c7"
       id="path392" />
    <path
       d="m 223.767,197.131 113.196,-0.235 113.222,0.235 -113.222,0.262 z"
       fill="#c7c7c7"
       id="path394" />
    <path
       d="m 264.886,132.049 h -17.18 v 75.947 h 17.18 z"
       fill="#0c1821"
       id="path396" />
    <path
       d="M 296.727,99.9269 H 279.546 V 207.996 h 17.181 z"
       fill="#ffffff"
       id="path398"
       style="fill:#0c1821;fill-opacity:1" />
    <path
       d="M 328.593,85.3453 H 311.412 V 207.996 h 17.181 z"
       fill="#0c1821"
       id="path400" />
    <path
       d="m 360.434,104.351 h -17.181 v 103.618 h 17.181 z"
       fill="#ffffff"
       id="path402"
       style="fill:#0c1821;fill-opacity:1" />
    <path
       d="M 392.3,110.006 H 375.119 V 207.97 H 392.3 Z"
       fill="#0c1821"
       id="path404" />
    <path
       d="M 424.141,165.533 H 406.96 v 42.463 h 17.181 z"
       fill="#ffffff"
       id="path406" />
    <path
       d="m 229.901,60.4224 0.39,36.8868 0.26,36.8868 c 0.173,24.609 0.26,49.2 0.26,73.774 l -0.91,-0.89 h 55.077 55.052 l 55.077,0.314 55.078,0.523 -55.078,0.55 -55.077,0.314 h -55.052 -55.077 -0.91 v -0.916 c 0,-24.591 0.087,-49.182 0.26,-73.774 l 0.26,-36.8865 z"
       fill="#c7c7c7"
       id="path408" />
    <path
       d="m 264.886,215.771 h -17.18 v 1.571 h 17.18 z"
       fill="#c7c7c7"
       id="path410" />
    <path
       d="m 296.727,215.771 h -17.181 v 1.571 h 17.181 z"
       fill="#c7c7c7"
       id="path412" />
    <path
       d="m 328.593,215.771 h -17.181 v 1.571 h 17.181 z"
       fill="#c7c7c7"
       id="path414" />
    <path
       d="m 360.434,215.771 h -17.181 v 1.571 h 17.181 z"
       fill="#c7c7c7"
       id="path416" />
    <path
       d="m 392.3,215.771 h -17.181 v 1.571 H 392.3 Z"
       fill="#c7c7c7"
       id="path418" />
    <path
       d="M 424.141,215.771 H 406.96 v 1.571 h 17.181 z"
       fill="#c7c7c7"
       id="path420" />
    <path
       d="M 131.676,410.887 H 63.4989 v 5.89 h 68.1771 z"
       fill="#c7c7c7"
       id="path422" />
    <path
       d="M 155.615,423.191 H 63.4989 v 5.89 h 92.1161 z"
       fill="#c7c7c7"
       id="path424" />
    <path
       d="M 112.39,435.522 H 63.4989 v 5.89 H 112.39 Z"
       fill="#c7c7c7"
       id="path426" />
    <path
       d="M 48.2935,410.887 H 34.0758 v 14.32 h 14.2177 z"
       fill="#0c1821"
       id="path428" />
    <path
       d="m 571.932,66.6792 h -68.177 v 5.8904 h 68.177 z"
       fill="#c7c7c7"
       id="path430" />
    <path
       d="m 595.871,78.9836 h -92.116 v 5.8904 h 92.116 z"
       fill="#c7c7c7"
       id="path432" />
    <path
       d="m 552.646,91.314 h -48.891 v 5.8903 h 48.891 z"
       fill="#c7c7c7"
       id="path434" />
    <path
       d="m 488.549,66.6792 h -14.217 v 14.3202 h 14.217 z"
       fill="#0c1821"
       id="path436" />
    <path
       d="m 584.798,114.352 h -81.043 v 5.89 h 81.043 z"
       fill="#c7c7c7"
       id="path438" />
    <path
       d="m 567.851,126.656 h -64.096 v 5.891 h 64.096 z"
       fill="#c7c7c7"
       id="path440" />
    <path
       d="m 595.871,138.987 h -92.116 v 5.89 h 92.116 z"
       fill="#c7c7c7"
       id="path442" />
    <path
       d="m 488.549,114.352 h -14.217 v 14.32 h 14.217 z"
       fill="#ffffff"
       id="path444" />
    <path
       d="M 339.588,259.622 H 34.0237 V 394.236 H 339.588 Z"
       fill="#dbdbdb"
       id="path446" />
    <path
       d="m 323.369,276.612 h -273.1 v 11.624 h 273.1 z"
       fill="#ffffff"
       id="path448" />
    <path
       d="M 189.899,276.612 H 50.269 v 11.624 h 139.63 z"
       fill="#0c1821"
       id="path450" />
    <path
       d="m 323.369,298.865 h -273.1 v 11.624 h 273.1 z"
       fill="#ffffff"
       id="path452" />
    <path
       d="M 300.782,298.865 H 50.269 v 11.624 h 250.513 z"
       fill="#0c1821"
       id="path454" />
    <path
       d="m 323.369,321.117 h -273.1 v 11.624 h 273.1 z"
       fill="#ffffff"
       id="path456" />
    <path
       d="m 131.079,321.117 h -80.81 v 11.624 h 80.81 z"
       fill="#0c1821"
       id="path458" />
    <path
       d="m 323.369,343.37 h -273.1 v 11.623 h 273.1 z"
       fill="#ffffff"
       id="path460" />
    <path
       d="M 264.887,343.37 H 50.269 v 11.623 h 214.618 z"
       fill="#0c1821"
       id="path462" />
    <path
       d="m 323.369,365.622 h -273.1 v 11.624 h 273.1 z"
       fill="#ffffff"
       id="path464" />
    <path
       d="M 208.068,365.622 H 50.269 v 11.624 h 157.799 z"
       fill="#0c1821"
       id="path466" />
    <path
       d="m 537.597,332.977 c -0.95,12.879 -5.039,25.324 -11.905,36.232 l -20.014,-11.65 c 4.783,-7.392 7.775,-15.812 8.733,-24.582 z"
       fill="#0c1821"
       id="path468" />
    <path
       d="m 537.752,326.903 c 0,0.864 0,1.702 0,2.618 h -23.133 c 0,-0.838 0,-1.676 0,-2.618 0.007,-9.29 -2.282,-18.436 -6.661,-26.612 -4.379,-8.176 -10.71,-15.126 -18.421,-20.223 l 11.592,-20.184 c 11.218,7.157 20.457,17.054 26.86,28.771 6.403,11.717 9.761,24.874 9.763,38.248 z"
       fill="#a6a6a6"
       id="path470" />
    <path
       d="m 498.218,258.051 -11.54,20.185 c -7.928,-4.577 -16.858,-7.105 -25.992,-7.357 v -23.273 c 13.184,0.241 26.095,3.834 37.532,10.445 z"
       fill="#0c1821"
       id="path472" />
    <path
       d="m 457.307,247.606 v 23.273 c -9.394,0.292 -18.56,2.979 -26.642,7.809 -8.082,4.831 -14.816,11.646 -19.572,19.81 l -20.04,-11.623 c 6.786,-11.707 16.441,-21.464 28.041,-28.34 11.6,-6.875 24.757,-10.638 38.213,-10.929 z"
       fill="#0c1821"
       id="path474" />
    <path
       d="m 409.403,301.587 c -3.821,7.547 -5.866,15.877 -5.978,24.347 h -23.107 c 0.103,-12.556 3.205,-24.903 9.045,-35.997 z"
       fill="#a6a6a6"
       id="path476" />
    <path
       d="m 428.04,373.476 -11.567,20.185 c -10.751,-6.94 -19.66,-16.416 -25.956,-27.606 -6.295,-11.19 -9.787,-23.757 -10.173,-36.613 h 23.107 c 0.384,8.768 2.81,17.321 7.081,24.97 4.271,7.65 10.269,14.18 17.508,19.064 z"
       fill="#0c1821"
       id="path478" />
    <path
       d="m 523.743,372.141 c -11.288,16.387 -28.29,27.89 -47.62,32.218 -19.33,4.327 -39.57,1.162 -56.687,-8.866 l 11.567,-20.158 c 11.823,6.978 25.787,9.317 39.217,6.568 13.429,-2.749 25.379,-10.391 33.561,-21.464 z"
       fill="#dbdbdb"
       id="path480" />
    <path
       d="m 500.246,329.442 c -0.007,7.221 -2.123,14.281 -6.084,20.299 -3.96,6.019 -9.591,10.732 -16.192,13.551 l -14.269,-33.85 z"
       fill="#0c1821"
       id="path482" />
    <path
       d="m 459.074,326.929 14.244,33.85 c -1.118,0.445 -2.235,0.89 -3.353,1.231 -3.51,1.094 -7.164,1.65 -10.839,1.649 -3.674,-0.006 -7.327,-0.562 -10.839,-1.649 -7.486,-2.272 -14.047,-6.912 -18.711,-13.232 -4.664,-6.321 -7.182,-13.987 -7.182,-21.862 0,-7.875 2.518,-15.541 7.182,-21.862 4.664,-6.32 11.225,-10.96 18.711,-13.232 7.061,-2.198 14.617,-2.198 21.678,0 5.652,1.759 10.792,4.878 14.977,9.089 4.185,4.21 7.288,9.385 9.04,15.075 1.076,3.538 1.628,7.217 1.637,10.917 z"
       fill="#0c1821"
       id="path484" />
    <path
       d="m 459.074,326.929 14.244,33.85 c -1.118,0.445 -2.236,0.89 -3.353,1.231 -3.511,1.094 -7.164,1.65 -10.839,1.649 -7.786,0.013 -15.371,-2.49 -21.641,-7.141 -6.269,-4.651 -10.892,-11.205 -13.188,-18.698 -2.218,-7.107 -2.218,-14.727 0,-21.834 2.301,-7.488 6.926,-14.036 13.195,-18.682 6.268,-4.646 13.851,-7.145 21.634,-7.131 9.651,0 18.907,3.862 25.731,10.735 6.824,6.874 10.658,16.196 10.658,25.916 z"
       fill="#dbdbdb"
       id="path486" />
    <path
       d="m 459.074,326.929 -23.783,27.855 c -4.588,-4.022 -8.102,-9.137 -10.221,-14.879 -2.119,-5.743 -2.776,-11.928 -1.909,-17.992 0.867,-6.063 3.228,-11.812 6.869,-16.719 3.641,-4.907 8.446,-8.816 13.974,-11.371 5.528,-2.555 11.604,-3.673 17.672,-3.253 6.068,0.421 11.934,2.366 17.063,5.659 5.129,3.293 9.356,7.828 12.296,13.191 2.94,5.363 4.498,11.383 4.532,17.509 z"
       fill="#a6a6a6"
       id="path488" />
    <path
       d="m 563.589,414.578 h -50.867 l -63.005,-63.459 0.936,-0.916 62.615,63.066 h 50.321 z"
       fill="#0c1821"
       id="path490" />
    <path
       d="m 453.746,347.088 h -7.096 v 7.147 h 7.096 z"
       fill="#0c1821"
       id="path492" />
    <path
       d="m 563.589,365.492 h -57.313 l -27.214,-27.41 0.91,-0.943 26.824,27.044 h 56.793 z"
       fill="#0c1821"
       id="path494" />
    <path
       d="m 483.039,334.05 h -7.07 v 7.147 h 7.07 z"
       fill="#0c1821"
       id="path496" />
    <path
       d="m 563.589,316.903 h -86.684 v 1.309 h 86.684 z"
       fill="#0c1821"
       id="path498" />
    <path
       d="m 479.53,313.997 h -7.096 v 7.147 h 7.096 z"
       fill="#0c1821"
       id="path500" />
    <path
       d="m 654.094,310.41 h -68.178 v 5.89 h 68.178 z"
       fill="#dbdbdb"
       id="path502" />
    <path
       d="m 678.032,322.714 h -92.116 v 5.891 h 92.116 z"
       fill="#dbdbdb"
       id="path504" />
    <path
       d="m 634.807,335.045 h -48.891 v 5.89 h 48.891 z"
       fill="#dbdbdb"
       id="path506" />
    <path
       d="m 570.711,310.41 h -14.218 v 14.32 h 14.218 z"
       fill="#0c1821"
       id="path508" />
    <path
       d="m 666.96,358.083 h -81.044 v 5.89 h 81.044 z"
       fill="#dbdbdb"
       id="path510" />
    <path
       d="m 650.013,370.387 h -64.097 v 5.89 h 64.097 z"
       fill="#dbdbdb"
       id="path512" />
    <path
       d="m 678.032,382.718 h -92.116 v 5.89 h 92.116 z"
       fill="#dbdbdb"
       id="path514" />
    <path
       d="m 570.711,358.083 h -14.218 v 14.32 h 14.218 z"
       fill="#a6a6a6"
       id="path516" />
    <path
       d="m 666.96,405.756 h -81.044 v 5.89 h 81.044 z"
       fill="#dbdbdb"
       id="path518" />
    <path
       d="m 650.013,418.06 h -64.097 v 5.89 h 64.097 z"
       fill="#dbdbdb"
       id="path520" />
    <path
       d="m 678.032,430.391 h -92.116 v 5.89 h 92.116 z"
       fill="#dbdbdb"
       id="path522" />
    <path
       d="m 570.711,405.756 h -14.218 v 14.32 h 14.218 z"
       fill="#c7c7c7"
       id="path524" />
    <path
       d="m 237.004,34.515 c 0.36,0 0.676,-0.0477 0.949,-0.143 0.278,-0.0953 0.51,-0.2275 0.696,-0.3965 0.191,-0.1733 0.334,-0.3792 0.429,-0.6175 0.095,-0.2383 0.143,-0.5005 0.143,-0.7865 0,-0.5937 -0.184,-1.0573 -0.553,-1.391 -0.364,-0.3337 -0.918,-0.5005 -1.664,-0.5005 h -1.495 v 3.835 z m 0,-4.8295 c 0.59,0 1.101,0.0693 1.534,0.208 0.438,0.1343 0.8,0.3272 1.086,0.5785 0.286,0.2513 0.498,0.5547 0.637,0.91 0.143,0.3553 0.214,0.7518 0.214,1.1895 0,0.4333 -0.075,0.8298 -0.227,1.1895 -0.152,0.3597 -0.375,0.6695 -0.67,0.9295 -0.29,0.26 -0.652,0.4637 -1.085,0.611 -0.429,0.143 -0.925,0.2145 -1.489,0.2145 h -1.495 V 39 h -1.254 v -9.3145 z m 8.151,6.3505 c -0.533,0.0173 -0.988,0.0607 -1.365,0.13 -0.373,0.065 -0.678,0.1517 -0.917,0.26 -0.234,0.1083 -0.405,0.2362 -0.513,0.3835 -0.104,0.1473 -0.156,0.312 -0.156,0.494 0,0.1733 0.028,0.3228 0.084,0.4485 0.057,0.1257 0.133,0.2297 0.228,0.312 0.1,0.078 0.214,0.1365 0.344,0.1755 0.135,0.0347 0.278,0.052 0.429,0.052 0.204,0 0.39,-0.0195 0.559,-0.0585 0.169,-0.0433 0.328,-0.104 0.475,-0.182 0.152,-0.078 0.295,-0.1712 0.429,-0.2795 0.139,-0.1083 0.273,-0.2318 0.403,-0.3705 z m -3.738,-2.691 c 0.364,-0.351 0.757,-0.6132 1.177,-0.7865 0.42,-0.1733 0.886,-0.26 1.397,-0.26 0.369,0 0.696,0.0607 0.982,0.182 0.286,0.1213 0.526,0.2903 0.721,0.507 0.195,0.2167 0.343,0.4788 0.442,0.7865 0.1,0.3077 0.15,0.6457 0.15,1.014 V 39 h -0.514 c -0.112,0 -0.199,-0.0173 -0.26,-0.052 -0.06,-0.039 -0.108,-0.1127 -0.143,-0.221 l -0.13,-0.624 c -0.173,0.1603 -0.342,0.3033 -0.507,0.429 -0.164,0.1213 -0.338,0.2253 -0.52,0.312 -0.182,0.0823 -0.377,0.1452 -0.585,0.1885 -0.203,0.0477 -0.431,0.0715 -0.682,0.0715 -0.256,0 -0.496,-0.0347 -0.722,-0.104 -0.225,-0.0737 -0.422,-0.182 -0.591,-0.325 -0.165,-0.143 -0.297,-0.3228 -0.397,-0.5395 -0.095,-0.221 -0.143,-0.481 -0.143,-0.78 0,-0.26 0.072,-0.5092 0.215,-0.7475 0.143,-0.2427 0.375,-0.4572 0.695,-0.6435 0.321,-0.1863 0.739,-0.338 1.255,-0.455 0.516,-0.1213 1.148,-0.1907 1.898,-0.208 V 34.788 c 0,-0.5113 -0.111,-0.897 -0.332,-1.157 -0.221,-0.2643 -0.543,-0.3965 -0.968,-0.3965 -0.286,0 -0.527,0.0368 -0.722,0.1105 -0.19,0.0693 -0.357,0.1495 -0.5,0.2405 -0.139,0.0867 -0.26,0.1668 -0.364,0.2405 -0.1,0.0693 -0.199,0.104 -0.299,0.104 -0.078,0 -0.145,-0.0195 -0.202,-0.0585 -0.056,-0.0433 -0.104,-0.0953 -0.143,-0.156 z m 8.564,5.759 c -0.52,0 -0.921,-0.1452 -1.203,-0.4355 -0.277,-0.2903 -0.416,-0.7085 -0.416,-1.2545 v -4.03 h -0.793 c -0.069,0 -0.127,-0.0195 -0.175,-0.0585 -0.048,-0.0433 -0.072,-0.1083 -0.072,-0.195 V 32.669 l 1.079,-0.1365 0.267,-2.0345 c 0.013,-0.065 0.041,-0.117 0.084,-0.156 0.048,-0.0433 0.109,-0.065 0.182,-0.065 h 0.585 v 2.2685 h 1.905 v 0.8385 h -1.905 v 3.952 c 0,0.2773 0.068,0.4832 0.202,0.6175 0.134,0.1343 0.308,0.2015 0.52,0.2015 0.121,0 0.225,-0.0152 0.312,-0.0455 0.091,-0.0347 0.169,-0.0715 0.234,-0.1105 0.065,-0.039 0.119,-0.0737 0.162,-0.104 0.048,-0.0347 0.089,-0.052 0.124,-0.052 0.061,0 0.115,0.0368 0.162,0.1105 l 0.338,0.5525 c -0.199,0.1863 -0.439,0.3337 -0.721,0.442 -0.282,0.104 -0.572,0.156 -0.871,0.156 z m 7.007,-4.1145 c 0,-0.2687 -0.039,-0.5135 -0.117,-0.7345 -0.074,-0.2253 -0.185,-0.4182 -0.332,-0.5785 -0.143,-0.1647 -0.318,-0.2903 -0.526,-0.377 -0.208,-0.091 -0.445,-0.1365 -0.709,-0.1365 -0.555,0 -0.994,0.1625 -1.319,0.4875 -0.321,0.3207 -0.52,0.767 -0.598,1.339 z m 0.936,3.0875 c -0.143,0.1733 -0.315,0.325 -0.514,0.455 -0.199,0.1257 -0.414,0.2297 -0.643,0.312 -0.226,0.0823 -0.46,0.143 -0.702,0.182 -0.243,0.0433 -0.484,0.065 -0.722,0.065 -0.455,0 -0.875,-0.0758 -1.261,-0.2275 -0.381,-0.156 -0.713,-0.3813 -0.994,-0.676 -0.278,-0.299 -0.494,-0.6673 -0.65,-1.105 -0.156,-0.4377 -0.234,-0.9403 -0.234,-1.508 0,-0.4593 0.069,-0.8883 0.208,-1.287 0.143,-0.3987 0.346,-0.7432 0.611,-1.0335 0.264,-0.2947 0.587,-0.5243 0.968,-0.689 0.381,-0.169 0.81,-0.2535 1.287,-0.2535 0.394,0 0.758,0.0672 1.092,0.2015 0.338,0.13 0.628,0.3207 0.871,0.572 0.247,0.247 0.44,0.5547 0.579,0.923 0.138,0.364 0.208,0.78 0.208,1.248 0,0.182 -0.02,0.3033 -0.059,0.364 -0.039,0.0607 -0.113,0.091 -0.221,0.091 h -4.4 c 0.013,0.416 0.069,0.7778 0.169,1.0855 0.104,0.3077 0.247,0.5655 0.429,0.7735 0.182,0.2037 0.398,0.3575 0.65,0.4615 0.251,0.0997 0.533,0.1495 0.845,0.1495 0.29,0 0.539,-0.0325 0.747,-0.0975 0.212,-0.0693 0.394,-0.143 0.546,-0.221 0.152,-0.078 0.277,-0.1495 0.377,-0.2145 0.104,-0.0693 0.193,-0.104 0.267,-0.104 0.095,0 0.169,0.0368 0.221,0.1105 z m 2.617,-4.706 c 0.143,-0.1603 0.294,-0.3055 0.455,-0.4355 0.16,-0.13 0.329,-0.2405 0.507,-0.3315 0.182,-0.0953 0.372,-0.1668 0.572,-0.2145 0.203,-0.052 0.422,-0.078 0.656,-0.078 0.36,0 0.676,0.0607 0.949,0.182 0.278,0.117 0.507,0.286 0.689,0.507 0.187,0.2167 0.327,0.4788 0.423,0.7865 0.095,0.3077 0.143,0.6478 0.143,1.0205 V 39 h -1.164 v -4.1925 c 0,-0.4983 -0.115,-0.884 -0.344,-1.157 -0.226,-0.2773 -0.57,-0.416 -1.034,-0.416 -0.342,0 -0.663,0.0823 -0.962,0.247 -0.294,0.1647 -0.567,0.3878 -0.819,0.6695 V 39 h -1.163 v -6.5845 h 0.695 c 0.165,0 0.267,0.0802 0.306,0.2405 z m 8.089,5.733 c -0.52,0 -0.92,-0.1452 -1.202,-0.4355 -0.277,-0.2903 -0.416,-0.7085 -0.416,-1.2545 v -4.03 h -0.793 c -0.069,0 -0.128,-0.0195 -0.176,-0.0585 -0.047,-0.0433 -0.071,-0.1083 -0.071,-0.195 V 32.669 l 1.079,-0.1365 0.266,-2.0345 c 0.013,-0.065 0.042,-0.117 0.085,-0.156 0.048,-0.0433 0.108,-0.065 0.182,-0.065 h 0.585 v 2.2685 h 1.904 v 0.8385 h -1.904 v 3.952 c 0,0.2773 0.067,0.4832 0.201,0.6175 0.135,0.1343 0.308,0.2015 0.52,0.2015 0.122,0 0.226,-0.0152 0.312,-0.0455 0.091,-0.0347 0.169,-0.0715 0.234,-0.1105 0.065,-0.039 0.12,-0.0737 0.163,-0.104 0.048,-0.0347 0.089,-0.052 0.123,-0.052 0.061,0 0.115,0.0368 0.163,0.1105 l 0.338,0.5525 c -0.199,0.1863 -0.44,0.3337 -0.722,0.442 -0.281,0.104 -0.572,0.156 -0.871,0.156 z m 6.207,-3.068 c -0.533,0.0173 -0.988,0.0607 -1.365,0.13 -0.373,0.065 -0.679,0.1517 -0.917,0.26 -0.234,0.1083 -0.405,0.2362 -0.513,0.3835 -0.104,0.1473 -0.156,0.312 -0.156,0.494 0,0.1733 0.028,0.3228 0.084,0.4485 0.056,0.1257 0.132,0.2297 0.228,0.312 0.099,0.078 0.214,0.1365 0.344,0.1755 0.134,0.0347 0.277,0.052 0.429,0.052 0.204,0 0.39,-0.0195 0.559,-0.0585 0.169,-0.0433 0.327,-0.104 0.475,-0.182 0.151,-0.078 0.294,-0.1712 0.429,-0.2795 0.138,-0.1083 0.273,-0.2318 0.403,-0.3705 z m -3.738,-2.691 c 0.364,-0.351 0.756,-0.6132 1.177,-0.7865 0.42,-0.1733 0.886,-0.26 1.397,-0.26 0.368,0 0.696,0.0607 0.982,0.182 0.286,0.1213 0.526,0.2903 0.721,0.507 0.195,0.2167 0.342,0.4788 0.442,0.7865 0.1,0.3077 0.15,0.6457 0.15,1.014 V 39 h -0.514 c -0.113,0 -0.199,-0.0173 -0.26,-0.052 -0.061,-0.039 -0.108,-0.1127 -0.143,-0.221 l -0.13,-0.624 c -0.173,0.1603 -0.342,0.3033 -0.507,0.429 -0.165,0.1213 -0.338,0.2253 -0.52,0.312 -0.182,0.0823 -0.377,0.1452 -0.585,0.1885 -0.204,0.0477 -0.431,0.0715 -0.682,0.0715 -0.256,0 -0.497,-0.0347 -0.722,-0.104 -0.225,-0.0737 -0.422,-0.182 -0.591,-0.325 -0.165,-0.143 -0.297,-0.3228 -0.397,-0.5395 -0.095,-0.221 -0.143,-0.481 -0.143,-0.78 0,-0.26 0.072,-0.5092 0.215,-0.7475 0.143,-0.2427 0.374,-0.4572 0.695,-0.6435 0.321,-0.1863 0.739,-0.338 1.255,-0.455 0.515,-0.1213 1.148,-0.1907 1.898,-0.208 V 34.788 c 0,-0.5113 -0.111,-0.897 -0.332,-1.157 -0.221,-0.2643 -0.544,-0.3965 -0.968,-0.3965 -0.286,0 -0.527,0.0368 -0.722,0.1105 -0.191,0.0693 -0.357,0.1495 -0.5,0.2405 -0.139,0.0867 -0.26,0.1668 -0.364,0.2405 -0.1,0.0693 -0.2,0.104 -0.299,0.104 -0.078,0 -0.146,-0.0195 -0.202,-0.0585 -0.056,-0.0433 -0.104,-0.0953 -0.143,-0.156 z m 7.794,4.069 c 0.213,0.286 0.445,0.4875 0.696,0.6045 0.256,0.117 0.535,0.1755 0.838,0.1755 0.62,0 1.095,-0.2188 1.424,-0.6565 0.329,-0.4377 0.494,-1.0898 0.494,-1.9565 0,-0.806 -0.147,-1.3975 -0.442,-1.7745 -0.29,-0.3813 -0.706,-0.572 -1.248,-0.572 -0.377,0 -0.706,0.0867 -0.988,0.26 -0.277,0.1733 -0.535,0.4182 -0.774,0.7345 z m 0,-4.0495 c 0.278,-0.3207 0.59,-0.5763 0.936,-0.767 0.351,-0.1907 0.754,-0.286 1.209,-0.286 0.386,0 0.733,0.0737 1.04,0.221 0.312,0.1473 0.577,0.3618 0.793,0.6435 0.217,0.2773 0.382,0.6153 0.494,1.014 0.117,0.3987 0.176,0.8472 0.176,1.3455 0,0.533 -0.065,1.0183 -0.195,1.456 -0.13,0.4377 -0.319,0.8125 -0.566,1.1245 -0.242,0.3077 -0.539,0.5482 -0.89,0.7215 -0.351,0.169 -0.745,0.2535 -1.183,0.2535 -0.433,0 -0.8,-0.0802 -1.099,-0.2405 -0.294,-0.1647 -0.552,-0.3965 -0.773,-0.6955 l -0.059,0.598 C 278.742,38.9177 278.642,39 278.477,39 h -0.747 v -9.5745 h 1.163 z m 7.333,-0.949 V 39 h -1.157 v -6.5845 z m 0.247,-2.067 c 0,0.1127 -0.023,0.2188 -0.071,0.3185 -0.043,0.0953 -0.104,0.182 -0.182,0.26 -0.074,0.0737 -0.163,0.1322 -0.267,0.1755 -0.099,0.0433 -0.205,0.065 -0.318,0.065 -0.113,0 -0.219,-0.0217 -0.319,-0.065 -0.095,-0.0433 -0.179,-0.1018 -0.253,-0.1755 -0.074,-0.078 -0.132,-0.1647 -0.176,-0.26 -0.043,-0.0997 -0.065,-0.2058 -0.065,-0.3185 0,-0.1127 0.022,-0.2188 0.065,-0.3185 0.044,-0.104 0.102,-0.1928 0.176,-0.2665 0.074,-0.078 0.158,-0.1387 0.253,-0.182 0.1,-0.0433 0.206,-0.065 0.319,-0.065 0.113,0 0.219,0.0217 0.318,0.065 0.104,0.0433 0.193,0.104 0.267,0.182 0.078,0.0737 0.139,0.1625 0.182,0.2665 0.048,0.0997 0.071,0.2058 0.071,0.3185 z m 2.85,-0.923 V 39 h -1.157 v -9.5745 z m 3.099,2.99 V 39 h -1.157 v -6.5845 z m 0.247,-2.067 c 0,0.1127 -0.024,0.2188 -0.072,0.3185 -0.043,0.0953 -0.104,0.182 -0.182,0.26 -0.073,0.0737 -0.162,0.1322 -0.266,0.1755 -0.1,0.0433 -0.206,0.065 -0.319,0.065 -0.112,0 -0.219,-0.0217 -0.318,-0.065 -0.096,-0.0433 -0.18,-0.1018 -0.254,-0.1755 -0.073,-0.078 -0.132,-0.1647 -0.175,-0.26 -0.044,-0.0997 -0.065,-0.2058 -0.065,-0.3185 0,-0.1127 0.021,-0.2188 0.065,-0.3185 0.043,-0.104 0.102,-0.1928 0.175,-0.2665 0.074,-0.078 0.158,-0.1387 0.254,-0.182 0.099,-0.0433 0.206,-0.065 0.318,-0.065 0.113,0 0.219,0.0217 0.319,0.065 0.104,0.0433 0.193,0.104 0.266,0.182 0.078,0.0737 0.139,0.1625 0.182,0.2665 0.048,0.0997 0.072,0.2058 0.072,0.3185 z m 3.675,8.7555 c -0.52,0 -0.921,-0.1452 -1.202,-0.4355 -0.278,-0.2903 -0.416,-0.7085 -0.416,-1.2545 v -4.03 h -0.793 c -0.07,0 -0.128,-0.0195 -0.176,-0.0585 -0.047,-0.0433 -0.071,-0.1083 -0.071,-0.195 V 32.669 l 1.079,-0.1365 0.266,-2.0345 c 0.013,-0.065 0.041,-0.117 0.085,-0.156 0.047,-0.0433 0.108,-0.065 0.182,-0.065 h 0.585 v 2.2685 h 1.904 v 0.8385 h -1.904 v 3.952 c 0,0.2773 0.067,0.4832 0.201,0.6175 0.135,0.1343 0.308,0.2015 0.52,0.2015 0.122,0 0.226,-0.0152 0.312,-0.0455 0.091,-0.0347 0.169,-0.0715 0.234,-0.1105 0.065,-0.039 0.119,-0.0737 0.163,-0.104 0.047,-0.0347 0.089,-0.052 0.123,-0.052 0.061,0 0.115,0.0368 0.163,0.1105 l 0.338,0.5525 c -0.2,0.1863 -0.44,0.3337 -0.722,0.442 -0.281,0.104 -0.572,0.156 -0.871,0.156 z m 8.319,-6.6885 -3.673,8.528 c -0.039,0.0867 -0.088,0.156 -0.149,0.208 -0.056,0.052 -0.145,0.078 -0.267,0.078 h -0.858 l 1.203,-2.613 -2.717,-6.201 h 1.001 c 0.1,0 0.178,0.026 0.234,0.078 0.061,0.0477 0.102,0.1018 0.123,0.1625 l 1.762,4.147 c 0.069,0.182 0.128,0.3727 0.175,0.572 0.061,-0.2037 0.126,-0.3965 0.195,-0.5785 l 1.71,-4.1405 c 0.026,-0.0693 0.069,-0.1257 0.13,-0.169 0.065,-0.0477 0.136,-0.0715 0.214,-0.0715 z m 6.884,1.781 c 0.364,0 0.685,-0.0433 0.962,-0.13 0.282,-0.091 0.516,-0.2167 0.702,-0.377 0.191,-0.1647 0.334,-0.3597 0.429,-0.585 0.096,-0.2253 0.143,-0.4745 0.143,-0.7475 0,-0.5547 -0.182,-0.9728 -0.546,-1.2545 -0.364,-0.2817 -0.91,-0.4225 -1.638,-0.4225 h -1.378 v 3.5165 z M 315.85,39 h -1.118 c -0.229,0 -0.398,-0.0888 -0.507,-0.2665 l -2.418,-3.328 c -0.073,-0.104 -0.153,-0.1777 -0.24,-0.221 -0.082,-0.0477 -0.212,-0.0715 -0.39,-0.0715 h -0.956 V 39 h -1.254 v -9.3145 h 2.632 c 0.59,0 1.099,0.0607 1.528,0.182 0.429,0.117 0.782,0.2882 1.059,0.5135 0.282,0.2253 0.49,0.4983 0.624,0.819 0.135,0.3163 0.202,0.6717 0.202,1.066 0,0.3293 -0.052,0.637 -0.156,0.923 -0.104,0.286 -0.256,0.5438 -0.455,0.7735 -0.195,0.2253 -0.436,0.4182 -0.722,0.5785 -0.281,0.1603 -0.602,0.2817 -0.962,0.364 0.161,0.091 0.299,0.2232 0.416,0.3965 z m 4.982,-4.0105 c 0,-0.2687 -0.039,-0.5135 -0.117,-0.7345 -0.073,-0.2253 -0.184,-0.4182 -0.331,-0.5785 -0.143,-0.1647 -0.319,-0.2903 -0.527,-0.377 -0.208,-0.091 -0.444,-0.1365 -0.708,-0.1365 -0.555,0 -0.995,0.1625 -1.32,0.4875 -0.32,0.3207 -0.52,0.767 -0.598,1.339 z m 0.936,3.0875 c -0.143,0.1733 -0.314,0.325 -0.513,0.455 -0.2,0.1257 -0.414,0.2297 -0.644,0.312 -0.225,0.0823 -0.459,0.143 -0.702,0.182 -0.242,0.0433 -0.483,0.065 -0.721,0.065 -0.455,0 -0.876,-0.0758 -1.261,-0.2275 -0.382,-0.156 -0.713,-0.3813 -0.995,-0.676 -0.277,-0.299 -0.494,-0.6673 -0.65,-1.105 -0.156,-0.4377 -0.234,-0.9403 -0.234,-1.508 0,-0.4593 0.07,-0.8883 0.208,-1.287 0.143,-0.3987 0.347,-0.7432 0.611,-1.0335 0.265,-0.2947 0.587,-0.5243 0.969,-0.689 0.381,-0.169 0.81,-0.2535 1.287,-0.2535 0.394,0 0.758,0.0672 1.092,0.2015 0.338,0.13 0.628,0.3207 0.871,0.572 0.247,0.247 0.44,0.5547 0.578,0.923 0.139,0.364 0.208,0.78 0.208,1.248 0,0.182 -0.019,0.3033 -0.058,0.364 -0.039,0.0607 -0.113,0.091 -0.221,0.091 h -4.401 c 0.013,0.416 0.07,0.7778 0.169,1.0855 0.104,0.3077 0.247,0.5655 0.429,0.7735 0.182,0.2037 0.399,0.3575 0.65,0.4615 0.252,0.0997 0.533,0.1495 0.845,0.1495 0.291,0 0.54,-0.0325 0.748,-0.0975 0.212,-0.0693 0.394,-0.143 0.546,-0.221 0.151,-0.078 0.277,-0.1495 0.377,-0.2145 0.104,-0.0693 0.193,-0.104 0.266,-0.104 0.096,0 0.169,0.0368 0.221,0.1105 z m 5.36,-4.576 c -0.052,0.0953 -0.132,0.143 -0.24,0.143 -0.065,0 -0.139,-0.0238 -0.221,-0.0715 -0.082,-0.0477 -0.184,-0.0997 -0.306,-0.156 -0.117,-0.0607 -0.257,-0.1148 -0.422,-0.1625 -0.165,-0.052 -0.36,-0.078 -0.585,-0.078 -0.195,0 -0.371,0.026 -0.527,0.078 -0.156,0.0477 -0.29,0.1148 -0.403,0.2015 -0.108,0.0867 -0.192,0.1885 -0.253,0.3055 -0.056,0.1127 -0.085,0.2362 -0.085,0.3705 0,0.169 0.048,0.3098 0.143,0.4225 0.1,0.1127 0.23,0.2102 0.39,0.2925 0.161,0.0823 0.343,0.156 0.546,0.221 0.204,0.0607 0.412,0.1278 0.624,0.2015 0.217,0.0693 0.427,0.1473 0.631,0.234 0.204,0.0867 0.386,0.195 0.546,0.325 0.16,0.13 0.288,0.2903 0.383,0.481 0.1,0.1863 0.15,0.4117 0.15,0.676 0,0.3033 -0.054,0.585 -0.163,0.845 -0.108,0.2557 -0.268,0.4788 -0.481,0.6695 -0.212,0.1863 -0.472,0.3337 -0.78,0.442 -0.307,0.1083 -0.663,0.1625 -1.066,0.1625 -0.459,0 -0.875,-0.0737 -1.248,-0.221 -0.372,-0.1517 -0.689,-0.3445 -0.949,-0.5785 l 0.273,-0.442 c 0.035,-0.0563 0.076,-0.0997 0.124,-0.13 0.048,-0.0303 0.108,-0.0455 0.182,-0.0455 0.078,0 0.16,0.0303 0.247,0.091 0.087,0.0607 0.191,0.1278 0.312,0.2015 0.126,0.0737 0.277,0.1408 0.455,0.2015 0.178,0.0607 0.399,0.091 0.663,0.091 0.225,0 0.422,-0.0282 0.591,-0.0845 0.169,-0.0607 0.31,-0.1408 0.423,-0.2405 0.113,-0.0997 0.195,-0.2145 0.247,-0.3445 0.056,-0.13 0.084,-0.2687 0.084,-0.416 0,-0.182 -0.049,-0.3315 -0.149,-0.4485 -0.095,-0.1213 -0.223,-0.2232 -0.384,-0.3055 -0.16,-0.0867 -0.344,-0.1603 -0.552,-0.221 -0.204,-0.065 -0.414,-0.1322 -0.631,-0.2015 -0.212,-0.0693 -0.422,-0.1473 -0.63,-0.234 -0.204,-0.091 -0.386,-0.2037 -0.546,-0.338 -0.16,-0.1343 -0.29,-0.299 -0.39,-0.494 -0.095,-0.1993 -0.143,-0.4398 -0.143,-0.7215 0,-0.2513 0.052,-0.4918 0.156,-0.7215 0.104,-0.234 0.256,-0.4377 0.455,-0.611 0.199,-0.1777 0.444,-0.3185 0.734,-0.4225 0.291,-0.104 0.622,-0.156 0.995,-0.156 0.433,0 0.821,0.0693 1.163,0.208 0.347,0.1343 0.646,0.3207 0.897,0.559 z m 6.196,1.4885 c 0,-0.2687 -0.039,-0.5135 -0.117,-0.7345 -0.073,-0.2253 -0.184,-0.4182 -0.331,-0.5785 -0.143,-0.1647 -0.319,-0.2903 -0.527,-0.377 -0.208,-0.091 -0.444,-0.1365 -0.708,-0.1365 -0.555,0 -0.995,0.1625 -1.32,0.4875 -0.32,0.3207 -0.52,0.767 -0.598,1.339 z m 0.936,3.0875 c -0.143,0.1733 -0.314,0.325 -0.513,0.455 -0.199,0.1257 -0.414,0.2297 -0.644,0.312 -0.225,0.0823 -0.459,0.143 -0.702,0.182 -0.242,0.0433 -0.483,0.065 -0.721,0.065 -0.455,0 -0.875,-0.0758 -1.261,-0.2275 -0.381,-0.156 -0.713,-0.3813 -0.995,-0.676 -0.277,-0.299 -0.494,-0.6673 -0.65,-1.105 -0.156,-0.4377 -0.234,-0.9403 -0.234,-1.508 0,-0.4593 0.07,-0.8883 0.208,-1.287 0.143,-0.3987 0.347,-0.7432 0.611,-1.0335 0.265,-0.2947 0.588,-0.5243 0.969,-0.689 0.381,-0.169 0.81,-0.2535 1.287,-0.2535 0.394,0 0.758,0.0672 1.092,0.2015 0.338,0.13 0.628,0.3207 0.871,0.572 0.247,0.247 0.44,0.5547 0.578,0.923 0.139,0.364 0.208,0.78 0.208,1.248 0,0.182 -0.019,0.3033 -0.058,0.364 -0.039,0.0607 -0.113,0.091 -0.221,0.091 h -4.401 c 0.013,0.416 0.07,0.7778 0.169,1.0855 0.104,0.3077 0.247,0.5655 0.429,0.7735 0.182,0.2037 0.399,0.3575 0.65,0.4615 0.252,0.0997 0.533,0.1495 0.845,0.1495 0.291,0 0.54,-0.0325 0.748,-0.0975 0.212,-0.0693 0.394,-0.143 0.546,-0.221 0.152,-0.078 0.277,-0.1495 0.377,-0.2145 0.104,-0.0693 0.193,-0.104 0.266,-0.104 0.096,0 0.169,0.0368 0.221,0.1105 z m 5.094,-2.041 c -0.533,0.0173 -0.988,0.0607 -1.365,0.13 -0.373,0.065 -0.678,0.1517 -0.916,0.26 -0.234,0.1083 -0.406,0.2362 -0.514,0.3835 -0.104,0.1473 -0.156,0.312 -0.156,0.494 0,0.1733 0.028,0.3228 0.085,0.4485 0.056,0.1257 0.132,0.2297 0.227,0.312 0.1,0.078 0.215,0.1365 0.345,0.1755 0.134,0.0347 0.277,0.052 0.429,0.052 0.203,0 0.39,-0.0195 0.559,-0.0585 0.169,-0.0433 0.327,-0.104 0.474,-0.182 0.152,-0.078 0.295,-0.1712 0.429,-0.2795 0.139,-0.1083 0.273,-0.2318 0.403,-0.3705 z m -3.737,-2.691 c 0.364,-0.351 0.756,-0.6132 1.176,-0.7865 0.42,-0.1733 0.886,-0.26 1.398,-0.26 0.368,0 0.695,0.0607 0.981,0.182 0.286,0.1213 0.527,0.2903 0.722,0.507 0.195,0.2167 0.342,0.4788 0.442,0.7865 0.099,0.3077 0.149,0.6457 0.149,1.014 V 39 h -0.513 c -0.113,0 -0.2,-0.0173 -0.26,-0.052 -0.061,-0.039 -0.109,-0.1127 -0.143,-0.221 l -0.13,-0.624 c -0.174,0.1603 -0.343,0.3033 -0.507,0.429 -0.165,0.1213 -0.338,0.2253 -0.52,0.312 -0.182,0.0823 -0.377,0.1452 -0.585,0.1885 -0.204,0.0477 -0.432,0.0715 -0.683,0.0715 -0.256,0 -0.496,-0.0347 -0.721,-0.104 -0.226,-0.0737 -0.423,-0.182 -0.592,-0.325 -0.165,-0.143 -0.297,-0.3228 -0.396,-0.5395 -0.096,-0.221 -0.143,-0.481 -0.143,-0.78 0,-0.26 0.071,-0.5092 0.214,-0.7475 0.143,-0.2427 0.375,-0.4572 0.696,-0.6435 0.32,-0.1863 0.738,-0.338 1.254,-0.455 0.516,-0.1213 1.148,-0.1907 1.898,-0.208 V 34.788 c 0,-0.5113 -0.11,-0.897 -0.331,-1.157 -0.221,-0.2643 -0.544,-0.3965 -0.969,-0.3965 -0.286,0 -0.526,0.0368 -0.721,0.1105 -0.191,0.0693 -0.358,0.1495 -0.501,0.2405 -0.139,0.0867 -0.26,0.1668 -0.364,0.2405 -0.1,0.0693 -0.199,0.104 -0.299,0.104 -0.078,0 -0.145,-0.0195 -0.201,-0.0585 -0.057,-0.0433 -0.104,-0.0953 -0.143,-0.156 z m 7.729,0.39 c 0.208,-0.4507 0.464,-0.8017 0.767,-1.053 0.303,-0.2557 0.674,-0.3835 1.112,-0.3835 0.138,0 0.27,0.0152 0.396,0.0455 0.13,0.0303 0.245,0.078 0.345,0.143 l -0.085,0.8645 c -0.026,0.1083 -0.091,0.1625 -0.195,0.1625 -0.061,0 -0.149,-0.013 -0.266,-0.039 -0.117,-0.026 -0.25,-0.039 -0.397,-0.039 -0.208,0 -0.394,0.0303 -0.559,0.091 -0.16,0.0607 -0.305,0.1517 -0.435,0.273 -0.126,0.117 -0.241,0.2643 -0.345,0.442 -0.1,0.1733 -0.191,0.3727 -0.273,0.598 V 39 h -1.163 v -6.5845 h 0.663 c 0.125,0 0.212,0.0238 0.26,0.0715 0.047,0.0477 0.08,0.13 0.097,0.247 z m 7.953,-0.1495 c -0.035,0.0477 -0.07,0.0845 -0.104,0.1105 -0.035,0.026 -0.083,0.039 -0.143,0.039 -0.065,0 -0.137,-0.026 -0.215,-0.078 -0.078,-0.0563 -0.175,-0.117 -0.292,-0.182 -0.113,-0.065 -0.254,-0.1235 -0.423,-0.1755 -0.164,-0.0563 -0.368,-0.0845 -0.611,-0.0845 -0.325,0 -0.611,0.0585 -0.858,0.1755 -0.247,0.1127 -0.455,0.2773 -0.624,0.494 -0.164,0.2167 -0.29,0.4788 -0.377,0.7865 -0.082,0.3077 -0.123,0.6522 -0.123,1.0335 0,0.3987 0.045,0.754 0.136,1.066 0.091,0.3077 0.219,0.5677 0.384,0.78 0.169,0.208 0.37,0.3683 0.604,0.481 0.239,0.1083 0.505,0.1625 0.8,0.1625 0.281,0 0.513,-0.0325 0.695,-0.0975 0.182,-0.0693 0.332,-0.1452 0.449,-0.2275 0.121,-0.0823 0.221,-0.156 0.299,-0.221 0.082,-0.0693 0.162,-0.104 0.24,-0.104 0.096,0 0.169,0.0368 0.221,0.1105 l 0.325,0.4225 c -0.143,0.1777 -0.305,0.3293 -0.487,0.455 -0.182,0.1257 -0.379,0.2318 -0.592,0.3185 -0.208,0.0823 -0.427,0.143 -0.656,0.182 -0.23,0.039 -0.464,0.0585 -0.702,0.0585 -0.412,0 -0.795,-0.0758 -1.151,-0.2275 -0.351,-0.1517 -0.656,-0.3705 -0.916,-0.6565 -0.26,-0.2903 -0.464,-0.6457 -0.611,-1.066 -0.148,-0.4203 -0.221,-0.8992 -0.221,-1.4365 0,-0.4897 0.067,-0.9425 0.201,-1.3585 0.139,-0.416 0.338,-0.7735 0.598,-1.0725 0.265,-0.3033 0.587,-0.5395 0.969,-0.7085 0.385,-0.169 0.827,-0.2535 1.326,-0.2535 0.463,0 0.871,0.0758 1.222,0.2275 0.355,0.1473 0.669,0.3575 0.942,0.6305 z m 2.789,-0.2925 c 0.281,-0.299 0.593,-0.5373 0.936,-0.715 0.342,-0.1777 0.736,-0.2665 1.183,-0.2665 0.359,0 0.676,0.0607 0.949,0.182 0.277,0.117 0.507,0.286 0.689,0.507 0.186,0.2167 0.327,0.4788 0.422,0.7865 0.096,0.3077 0.143,0.6478 0.143,1.0205 V 39 h -1.163 v -4.1925 c 0,-0.4983 -0.115,-0.884 -0.345,-1.157 -0.225,-0.2773 -0.57,-0.416 -1.033,-0.416 -0.343,0 -0.663,0.0823 -0.962,0.247 -0.295,0.1647 -0.568,0.3878 -0.819,0.6695 V 39 h -1.164 v -9.5745 h 1.164 z m 18.291,1.053 c 0,0.6977 -0.111,1.339 -0.332,1.924 -0.221,0.5807 -0.533,1.0812 -0.936,1.5015 -0.403,0.4203 -0.888,0.7475 -1.456,0.9815 -0.563,0.2297 -1.187,0.3445 -1.872,0.3445 -0.685,0 -1.309,-0.1148 -1.872,-0.3445 -0.563,-0.234 -1.046,-0.5612 -1.449,-0.9815 -0.403,-0.4203 -0.715,-0.9208 -0.936,-1.5015 -0.221,-0.585 -0.332,-1.2263 -0.332,-1.924 0,-0.6977 0.111,-1.3368 0.332,-1.9175 0.221,-0.585 0.533,-1.0877 0.936,-1.508 0.403,-0.4247 0.886,-0.754 1.449,-0.988 0.563,-0.234 1.187,-0.351 1.872,-0.351 0.685,0 1.309,0.117 1.872,0.351 0.568,0.234 1.053,0.5633 1.456,0.988 0.403,0.4203 0.715,0.923 0.936,1.508 0.221,0.5807 0.332,1.2198 0.332,1.9175 z m -1.294,0 c 0,-0.572 -0.078,-1.0855 -0.234,-1.5405 -0.156,-0.455 -0.377,-0.8385 -0.663,-1.1505 -0.286,-0.3163 -0.633,-0.559 -1.04,-0.728 -0.407,-0.169 -0.862,-0.2535 -1.365,-0.2535 -0.498,0 -0.951,0.0845 -1.358,0.2535 -0.408,0.169 -0.757,0.4117 -1.047,0.728 -0.286,0.312 -0.507,0.6955 -0.663,1.1505 -0.156,0.455 -0.234,0.9685 -0.234,1.5405 0,0.572 0.078,1.0855 0.234,1.5405 0.156,0.4507 0.377,0.8342 0.663,1.1505 0.29,0.312 0.639,0.5525 1.047,0.7215 0.407,0.1647 0.86,0.247 1.358,0.247 0.503,0 0.958,-0.0823 1.365,-0.247 0.407,-0.169 0.754,-0.4095 1.04,-0.7215 0.286,-0.3163 0.507,-0.6998 0.663,-1.1505 0.156,-0.455 0.234,-0.9685 0.234,-1.5405 z M 379.526,32.4155 376.842,39 h -1.04 l -2.685,-6.5845 h 0.943 c 0.095,0 0.173,0.0238 0.234,0.0715 0.06,0.0477 0.102,0.104 0.123,0.169 l 1.671,4.238 c 0.052,0.1603 0.097,0.3163 0.136,0.468 0.039,0.1517 0.076,0.3033 0.111,0.455 0.034,-0.1517 0.071,-0.3033 0.11,-0.455 0.039,-0.1517 0.087,-0.3077 0.143,-0.468 l 1.69,-4.238 c 0.026,-0.0693 0.07,-0.1257 0.13,-0.169 0.061,-0.0477 0.132,-0.0715 0.215,-0.0715 z m 5.291,2.574 c 0,-0.2687 -0.039,-0.5135 -0.117,-0.7345 -0.074,-0.2253 -0.185,-0.4182 -0.332,-0.5785 -0.143,-0.1647 -0.318,-0.2903 -0.526,-0.377 -0.208,-0.091 -0.445,-0.1365 -0.709,-0.1365 -0.555,0 -0.994,0.1625 -1.319,0.4875 -0.321,0.3207 -0.52,0.767 -0.598,1.339 z m 0.936,3.0875 c -0.143,0.1733 -0.315,0.325 -0.514,0.455 -0.199,0.1257 -0.414,0.2297 -0.643,0.312 -0.226,0.0823 -0.46,0.143 -0.702,0.182 -0.243,0.0433 -0.484,0.065 -0.722,0.065 -0.455,0 -0.875,-0.0758 -1.261,-0.2275 -0.381,-0.156 -0.713,-0.3813 -0.994,-0.676 -0.278,-0.299 -0.494,-0.6673 -0.65,-1.105 -0.156,-0.4377 -0.234,-0.9403 -0.234,-1.508 0,-0.4593 0.069,-0.8883 0.208,-1.287 0.143,-0.3987 0.346,-0.7432 0.611,-1.0335 0.264,-0.2947 0.587,-0.5243 0.968,-0.689 0.381,-0.169 0.81,-0.2535 1.287,-0.2535 0.394,0 0.758,0.0672 1.092,0.2015 0.338,0.13 0.628,0.3207 0.871,0.572 0.247,0.247 0.44,0.5547 0.579,0.923 0.138,0.364 0.208,0.78 0.208,1.248 0,0.182 -0.02,0.3033 -0.059,0.364 -0.039,0.0607 -0.113,0.091 -0.221,0.091 h -4.4 c 0.013,0.416 0.069,0.7778 0.169,1.0855 0.104,0.3077 0.247,0.5655 0.429,0.7735 0.182,0.2037 0.398,0.3575 0.65,0.4615 0.251,0.0997 0.533,0.1495 0.845,0.1495 0.29,0 0.539,-0.0325 0.747,-0.0975 0.212,-0.0693 0.394,-0.143 0.546,-0.221 0.152,-0.078 0.277,-0.1495 0.377,-0.2145 0.104,-0.0693 0.193,-0.104 0.267,-0.104 0.095,0 0.169,0.0368 0.221,0.1105 z m 2.623,-4.342 c 0.208,-0.4507 0.464,-0.8017 0.767,-1.053 0.304,-0.2557 0.674,-0.3835 1.112,-0.3835 0.138,0 0.271,0.0152 0.396,0.0455 0.13,0.0303 0.245,0.078 0.345,0.143 l -0.085,0.8645 c -0.026,0.1083 -0.091,0.1625 -0.195,0.1625 -0.06,0 -0.149,-0.013 -0.266,-0.039 -0.117,-0.026 -0.249,-0.039 -0.397,-0.039 -0.208,0 -0.394,0.0303 -0.559,0.091 -0.16,0.0607 -0.305,0.1517 -0.435,0.273 -0.126,0.117 -0.241,0.2643 -0.345,0.442 -0.099,0.1733 -0.19,0.3727 -0.273,0.598 V 39 h -1.163 v -6.5845 h 0.663 c 0.125,0 0.212,0.0238 0.26,0.0715 0.047,0.0477 0.08,0.13 0.097,0.247 z M 397.655,32.4155 394.971,39 h -1.04 l -2.685,-6.5845 h 0.943 c 0.095,0 0.173,0.0238 0.234,0.0715 0.06,0.0477 0.102,0.104 0.123,0.169 l 1.671,4.238 c 0.052,0.1603 0.097,0.3163 0.136,0.468 0.039,0.1517 0.076,0.3033 0.111,0.455 0.034,-0.1517 0.071,-0.3033 0.11,-0.455 0.039,-0.1517 0.087,-0.3077 0.143,-0.468 l 1.69,-4.238 c 0.026,-0.0693 0.07,-0.1257 0.13,-0.169 0.061,-0.0477 0.132,-0.0715 0.215,-0.0715 z m 2.283,0 V 39 h -1.157 v -6.5845 z m 0.247,-2.067 c 0,0.1127 -0.024,0.2188 -0.071,0.3185 -0.044,0.0953 -0.104,0.182 -0.182,0.26 -0.074,0.0737 -0.163,0.1322 -0.267,0.1755 -0.099,0.0433 -0.206,0.065 -0.318,0.065 -0.113,0 -0.219,-0.0217 -0.319,-0.065 -0.095,-0.0433 -0.18,-0.1018 -0.253,-0.1755 -0.074,-0.078 -0.132,-0.1647 -0.176,-0.26 -0.043,-0.0997 -0.065,-0.2058 -0.065,-0.3185 0,-0.1127 0.022,-0.2188 0.065,-0.3185 0.044,-0.104 0.102,-0.1928 0.176,-0.2665 0.073,-0.078 0.158,-0.1387 0.253,-0.182 0.1,-0.0433 0.206,-0.065 0.319,-0.065 0.112,0 0.219,0.0217 0.318,0.065 0.104,0.0433 0.193,0.104 0.267,0.182 0.078,0.0737 0.138,0.1625 0.182,0.2665 0.047,0.0997 0.071,0.2058 0.071,0.3185 z m 6.061,4.641 c 0,-0.2687 -0.039,-0.5135 -0.117,-0.7345 -0.073,-0.2253 -0.184,-0.4182 -0.331,-0.5785 -0.143,-0.1647 -0.319,-0.2903 -0.527,-0.377 -0.208,-0.091 -0.444,-0.1365 -0.708,-0.1365 -0.555,0 -0.995,0.1625 -1.32,0.4875 -0.32,0.3207 -0.52,0.767 -0.598,1.339 z m 0.936,3.0875 c -0.143,0.1733 -0.314,0.325 -0.513,0.455 -0.199,0.1257 -0.414,0.2297 -0.644,0.312 -0.225,0.0823 -0.459,0.143 -0.702,0.182 -0.242,0.0433 -0.483,0.065 -0.721,0.065 -0.455,0 -0.875,-0.0758 -1.261,-0.2275 -0.381,-0.156 -0.713,-0.3813 -0.995,-0.676 -0.277,-0.299 -0.494,-0.6673 -0.65,-1.105 -0.156,-0.4377 -0.234,-0.9403 -0.234,-1.508 0,-0.4593 0.07,-0.8883 0.208,-1.287 0.143,-0.3987 0.347,-0.7432 0.611,-1.0335 0.265,-0.2947 0.588,-0.5243 0.969,-0.689 0.381,-0.169 0.81,-0.2535 1.287,-0.2535 0.394,0 0.758,0.0672 1.092,0.2015 0.338,0.13 0.628,0.3207 0.871,0.572 0.247,0.247 0.44,0.5547 0.578,0.923 0.139,0.364 0.208,0.78 0.208,1.248 0,0.182 -0.019,0.3033 -0.058,0.364 -0.039,0.0607 -0.113,0.091 -0.221,0.091 h -4.401 c 0.013,0.416 0.07,0.7778 0.169,1.0855 0.104,0.3077 0.247,0.5655 0.429,0.7735 0.182,0.2037 0.399,0.3575 0.65,0.4615 0.252,0.0997 0.533,0.1495 0.845,0.1495 0.291,0 0.54,-0.0325 0.748,-0.0975 0.212,-0.0693 0.394,-0.143 0.546,-0.221 0.152,-0.078 0.277,-0.1495 0.377,-0.2145 0.104,-0.0693 0.193,-0.104 0.266,-0.104 0.096,0 0.169,0.0368 0.221,0.1105 z M 417.725,32.4155 415.593,39 h -0.917 c -0.113,0 -0.191,-0.0737 -0.234,-0.221 l -1.456,-4.4655 c -0.035,-0.0997 -0.063,-0.1993 -0.084,-0.299 -0.022,-0.104 -0.044,-0.2058 -0.065,-0.3055 -0.022,0.0997 -0.044,0.2015 -0.065,0.3055 -0.022,0.0997 -0.05,0.2015 -0.085,0.3055 l -1.482,4.459 C 411.166,38.9263 411.079,39 410.945,39 h -0.871 l -2.132,-6.5845 h 0.91 c 0.091,0 0.167,0.0238 0.228,0.0715 0.065,0.0477 0.108,0.104 0.13,0.169 l 1.261,4.238 c 0.073,0.312 0.132,0.6067 0.175,0.884 0.039,-0.143 0.078,-0.2882 0.117,-0.4355 0.043,-0.1473 0.089,-0.2968 0.137,-0.4485 l 1.391,-4.264 c 0.021,-0.065 0.058,-0.1192 0.11,-0.1625 0.056,-0.0433 0.124,-0.065 0.202,-0.065 h 0.507 c 0.086,0 0.158,0.0217 0.214,0.065 0.056,0.0433 0.095,0.0975 0.117,0.1625 l 1.359,4.264 c 0.047,0.1517 0.091,0.3012 0.13,0.4485 0.039,0.1473 0.075,0.2925 0.11,0.4355 0.022,-0.143 0.048,-0.286 0.078,-0.429 0.035,-0.1473 0.072,-0.299 0.111,-0.455 l 1.287,-4.238 c 0.021,-0.0693 0.062,-0.1257 0.123,-0.169 0.061,-0.0477 0.132,-0.0715 0.215,-0.0715 z"
       fill="#000000"
       id="path526" />
  </g>
  <path
     id="Path_2959"
     data-name="Path 2959"
     d="m 440.72287,47.445636 v -8.272 h 3.85954 c 2.82557,0 4.02555,1.6 4.02555,4.136 0,2.536 -1.20351,4.136 -4.02555,4.136 z m 15.10618,-4.136 c 0,-6.063 -3.56904,-10.622 -10.70713,-10.622 h -11.49564 v 32.994 h 7.09659 v -11.844 h 4.39905 c 7.42859,0 10.70713,-5.076 10.70713,-10.528 z m 52.62264,22.372 h 7.51159 l -10.54113,-32.994 h -8.2171 l -10.54112,32.994 h 7.42859 l 1.74302,-5.828 h 10.87313 z m -3.56904,-12.032 h -7.17959 l 3.56904,-12.079 z m 41.75392,-14.523 h 7.71909 v 26.555 h 7.09659 v -26.555 h 7.71909 v -6.439 h -22.53477 z m 72.99939,-6.439 h -17.84522 v 32.994 h 17.84522 v -6.439 h -10.74863 v -7.238 h 9.50361 v -6.2 h -9.50361 v -6.674 h 10.74863 z m 52.62617,0 v 20.445 l -11.87709,-20.445 h -7.09659 v 32.994 h 7.09659 v -20.351 l 11.86914,20.351 h 7.09571 v -32.994 z m 39.71598,6.439 h 7.7191 v 26.555 h 7.09658 v -26.555 h 7.7191 v -6.439 h -22.54272 z m 76.31148,16.732 c 0,-11.045 -14.40067,-8.46 -14.40067,-14.194 0,-2.068 1.28651,-3.055 2.98804,-3.008 a 3.1531554,3.571 0 0 1 3.36154,3.431 h 7.682 c -0.2905,-6.3 -4.56505,-9.87 -10.91463,-9.87 -6.10057,0 -10.62413,3.478 -10.62413,9.729 -0.083,11.7 14.48103,8.413 14.48103,14.523 0,1.927 -1.32448,3.1 -3.40304,3.1 a 3.3403491,3.783 0 0 1 -3.61055,-3.76 h -7.55309 c 0.20486,6.672 5.1028,10.201 11.36938,10.201 6.80608,0 10.62412,-4.606 10.62412,-10.152 z"
     fill="url(#linear-gradient)"
     style="fill:url(#linear-gradient-3);stroke-width:0.939675" />
</svg>
