<svg xmlns="http://www.w3.org/2000/svg" xmlns:xlink="http://www.w3.org/1999/xlink" width="137.903" height="109.182" viewBox="0 0 137.903 109.182">
  <defs>
    <linearGradient id="linear-gradient" x1="-0.069" y1="-0.03" x2="0.5" y2="1" gradientUnits="objectBoundingBox">
      <stop offset="0" stop-color="#0d161e"/>
      <stop offset="1" stop-color="#5d6368"/>
    </linearGradient>
  </defs>
  <g id="Group_961" data-name="Group 961" transform="translate(-929.409 -5974.479)">
    <circle id="Ellipse_59" data-name="Ellipse 59" cx="54.591" cy="54.591" r="54.591" transform="translate(929.409 5974.479)" opacity="0.12" fill="url(#linear-gradient)"/>
    <g id="text-quotes-svgrepo-com" transform="translate(984 5984.441)">
      <path id="Path_2970" data-name="Path 2970" d="M44.391,8.264A19.071,19.071,0,0,0,25.355,27.525,19.358,19.358,0,0,0,44.728,46.787c.106,0,.267-.014.373-.016a24.4,24.4,0,0,1-15.27,5.367,4.8,4.8,0,0,0-4.8,4.815c0,2.658,1.712,4.815,4.372,4.815A33.908,33.908,0,0,0,63.2,27.525v-.013C63.2,16.881,55.024,8.264,44.391,8.264Z" transform="translate(20.112)" fill="#0d161e"/>
      <path id="Path_2971" data-name="Path 2971" d="M19.388,8.264A19.083,19.083,0,0,0,.337,27.525,19.352,19.352,0,0,0,19.705,46.787c.106,0,.263-.014.37-.016A24.4,24.4,0,0,1,4.8,52.138,4.8,4.8,0,0,0,0,56.953c0,2.658,1.739,4.815,4.4,4.815A33.93,33.93,0,0,0,38.225,27.525v-.013A18.9,18.9,0,0,0,19.388,8.264Z" transform="translate(0)" fill="#0d161e"/>
    </g>
  </g>
</svg>
