<?xml version="1.0" encoding="UTF-8" standalone="no"?>
<svg
   xmlns:dc="http://purl.org/dc/elements/1.1/"
   xmlns:cc="http://creativecommons.org/ns#"
   xmlns:rdf="http://www.w3.org/1999/02/22-rdf-syntax-ns#"
   xmlns:svg="http://www.w3.org/2000/svg"
   xmlns="http://www.w3.org/2000/svg"
   xmlns:xlink="http://www.w3.org/1999/xlink"
   xmlns:sodipodi="http://sodipodi.sourceforge.net/DTD/sodipodi-0.dtd"
   xmlns:inkscape="http://www.inkscape.org/namespaces/inkscape"
   width="517"
   height="643"
   viewBox="0 0 517 643"
   fill="none"
   version="1.1"
   id="svg34"
   sodipodi:docname="servicePage_BusinessNameLogo.svg"
   inkscape:version="1.0.2 (e86c870879, 2021-01-15)">
  <metadata
     id="metadata40">
    <rdf:RDF>
      <cc:Work
         rdf:about="">
        <dc:format>image/svg+xml</dc:format>
        <dc:type
           rdf:resource="http://purl.org/dc/dcmitype/StillImage" />
      </cc:Work>
    </rdf:RDF>
  </metadata>
  <defs
     id="defs38">
    <linearGradient
       inkscape:collect="always"
       id="linearGradient887">
      <stop
         style="stop-color:#e5e7eb;stop-opacity:1"
         offset="0"
         id="stop883" />
      <stop
         style="stop-color:#d1d5db;stop-opacity:1"
         offset="1"
         id="stop885" />
    </linearGradient>
    <linearGradient
       inkscape:collect="always"
       id="linearGradient881">
      <stop
         style="stop-color:#e5e7eb;stop-opacity:1"
         offset="0"
         id="stop877" />
      <stop
         style="stop-color:#d1d5db;stop-opacity:1"
         offset="1"
         id="stop879" />
    </linearGradient>
    <linearGradient
       inkscape:collect="always"
       id="linearGradient869">
      <stop
         style="stop-color:#e5e7eb;stop-opacity:1"
         offset="0"
         id="stop865" />
      <stop
         style="stop-color:#d1d5db;stop-opacity:1"
         offset="1"
         id="stop867" />
    </linearGradient>
    <linearGradient
       inkscape:collect="always"
       xlink:href="#linearGradient869"
       id="linearGradient871"
       x1="258"
       y1="426"
       x2="258.9006"
       y2="278.67462"
       gradientUnits="userSpaceOnUse" />
    <linearGradient
       inkscape:collect="always"
       xlink:href="#linearGradient887"
       id="linearGradient873"
       x1="258"
       y1="426"
       x2="258.9006"
       y2="278.67462"
       gradientUnits="userSpaceOnUse" />
    <linearGradient
       inkscape:collect="always"
       xlink:href="#linearGradient881"
       id="linearGradient875"
       x1="258"
       y1="426"
       x2="258.9006"
       y2="278.67462"
       gradientUnits="userSpaceOnUse" />
  </defs>
  <sodipodi:namedview
     pagecolor="#ffffff"
     bordercolor="#666666"
     borderopacity="1"
     objecttolerance="10"
     gridtolerance="10"
     guidetolerance="10"
     inkscape:pageopacity="0"
     inkscape:pageshadow="2"
     inkscape:window-width="2560"
     inkscape:window-height="1015"
     id="namedview36"
     showgrid="false"
     inkscape:zoom="1.3172628"
     inkscape:cx="258.5"
     inkscape:cy="291.134"
     inkscape:window-x="0"
     inkscape:window-y="0"
     inkscape:window-maximized="1"
     inkscape:current-layer="svg34">
    <inkscape:grid
       type="xygrid"
       id="grid889" />
  </sodipodi:namedview>
  <path
     d="M283.902 130.793C283.235 130.043 282.443 129.448 281.572 129.041C280.7 128.635 279.766 128.426 278.823 128.426C277.88 128.426 276.946 128.635 276.074 129.041C275.203 129.448 274.411 130.043 273.744 130.793L265.184 140.412V91.0803C265.184 88.9373 264.427 86.882 263.081 85.3667C261.734 83.8513 259.907 83 258.003 83C256.098 83 254.271 83.8513 252.925 85.3667C251.578 86.882 250.821 88.9373 250.821 91.0803V140.412L242.261 130.781C240.914 129.265 239.087 128.414 237.182 128.414C235.277 128.414 233.451 129.265 232.104 130.781C230.757 132.296 230 134.352 230 136.495C230 138.638 230.757 140.694 232.104 142.209L252.924 165.633C253.591 166.383 254.383 166.979 255.254 167.385C256.125 167.791 257.059 168 258.003 168C258.946 168 259.88 167.791 260.751 167.385C261.623 166.979 262.414 166.383 263.081 165.633L283.902 142.209C285.245 140.694 286 138.642 286 136.501C286 134.361 285.245 132.308 283.902 130.793V130.793Z"
     fill="#FCC24C"
     id="path2" />
  <path
     d="M283.897 500.483L263.078 477.339C262.411 476.598 261.62 476.009 260.748 475.608C259.877 475.207 258.943 475 258 475C257.057 475 256.123 475.207 255.252 475.608C254.38 476.009 253.589 476.598 252.922 477.339L232.103 500.483C230.757 501.981 230 504.012 230 506.13C230 508.247 230.757 510.278 232.103 511.776C233.45 513.273 235.277 514.115 237.182 514.115C239.086 514.115 240.913 513.273 242.26 511.776L250.819 502.259V551.016C250.819 553.133 251.576 555.164 252.922 556.662C254.269 558.159 256.096 559 258 559C259.904 559 261.731 558.159 263.078 556.662C264.424 555.164 265.181 553.133 265.181 551.016V502.272L273.74 511.789C274.407 512.53 275.199 513.118 276.07 513.52C276.941 513.921 277.875 514.128 278.818 514.128C279.761 514.128 280.695 513.921 281.567 513.52C282.438 513.118 283.23 512.53 283.897 511.789C284.563 511.047 285.092 510.167 285.453 509.198C285.814 508.229 286 507.191 286 506.142C286 505.094 285.814 504.055 285.453 503.087C285.092 502.118 284.563 501.238 283.897 500.496V500.483Z"
     fill="#FCC24C"
     id="path4" />
  <path
     d="m 158.47432,394.77404 c -0.964,-1.835 -2.554,-3.175 -4.418,-3.725 l -28.836,-8.481 c -1.866,-0.548 -3.8534,-0.261 -5.526,0.799 -1.6726,1.06 -2.893,2.806 -3.3928,4.853 -0.4998,2.048 -0.2381,4.229 0.7277,6.065 0.9657,1.836 2.5564,3.175 4.422,3.724 l 11.8581,3.488 -58.173302,36.859 c -0.8348,0.521 -1.5675,1.218 -2.1559,2.051 -0.5884,0.833 -1.0208,1.786 -1.2724,2.803 -0.2516,1.017 -0.3174,2.079 -0.1937,3.124 0.1238,1.045 0.4348,2.053 0.9149,2.966 0.4802,0.913 1.1201,1.712 1.883,2.353 0.7628,0.64 1.6335,1.108 2.562,1.378 0.9284,0.269 1.8962,0.334 2.8477,0.191 0.9514,-0.142 1.8678,-0.49 2.6962,-1.023 l 58.169502,-36.857 -3.177,13.011 c -0.5,2.048 -0.238,4.23 0.727,6.065 0.966,1.836 2.557,3.175 4.422,3.724 1.866,0.549 3.854,0.261 5.526,-0.799 1.673,-1.06 2.893,-2.805 3.393,-4.853 l 7.728,-31.649 c 0.247,-1.014 0.31,-2.072 0.184,-3.113 -0.125,-1.041 -0.436,-2.045 -0.916,-2.954 z"
     fill="#fcc24c"
     id="path6" />
  <path
     d="m 436.83175,215.36893 c -0.48,-0.916 -1.118,-1.719 -1.879,-2.363 -0.761,-0.644 -1.63,-1.117 -2.557,-1.391 -0.926,-0.274 -1.893,-0.344 -2.844,-0.206 -0.951,0.137 -1.869,0.481 -2.7,1.009 l -48.116,30.627 3.188,-13.115 c 0.249,-1.021 0.312,-2.087 0.187,-3.135 -0.126,-1.049 -0.437,-2.06 -0.917,-2.976 -0.479,-0.916 -1.118,-1.719 -1.879,-2.363 -0.761,-0.644 -1.63,-1.116 -2.557,-1.39 -0.927,-0.274 -1.893,-0.343 -2.844,-0.205 -0.952,0.138 -1.869,0.481 -2.7,1.01 -0.831,0.529 -1.559,1.233 -2.143,2.072 -0.584,0.839 -1.012,1.797 -1.261,2.819 l -7.752,31.893 c -0.248,1.022 -0.312,2.087 -0.186,3.136 0.125,1.049 0.436,2.06 0.916,2.976 0.48,0.916 1.118,1.719 1.88,2.363 0.761,0.644 1.63,1.116 2.556,1.389 l 28.93,8.547 c 0.619,0.181 1.258,0.273 1.899,0.274 1.772,-10e-4 3.484,-0.712 4.815,-2.001 1.332,-1.289 2.194,-3.068 2.424,-5.005 0.231,-1.937 -0.185,-3.901 -1.17,-5.525 -0.985,-1.624 -2.472,-2.798 -4.184,-3.303 l -11.896,-3.515 48.116,-30.624 c 1.677,-1.068 2.901,-2.826 3.402,-4.888 0.501,-2.063 0.239,-4.26 -0.728,-6.11 z"
     fill="#fcc24c"
     id="path8" />
  <path
     d="m 415.222,413.28005 -38.325,-24.767 11.846,-3.444 c 0.923,-0.269 1.789,-0.736 2.549,-1.375 0.76,-0.638 1.399,-1.437 1.88,-2.349 0.481,-0.912 0.795,-1.919 0.924,-2.966 0.129,-1.046 0.071,-2.11 -0.172,-3.132 -0.242,-1.021 -0.664,-1.979 -1.242,-2.82 -0.577,-0.841 -1.298,-1.548 -2.123,-2.08 -0.824,-0.533 -1.735,-0.88 -2.68,-1.023 -0.946,-0.143 -1.908,-0.078 -2.831,0.19 l -28.816,8.363 c -1.864,0.542 -3.457,1.881 -4.428,3.723 -0.971,1.841 -1.242,4.034 -0.752,6.097 l 7.558,31.884 c 0.24,1.024 0.66,1.985 1.237,2.829 0.576,0.844 1.298,1.554 2.123,2.088 0.825,0.535 1.737,0.885 2.684,1.029 0.947,0.144 1.911,0.08 2.836,-0.189 0.924,-0.269 1.792,-0.737 2.553,-1.377 0.761,-0.641 1.401,-1.441 1.882,-2.355 0.481,-0.914 0.794,-1.925 0.921,-2.973 0.128,-1.049 0.067,-2.115 -0.179,-3.137 l -3.113,-13.11 38.325,24.766 c 1.665,1.076 3.647,1.376 5.512,0.834 0.923,-0.268 1.789,-0.735 2.549,-1.373 0.761,-0.639 1.4,-1.437 1.881,-2.349 0.481,-0.912 0.796,-1.92 0.925,-2.966 0.129,-1.047 0.071,-2.111 -0.171,-3.132 -0.243,-1.022 -0.665,-1.98 -1.242,-2.821 -0.577,-0.842 -1.298,-1.549 -2.123,-2.081 z"
     fill="#fcc24c"
     id="path10" />
  <path
     d="m 148.762,241.23 -7.571,-32.418 c -0.243,-1.039 -0.665,-2.013 -1.242,-2.868 -0.577,-0.855 -1.298,-1.573 -2.122,-2.115 -0.824,-0.541 -1.735,-0.894 -2.68,-1.039 -0.946,-0.146 -1.907,-0.08 -2.83,0.193 -0.923,0.273 -1.789,0.748 -2.549,1.397 -0.76,0.65 -1.398,1.461 -1.879,2.388 -0.481,0.927 -0.795,1.952 -0.924,3.016 -0.129,1.064 -0.071,2.145 0.172,3.184 l 3.112,13.325 -38.3152,-25.179 c -0.8247,-0.541 -1.7361,-0.894 -2.6822,-1.039 -0.946,-0.145 -1.9082,-0.079 -2.8315,0.194 -0.9234,0.274 -1.7898,0.749 -2.5499,1.399 -0.76,0.651 -1.3988,1.463 -1.8799,2.391 -0.4811,0.928 -0.795,1.953 -0.9238,3.018 -0.1288,1.064 -0.0701,2.147 0.1729,3.186 0.2431,1.039 0.6656,2.014 1.2434,2.869 0.5779,0.855 1.2998,1.574 2.1245,2.115 l 38.3157,25.179 -11.846,3.492 c -1.864,0.551 -3.4566,1.913 -4.4281,3.785 -0.9715,1.873 -1.2421,4.103 -0.7523,6.2 0.4899,2.097 1.7,3.889 3.3644,4.982 1.664,1.093 3.646,1.398 5.51,0.846 l 28.812,-8.518 c 1.863,-0.551 3.455,-1.913 4.426,-3.785 0.971,-1.872 1.242,-4.101 0.753,-6.198 z"
     fill="#fcc24c"
     id="path12" />
  <path
     d="M258 426C256.143 426 254.363 425.152 253.05 423.643C251.737 422.133 251 420.086 251 417.951V284.049C251 281.914 251.737 279.867 253.05 278.357C254.363 276.848 256.143 276 258 276C259.857 276 261.637 276.848 262.95 278.357C264.262 279.867 265 281.914 265 284.049V417.951C265 420.086 264.262 422.133 262.95 423.643C261.637 425.152 259.857 426 258 426V426Z"
     fill="#EBE7F2"
     id="path14"
     style="fill-opacity:1;fill:url(#linearGradient873)" />
  <path
     d="M234.687 426C232.892 425.998 231.16 425.265 229.824 423.943C228.487 422.621 227.639 420.802 227.442 418.834L214.044 284.934C213.939 283.883 214.022 282.82 214.29 281.805C214.557 280.789 215.003 279.842 215.603 279.017C216.202 278.192 216.943 277.505 217.783 276.996C218.623 276.487 219.545 276.165 220.498 276.049C221.451 275.933 222.415 276.025 223.335 276.32C224.256 276.614 225.115 277.106 225.863 277.767C226.611 278.428 227.234 279.245 227.696 280.172C228.157 281.098 228.449 282.116 228.555 283.166L241.956 417.066C242.061 418.117 241.978 419.181 241.711 420.196C241.443 421.211 240.997 422.159 240.398 422.984C239.799 423.809 239.058 424.496 238.218 425.005C237.377 425.514 236.455 425.836 235.502 425.952C235.231 425.984 234.959 426 234.687 426V426Z"
     fill="#EBE7F2"
     id="path16"
     style="fill-opacity:1;fill:url(#linearGradient871)" />
  <path
     d="M281.307 426C281.037 426 280.767 425.984 280.498 425.952C279.545 425.836 278.623 425.514 277.782 425.005C276.942 424.496 276.201 423.809 275.602 422.984C275.003 422.159 274.557 421.211 274.289 420.196C274.022 419.181 273.939 418.117 274.044 417.066L287.445 283.166C287.551 282.116 287.843 281.098 288.304 280.172C288.766 279.245 289.389 278.428 290.137 277.767C290.885 277.106 291.744 276.614 292.665 276.32C293.585 276.025 294.549 275.933 295.502 276.049C296.455 276.165 297.377 276.487 298.217 276.996C299.057 277.505 299.798 278.192 300.398 279.017C300.997 279.842 301.443 280.789 301.71 281.805C301.978 282.82 302.061 283.883 301.956 284.934L288.552 418.834C288.355 420.802 287.507 422.621 286.171 423.943C284.834 425.265 283.102 425.998 281.307 426Z"
     fill="#EBE7F2"
     id="path18"
     style="fill-opacity:1;fill:url(#linearGradient875)" />
  <path
     d="M345.698 216.436H289.034V205.57C289.03 201.178 287.444 196.966 284.625 193.859C281.805 190.753 277.982 189.005 273.994 189H242.006C238.018 189.005 234.195 190.753 231.375 193.859C228.556 196.966 226.97 201.178 226.966 205.57V216.436H170.302C168.365 216.436 166.508 217.284 165.139 218.792C163.769 220.301 163 222.347 163 224.48V258.731C163 260.864 163.769 262.91 165.139 264.419C166.508 265.927 168.365 266.775 170.302 266.775H179.906L200.489 445.966C200.712 447.909 201.571 449.696 202.905 450.99C204.238 452.285 205.955 453 207.733 453H308.268C310.045 453 311.762 452.285 313.095 450.99C314.429 449.696 315.288 447.909 315.511 445.966L336.094 266.775H345.698C347.635 266.775 349.492 265.927 350.861 264.419C352.231 262.91 353 260.864 353 258.731V224.48C353 222.347 352.231 220.301 350.861 218.792C349.492 217.284 347.635 216.436 345.698 216.436V216.436ZM241.57 205.558C241.57 205.43 241.616 205.308 241.698 205.217C241.779 205.127 241.89 205.076 242.006 205.075H273.994C274.11 205.076 274.221 205.127 274.302 205.217C274.384 205.308 274.43 205.43 274.43 205.558V216.436H241.57V205.558ZM301.833 436.899H214.167L194.627 266.762H321.382L301.833 436.899ZM338.396 250.674H177.604V232.524H338.396V250.674Z"
     fill="#0C1821"
     id="path20"
     style="fill:#0d161e;fill-opacity:1" />
  <path
     d="m 231.17367,87.8739 c 0.62951,1.101003 1.5332,2.015047 2.62197,2.650328 1.08778,0.635282 2.32206,0.969416 3.57811,0.968872 h 41.34378 c 1.25605,0 2.49131,-0.33504 3.5791,-0.971318 1.08878,-0.636369 1.99246,-1.551591 2.62098,-2.653682 l 20.66892,-36.249999 c 0.62852,-1.102182 0.95911,-2.352353 0.95911,-3.625 0,-1.272647 -0.33059,-2.522819 -0.95911,-3.625 L 284.91761,8.1181006 c -0.62852,-1.1021088 -1.5322,-2.0173125 -2.62098,-2.653636 -1.08779,-0.636318 -2.32305,-0.9713317 -3.5791,-0.971364 h -41.34378 c -1.25605,3.23e-5 -2.49131,0.335046 -3.5791,0.971364 -1.08878,0.6363235 -1.99246,1.5515272 -2.62098,2.653636 L 210.50475,44.368101 c -0.62852,1.102181 -0.95911,2.352353 -0.95911,3.625 0,1.272647 0.33059,2.522818 0.95911,3.625 z m 10.33545,-68.880799 h 33.07304 l 16.53553,29 L 274.58216,76.9931 H 241.50912 L 224.97359,47.993101 Z"
     fill="#0C1821"
     id="path22"
     style="fill:#0d161e;fill-opacity:1;stroke-width:0.947102" />
  <path
     d="m 284.37197,551.69776 c -0.62852,-1.1023 -1.5322,-2.01804 -2.62098,-2.65395 -1.08779,-0.63591 -2.32305,-0.97135 -3.5791,-0.97135 h -41.34378 c -1.25605,0 -2.49131,0.33544 -3.5791,0.97135 -1.08878,0.63591 -1.99246,1.55165 -2.62098,2.65395 l -20.66892,36.2494 c -0.62852,1.1023 -0.95911,2.35259 -0.95911,3.6253 0,1.27271 0.33059,2.523 0.95911,3.6253 l 20.66892,36.2494 c 0.62852,1.1023 1.5322,2.01804 2.62098,2.65395 1.08779,0.63591 2.32305,0.97135 3.5791,0.97135 h 41.34378 c 1.25605,0 2.49131,-0.33544 3.5791,-0.97135 1.08878,-0.63591 1.99246,-1.55165 2.62098,-2.65395 l 20.66892,-36.2494 c 0.62852,-1.1023 0.95911,-2.35259 0.95911,-3.6253 0,-1.27271 -0.33059,-2.523 -0.95911,-3.6253 z m -10.33545,68.88068 h -33.07304 l -16.53553,-29.0006 16.53553,-28.9997 h 33.07304 l 16.53553,28.9997 z"
     fill="#0C1821"
     id="path24"
     style="fill:#0d161e;fill-opacity:1;stroke-width:0.942208" />
  <path
     d="m 58.136041,412.06568 c -0.607567,-1.21979 -1.551772,-2.24675 -2.725249,-2.96607 C 54.237316,408.38119 52.881857,408 51.498455,408 c -1.3833,0 -2.73876,0.38119 -3.912236,1.09961 -1.173476,0.71932 -2.117682,1.74628 -2.725249,2.96607 L 8.7536123,484.5609 c -0.5520129,1.10498 -0.8080486,2.33016 -0.743967,3.55982 0.064082,1.22966 0.4461681,2.42255 1.1102389,3.46744 0.664076,1.044 1.5882618,1.90503 2.6854438,2.50237 1.097182,0.59734 2.331221,0.91036 3.585791,0.90947 h 72.217752 c 1.254539,8.9e-4 2.488609,-0.31213 3.58573,-0.90947 1.097223,-0.59734 2.021367,-1.45837 2.685433,-2.50237 0.664168,-1.04489 1.046252,-2.23778 1.110324,-3.46744 0.06407,-1.22966 -0.192014,-2.45484 -0.744003,-3.55982 z M 27.224027,480.5006 51.498455,431.76445 75.770016,480.5006 Z"
     fill="#0C1821"
     id="path26"
     style="fill:#0d161e;fill-opacity:1;stroke-width:0.958132" />
  <path
     d="m 435.37987,226 h 72.22869 c 1.25544,9e-4 2.48963,-0.31266 3.58624,-0.90988 1.09763,-0.59631 2.02125,-1.45815 2.68589,-2.50215 0.66363,-1.04491 1.04603,-2.23753 1.10977,-3.46732 0.0647,-1.22887 -0.1912,-2.45412 -0.74356,-3.55975 l -36.11029,-72.49546 c -0.60698,-1.21891 -1.55185,-2.2466 -2.72535,-2.96525 C 474.23777,139.38062 472.88218,139 471.49927,139 c -1.38391,0 -2.7395,0.38062 -3.913,1.10019 -1.1735,0.71865 -2.11836,1.74634 -2.72534,2.96525 l -36.10727,72.49546 c -0.55235,1.10563 -0.80829,2.33088 -0.74355,3.55975 0.0637,1.22979 0.44613,2.42241 1.10977,3.46732 0.66464,1.044 1.58826,1.90584 2.68589,2.50215 1.09661,0.59722 2.3308,0.91078 3.58624,0.90988 z m 36.10726,-63.23631 24.2762,48.73721 h -48.54936 z"
     fill="#0C1821"
     id="path28"
     style="fill:#0d161e;fill-opacity:1;stroke-width:0.957493" />
  <path
     d="m 484,414 c -4.789,-8.29279 -12.181,-14.77383 -21.029,-18.43858 -8.849,-3.66476 -18.659,-4.30784 -27.911,-1.82879 -9.251,2.47815 -17.426,7.9394 -23.256,15.53619 -5.831,7.59679 -8.991,16.90488 -8.991,26.48114 0,9.57626 3.16,18.88435 8.991,26.48114 5.83,7.59679 14.005,13.05804 23.256,15.53619 9.252,2.47905 19.062,1.83597 27.911,-1.82879 8.848,-3.66475 16.24,-10.14579 21.029,-18.43858 3.809,-6.61647 5.813,-14.1164 5.813,-21.74996 0,-7.63356 -2.004,-15.13349 -5.813,-21.74996 z m -12.559,36.25023 c -3.193,5.52853 -8.121,9.84892 -14.02,12.29209 -5.899,2.44317 -12.439,2.87189 -18.607,1.21979 -6.167,-1.65299 -11.617,-5.29353 -15.504,-10.35836 -3.887,-5.06482 -5.994,-11.26962 -5.994,-17.65379 0,-6.38417 2.107,-12.58897 5.994,-17.65379 3.887,-5.06483 9.337,-8.70537 15.504,-10.35836 6.168,-1.6521 12.708,-1.22338 18.607,1.21979 5.899,2.44317 10.827,6.76356 14.02,12.29209 2.538,4.41188 3.873,9.41123 3.873,14.50027 0,5.08904 -1.335,10.08839 -3.873,14.50027 z"
     fill="#0C1821"
     id="path30"
     style="fill:#0d161e;fill-opacity:1;stroke-width:0.947051" />
  <path
     d="m 53.4982,139 c -7.6358,0 -15.1369,2.01097 -21.7496,5.829 -6.6126,3.81803 -12.1037,9.309 -15.92139,15.92191 -3.81768,6.6129 -5.82741,14.11484 -5.82721,21.75 2e-4,7.63606 2.01032,15.13709 5.82834,21.75 3.81806,6.6129 9.30936,12.10387 15.92226,15.9219 C 38.3634,223.98994 45.8647,226 53.5004,226 c 7.6358,0 15.137,-2.01006 21.7498,-5.82809 6.6127,-3.81804 12.104,-9.309 15.9219,-15.92191 v 0 c 3.818,-6.61291 5.828,-14.11484 5.8279,-21.75 -1e-4,-7.63606 -2.0102,-15.138 -5.8283,-21.75091 -3.8182,-6.6129 -9.3098,-12.10387 -15.9229,-15.9219 C 68.6357,141.00916 61.1342,139 53.4982,139 Z m 25.1169,58 c -3.1919,5.52903 -8.119,9.84912 -14.0169,12.29237 -5.898,2.44325 -12.4372,2.87191 -18.6036,1.21982 -6.1664,-1.653 -11.6152,-5.29341 -15.5015,-10.35844 -3.8862,-5.06413 -5.9927,-11.27012 -5.9927,-17.65375 0,-6.38363 2.1065,-12.58962 5.9927,-17.65375 3.8863,-5.06503 9.3351,-8.70544 15.5015,-10.35844 6.1664,-1.65209 12.7056,-1.22344 18.6036,1.21981 5.8979,2.44326 10.825,6.76335 14.0169,12.29238 2.5376,4.41162 3.8731,9.41231 3.8731,14.50181 0,5.0895 -1.3355,10.08928 -3.8731,14.50091 z"
     fill="#0C1821"
     id="path32"
     style="fill:#0d161e;fill-opacity:1;stroke-width:0.951972" />
</svg>
