<?xml version="1.0" encoding="UTF-8" standalone="no"?>
<svg
   xmlns:dc="http://purl.org/dc/elements/1.1/"
   xmlns:cc="http://creativecommons.org/ns#"
   xmlns:rdf="http://www.w3.org/1999/02/22-rdf-syntax-ns#"
   xmlns:svg="http://www.w3.org/2000/svg"
   xmlns="http://www.w3.org/2000/svg"
   xmlns:xlink="http://www.w3.org/1999/xlink"
   xmlns:sodipodi="http://sodipodi.sourceforge.net/DTD/sodipodi-0.dtd"
   xmlns:inkscape="http://www.inkscape.org/namespaces/inkscape"
   width="493"
   height="492"
   viewBox="0 0 493 492"
   fill="none"
   version="1.1"
   id="svg84"
   sodipodi:docname="servicePage_DuringLitigation.svg"
   inkscape:version="1.0.2 (e86c870879, 2021-01-15)">
  <metadata
     id="metadata90">
    <rdf:RDF>
      <cc:Work
         rdf:about="">
        <dc:format>image/svg+xml</dc:format>
        <dc:type
           rdf:resource="http://purl.org/dc/dcmitype/StillImage" />
      </cc:Work>
    </rdf:RDF>
  </metadata>
  <defs
     id="defs88">
    <linearGradient
       inkscape:collect="always"
       id="linearGradient1007">
      <stop
         style="stop-color:#e5e7eb;stop-opacity:1"
         offset="0"
         id="stop1003" />
      <stop
         style="stop-color:#d1d5db;stop-opacity:0"
         offset="1"
         id="stop1005" />
    </linearGradient>
    <linearGradient
       inkscape:collect="always"
       id="linearGradient993">
      <stop
         style="stop-color:#e5e7eb;stop-opacity:1"
         offset="0"
         id="stop989" />
      <stop
         style="stop-color:#d1d5db;stop-opacity:1"
         offset="1"
         id="stop991" />
    </linearGradient>
    <linearGradient
       inkscape:collect="always"
       id="linearGradient987">
      <stop
         style="stop-color:#e5e7eb;stop-opacity:1"
         offset="0"
         id="stop983" />
      <stop
         style="stop-color:#d1d5db;stop-opacity:1"
         offset="1"
         id="stop985" />
    </linearGradient>
    <linearGradient
       inkscape:collect="always"
       id="linearGradient981">
      <stop
         style="stop-color:#e5e7eb;stop-opacity:1"
         offset="0"
         id="stop977" />
      <stop
         style="stop-color:#d1d5db;stop-opacity:1"
         offset="1"
         id="stop979" />
    </linearGradient>
    <linearGradient
       inkscape:collect="always"
       id="linearGradient967">
      <stop
         style="stop-color:#e5e7eb;stop-opacity:1"
         offset="0"
         id="stop963" />
      <stop
         style="stop-color:#d1d5db;stop-opacity:1"
         offset="1"
         id="stop965" />
    </linearGradient>
    <linearGradient
       inkscape:collect="always"
       id="linearGradient919">
      <stop
         style="stop-color:#fcc24c;stop-opacity:1"
         offset="0"
         id="stop915" />
      <stop
         style="stop-color:#d5b87d;stop-opacity:1"
         offset="1"
         id="stop917" />
    </linearGradient>
    <linearGradient
       inkscape:collect="always"
       xlink:href="#linearGradient919"
       id="linearGradient921"
       x1="35.471699"
       y1="488.09601"
       x2="75.010696"
       y2="442.215"
       gradientUnits="userSpaceOnUse" />
    <linearGradient
       inkscape:collect="always"
       xlink:href="#linearGradient919"
       id="linearGradient929"
       x1="136.616"
       y1="465.15549"
       x2="176.155"
       y2="465.15549"
       gradientUnits="userSpaceOnUse" />
    <linearGradient
       inkscape:collect="always"
       xlink:href="#linearGradient919"
       id="linearGradient937"
       x1="176.157"
       y1="465.15549"
       x2="215.696"
       y2="465.15549"
       gradientUnits="userSpaceOnUse" />
    <linearGradient
       inkscape:collect="always"
       xlink:href="#linearGradient919"
       id="linearGradient945"
       x1="277.302"
       y1="465.15549"
       x2="316.841"
       y2="465.15549"
       gradientUnits="userSpaceOnUse" />
    <linearGradient
       inkscape:collect="always"
       xlink:href="#linearGradient919"
       id="linearGradient953"
       x1="316.84299"
       y1="465.15549"
       x2="356.38199"
       y2="465.15549"
       gradientUnits="userSpaceOnUse" />
    <linearGradient
       inkscape:collect="always"
       xlink:href="#linearGradient919"
       id="linearGradient961"
       x1="417.987"
       y1="465.15549"
       x2="457.526"
       y2="465.15549"
       gradientUnits="userSpaceOnUse" />
    <linearGradient
       inkscape:collect="always"
       xlink:href="#linearGradient967"
       id="linearGradient969"
       x1="229.18886"
       y1="428.00607"
       x2="263.23276"
       y2="427.78342"
       gradientUnits="userSpaceOnUse" />
    <linearGradient
       inkscape:collect="always"
       xlink:href="#linearGradient993"
       id="linearGradient971"
       x1="229.18886"
       y1="428.00607"
       x2="263.23276"
       y2="427.78342"
       gradientUnits="userSpaceOnUse" />
    <linearGradient
       inkscape:collect="always"
       xlink:href="#linearGradient987"
       id="linearGradient973"
       x1="229.18886"
       y1="428.00607"
       x2="263.23276"
       y2="427.78342"
       gradientUnits="userSpaceOnUse" />
    <linearGradient
       inkscape:collect="always"
       xlink:href="#linearGradient981"
       id="linearGradient975"
       x1="229.18886"
       y1="428.00607"
       x2="263.23276"
       y2="427.78342"
       gradientUnits="userSpaceOnUse" />
    <linearGradient
       inkscape:collect="always"
       xlink:href="#linearGradient1007"
       id="linearGradient1001"
       x1="29.534361"
       y1="288.86578"
       x2="485.03244"
       y2="6.9646926"
       gradientUnits="userSpaceOnUse" />
  </defs>
  <sodipodi:namedview
     pagecolor="#ffffff"
     bordercolor="#666666"
     borderopacity="1"
     objecttolerance="10"
     gridtolerance="10"
     guidetolerance="10"
     inkscape:pageopacity="0"
     inkscape:pageshadow="2"
     inkscape:window-width="2560"
     inkscape:window-height="1015"
     id="namedview86"
     showgrid="false"
     inkscape:zoom="1.2173159"
     inkscape:cx="171.16121"
     inkscape:cy="232.53773"
     inkscape:window-x="0"
     inkscape:window-y="0"
     inkscape:window-maximized="1"
     inkscape:current-layer="svg84" />
  <path
     d="M476.864 296.806H16.1338C9.58864 296.806 4.28137 291.97 4.28137 286.003V14.7775C4.28137 8.81192 9.58864 3.97461 16.1338 3.97461H476.864C483.409 3.97461 488.716 8.81192 488.716 14.7775V286.005C488.714 291.97 483.409 296.806 476.864 296.806Z"
     fill="#F4EFED"
     id="path2"
     style="fill-opacity:1;fill:url(#linearGradient1001)" />
  <path
     d="m 166.78095,239.1362 c 52.46654,0 94.99995,-42.53342 94.99995,-95.0006 0,-52.466475 -42.53341,-94.9994 -94.99995,-94.9994 -52.46746,0 -95.00005,42.532925 -95.00005,94.9994 0,52.46718 42.53259,95.0006 95.00005,95.0006 z"
     fill="#263238"
     id="path4"
     style="stroke-width:9;stroke:#0d161e;stroke-opacity:1;stroke-miterlimit:4;stroke-dasharray:none;fill:#0d161e;fill-opacity:1" />
  <path
     d="m 238.09884,212.8107 c 40.77,-37.16 37.6019,-96.47112 1.58862,-136.174085 L 162.181,144.291 Z"
     fill="#fcc24c"
     id="path6"
     sodipodi:nodetypes="cccc" />
  <path
     d="M387.184 432.941C366.589 432.941 349.894 417.527 349.894 398.512V374.677C349.894 355.661 366.589 340.248 387.184 340.248C407.779 340.248 424.474 355.661 424.474 374.677V398.512C424.474 417.525 407.779 432.941 387.184 432.941Z"
     fill="white"
     id="path8" />
  <path
     d="M387.182 436.345C364.496 436.345 346.111 419.336 346.111 398.512V374.677C346.111 353.853 364.496 336.843 387.182 336.843C409.868 336.843 428.256 353.853 428.256 374.677V398.512C428.258 419.336 409.87 436.345 387.182 436.345ZM387.182 343.65C368.745 343.65 353.678 357.532 353.678 374.675V398.51C353.678 415.655 368.745 429.535 387.182 429.535C405.622 429.535 420.689 415.653 420.689 398.51V374.675C420.691 357.531 405.624 343.65 387.182 343.65Z"
     fill="#263238"
     stroke="black"
     id="path10"
     style="fill:#0d161e;fill-opacity:1" />
  <path
     d="M476.864 3.97461H453.161C459.706 3.97461 465.011 8.80997 465.011 14.7756V286.003C465.011 291.968 459.706 296.806 453.161 296.806H476.864C483.409 296.806 488.716 291.97 488.716 286.003V14.7775C488.714 8.81192 483.409 3.97461 476.864 3.97461Z"
     fill="#D6D1CF"
     id="path12"
     style="fill:#e5e7eb;fill-opacity:1" />
  <path
     d="M16.1338 296.806H39.8367C33.2914 296.806 27.9863 291.97 27.9863 286.003V14.7775C27.9863 8.81192 33.2914 3.97461 39.8367 3.97461H16.1338C9.58864 3.97461 4.28137 8.80997 4.28137 14.7756V286.003C4.28137 291.97 9.58864 296.806 16.1338 296.806Z"
     fill="white"
     id="path14" />
  <path
     d="M476.864 300.71H16.1338C7.23699 300.71 0 294.113 0 286.002V14.7774C0 6.66647 7.23699 0.0703125 16.1338 0.0703125H476.864C485.761 0.0703125 493 6.66647 493 14.7774V286.004C493 294.113 485.761 300.71 476.864 300.71ZM16.1338 7.87872C11.9617 7.87872 8.56702 10.9728 8.56702 14.7774V286.004C8.56702 289.809 11.9617 292.903 16.1338 292.903H476.864C481.038 292.903 484.433 289.809 484.433 286.004V14.7774C484.433 10.9748 481.038 7.87872 476.864 7.87872H16.1338V7.87872Z"
     fill="#263238"
     id="path16"
     style="fill:#0d161e;fill-opacity:1" />
  <path
     d="M21.7795 76.4817C19.415 76.4817 17.496 74.7326 17.496 72.5775V49.1523C17.496 46.9971 19.415 45.248 21.7795 45.248C24.144 45.248 26.0631 46.9971 26.0631 49.1523V72.5775C26.0631 74.7326 24.1462 76.4817 21.7795 76.4817Z"
     fill="#263238"
     id="path18"
     style="fill:#0d161e;fill-opacity:1" />
  <path
     d="M439.606 269.544H427.514H405.783C405.803 269.228 405.837 268.914 405.837 268.592V237.571H368.53V268.592C368.53 268.914 368.564 269.228 368.583 269.544H346.855H334.763C321.7 269.544 311.109 279.195 311.109 291.103V319.163H463.26V291.103C463.26 279.195 452.669 269.544 439.606 269.544Z"
     fill="#455A64"
     id="path20"
     style="fill:#0d161e;fill-opacity:1" />
  <path
     d="M439.606 269.544H427.513H420.499C433.562 269.544 444.153 279.195 444.153 291.103V319.162H463.261V291.103C463.259 279.195 452.668 269.544 439.606 269.544Z"
     fill="#FBFAFA"
     id="path22" />
  <path
     d="M334.763 269.544H346.855H353.869C340.807 269.544 330.216 279.195 330.216 291.103V319.162H311.107V291.103C311.109 279.195 321.698 269.544 334.763 269.544Z"
     fill="white"
     id="path24" />
  <path
     d="M405.803 269.471L405.837 237.573H368.53L368.564 269.473C368.575 278.839 376.906 286.425 387.182 286.425C397.458 286.425 405.792 278.837 405.803 269.471Z"
     fill="#C7C7C7"
     id="path26"
     style="fill-opacity:1;fill:url(#linearGradient969)" />
  <path
     d="M463.259 323.067H311.109C308.742 323.067 306.826 321.32 306.826 319.163V291.103C306.826 277.064 319.359 265.64 334.763 265.64H364.248V237.573C364.248 235.418 366.167 233.668 368.532 233.668H405.839C408.206 233.668 410.122 235.418 410.122 237.573V265.64H439.608C455.012 265.64 467.545 277.064 467.545 291.103V319.163C467.543 321.318 465.624 323.067 463.259 323.067ZM315.393 315.259H458.976V291.103C458.976 281.368 450.287 273.448 439.606 273.448H405.783C404.601 273.448 403.474 273.003 402.665 272.221C401.855 271.438 401.438 270.384 401.508 269.31L401.53 269.013C401.54 268.875 401.555 268.734 401.555 268.594V241.477H372.815V268.594C372.815 268.73 372.828 268.863 372.839 268.996L372.862 269.333C372.924 270.403 372.505 271.451 371.695 272.23C370.886 273.007 369.761 273.448 368.585 273.448H334.765C324.084 273.448 315.395 281.368 315.395 291.103V315.259H315.393Z"
     fill="white"
     id="path28" />
  <path
     d="M387.182 290.328C374.567 290.328 364.295 280.974 364.283 269.476L364.246 237.577C364.244 236.54 364.696 235.546 365.499 234.812C366.302 234.08 367.392 233.668 368.53 233.668H405.837C406.974 233.668 408.064 234.08 408.868 234.812C409.671 235.546 410.123 236.54 410.121 237.577L410.084 269.476C410.073 280.974 399.799 290.328 387.182 290.328ZM372.817 241.477L372.85 269.468C372.858 276.664 379.288 282.52 387.182 282.52C395.079 282.52 401.511 276.664 401.517 269.468L405.801 269.472L401.517 269.468L401.549 241.477H372.817V241.477Z"
     fill="#263238"
     id="path30"
     style="fill:#0d161e;fill-opacity:1" />
  <path
     d="M387.184 259.512C364.91 259.512 346.855 242.841 346.855 222.278V196.5C346.855 175.937 364.91 159.266 387.184 159.266C409.456 159.266 427.514 175.937 427.514 196.5V222.278C427.514 242.841 409.456 259.512 387.184 259.512Z"
     fill="white"
     id="path32" />
  <path
     d="M387.182 263.416C362.584 263.416 342.572 244.961 342.572 222.278V196.498C342.572 173.813 362.584 155.36 387.182 155.36C411.78 155.36 431.795 173.815 431.795 196.498V222.278C431.797 244.961 411.782 263.416 387.182 263.416ZM387.182 163.168C367.309 163.168 351.139 178.121 351.139 196.498V222.278C351.139 240.657 367.309 255.608 387.182 255.608C407.058 255.608 423.228 240.655 423.228 222.278V196.498C423.23 178.121 407.06 163.168 387.182 163.168Z"
     fill="#263238"
     id="path34"
     style="fill:#0d161e;fill-opacity:1" />
  <path
     d="M435.657 442.215H424.475H404.383C404.402 441.923 404.432 441.632 404.432 441.335V428.357C404.432 419.684 396.717 412.653 387.202 412.653H387.167C377.651 412.653 369.937 419.684 369.937 428.357V441.335C369.937 441.632 369.967 441.923 369.986 442.215H349.894H338.712C326.633 442.215 316.841 451.14 316.841 462.15V488.096H457.526V462.15C457.526 451.14 447.734 442.215 435.657 442.215Z"
     fill="#263238"
     id="path36"
     style="fill:#0d161e;fill-opacity:1" />
  <path
     d="M435.657 442.215H424.475H417.987C430.067 442.215 439.859 451.14 439.859 462.15V488.096H457.526V462.15C457.526 451.14 447.734 442.215 435.657 442.215Z"
     fill="#5D8E33"
     id="path38"
     style="fill-opacity:1.0;fill:url(#linearGradient961)" />
  <path
     d="M338.712 442.215H349.894H356.382C344.302 442.215 334.51 451.14 334.51 462.15V488.096H316.843V462.15C316.841 451.14 326.633 442.215 338.712 442.215Z"
     fill="#99CA6F"
     id="path40"
     style="fill-opacity:1.0;fill:url(#linearGradient953)" />
  <path
     d="M457.526 492H316.843C314.478 492 312.559 490.253 312.559 488.096V462.15C312.559 449.005 324.294 438.311 338.714 438.311H365.653V428.357C365.653 417.547 375.304 408.749 387.167 408.749C399.067 408.749 408.715 417.545 408.715 428.357V438.311H435.654C450.075 438.311 461.81 449.005 461.81 462.15V488.096C461.81 490.253 459.893 492 457.526 492ZM321.126 484.191H453.243V462.15C453.243 453.311 445.352 446.12 435.654 446.12H404.381C403.2 446.12 402.074 445.676 401.264 444.894C400.455 444.113 400.037 443.061 400.106 441.987L400.127 441.694C400.136 441.575 400.148 441.456 400.148 441.337V428.359C400.148 421.853 394.34 416.559 387.202 416.559C380.027 416.559 374.218 421.853 374.218 428.359V441.337C374.218 441.458 374.231 441.575 374.24 441.694L374.261 441.987C374.33 443.061 373.912 444.113 373.102 444.894C372.293 445.676 371.166 446.12 369.986 446.12H338.712C329.014 446.12 321.124 453.311 321.124 462.15V484.191H321.126Z"
     fill="#263238"
     id="path42"
     style="fill:#0d161e;fill-opacity:1" />
  <path
     d="M369.986 442.215H404.383V428.328C404.383 419.671 396.683 412.653 387.184 412.653C377.686 412.653 369.986 419.671 369.986 428.328V442.215Z"
     fill="#C7C7C7"
     id="path44"
     style="fill-opacity:1;fill:url(#linearGradient971)" />
  <path
     d="M404.383 446.12H369.986C367.622 446.12 365.703 444.37 365.703 442.215V428.328C365.703 417.533 375.338 408.749 387.182 408.749C399.026 408.749 408.664 417.533 408.664 428.328V442.215C408.666 444.372 406.747 446.12 404.383 446.12ZM374.27 438.311H400.099V428.328C400.099 421.837 394.306 416.557 387.184 416.557C380.065 416.557 374.272 421.837 374.272 428.328V438.311H374.27Z"
     fill="#263238"
     id="path46"
     style="fill:#0d161e;fill-opacity:1" />
  <path
     d="M246.499 432.941C225.904 432.941 209.209 417.527 209.209 398.512V374.677C209.209 355.661 225.904 340.248 246.499 340.248C267.094 340.248 283.789 355.661 283.789 374.677V398.512C283.789 417.525 267.094 432.941 246.499 432.941Z"
     fill="white"
     id="path48" />
  <path
     d="M246.499 436.845C223.576 436.845 204.925 419.649 204.925 398.512V374.677C204.925 353.539 223.576 336.343 246.499 336.343C269.422 336.343 288.073 353.539 288.073 374.677V398.512C288.073 419.649 269.422 436.845 246.499 436.845ZM246.499 344.15C228.298 344.15 213.492 357.844 213.492 374.675V398.51C213.492 415.343 228.298 429.035 246.499 429.035C264.7 429.035 279.506 415.341 279.506 398.51V374.675C279.506 357.844 264.7 344.15 246.499 344.15Z"
     fill="#263238"
     id="path50"
     style="fill:#0d161e;fill-opacity:1" />
  <path
     d="M294.971 442.215H283.789H263.697C263.717 441.923 263.747 441.632 263.747 441.335V428.357C263.747 419.684 256.032 412.653 246.516 412.653H246.482C236.966 412.653 229.251 419.684 229.251 428.357V441.335C229.251 441.632 229.281 441.923 229.301 442.215H209.209H198.027C185.947 442.215 176.155 451.14 176.155 462.15V488.096H316.841V462.15C316.841 451.14 307.049 442.215 294.971 442.215Z"
     fill="#263238"
     id="path52"
     style="fill:#0d161e;fill-opacity:1" />
  <path
     d="M294.971 442.215H283.789H277.302C289.381 442.215 299.173 451.14 299.173 462.15V488.096H316.841V462.15C316.841 451.14 307.048 442.215 294.971 442.215Z"
     fill="#5D8E33"
     id="path54"
     style="fill-opacity:1.0;fill:url(#linearGradient945)" />
  <path
     d="M198.027 442.215H209.209H215.696C203.617 442.215 193.825 451.14 193.825 462.15V488.096H176.157V462.15C176.157 451.14 185.947 442.215 198.027 442.215Z"
     fill="#99CA6F"
     id="path56"
     style="fill-opacity:1.0;fill:url(#linearGradient937)" />
  <path
     d="M316.843 492H176.157C173.793 492 171.874 490.253 171.874 488.096V462.15C171.874 449.005 183.606 438.311 198.029 438.311H224.97V428.357C224.97 417.547 234.621 408.749 246.484 408.749C258.381 408.749 268.032 417.545 268.032 428.357V438.311H294.973C309.394 438.311 321.128 449.005 321.128 462.15V488.096C321.126 490.253 319.207 492 316.843 492ZM180.441 484.191H312.559V462.15C312.559 453.311 304.669 446.12 294.971 446.12H263.697C262.517 446.12 261.391 445.676 260.581 444.894C259.771 444.113 259.354 443.061 259.422 441.987L259.439 441.722C259.45 441.595 259.463 441.466 259.463 441.335V428.357C259.463 421.851 253.655 416.557 246.516 416.557C239.343 416.557 233.535 421.851 233.535 428.357V441.335C233.535 441.456 233.548 441.573 233.556 441.692L233.578 441.985C233.646 443.059 233.227 444.111 232.419 444.892C231.609 445.675 230.483 446.118 229.303 446.118H198.029C188.331 446.118 180.441 453.309 180.441 462.148V484.191V484.191Z"
     fill="#263238"
     id="path58"
     style="fill:#0d161e;fill-opacity:1" />
  <path
     d="M229.301 442.215H263.697V428.328C263.697 419.671 255.998 412.653 246.499 412.653C237 412.653 229.301 419.671 229.301 428.328V442.215Z"
     fill="#C7C7C7"
     id="path60"
     style="fill-opacity:1;fill:url(#linearGradient973)" />
  <path
     d="M263.697 446.12H229.301C226.936 446.12 225.017 444.37 225.017 442.215V428.328C225.017 417.533 234.653 408.749 246.499 408.749C258.343 408.749 267.981 417.533 267.981 428.328V442.215C267.981 444.372 266.064 446.12 263.697 446.12ZM233.584 438.311H259.414V428.328C259.414 421.837 253.62 416.557 246.499 416.557C239.378 416.557 233.584 421.837 233.584 428.328V438.311Z"
     fill="#263238"
     id="path62"
     style="fill:#0d161e;fill-opacity:1" />
  <path
     d="M105.813 432.941C85.2183 432.941 68.5233 417.527 68.5233 398.512V374.677C68.5233 355.661 85.2183 340.248 105.813 340.248C126.409 340.248 143.104 355.661 143.104 374.677V398.512C143.104 417.525 126.409 432.941 105.813 432.941Z"
     fill="white"
     id="path64" />
  <path
     d="M105.813 436.845C82.8902 436.845 64.2398 419.649 64.2398 398.512V374.677C64.2398 353.539 82.8902 336.343 105.813 336.343C128.737 336.343 147.387 353.539 147.387 374.677V398.512C147.387 419.649 128.737 436.845 105.813 436.845ZM105.813 344.15C87.6128 344.15 72.8068 357.844 72.8068 374.675V398.51C72.8068 415.343 87.6128 429.035 105.813 429.035C124.012 429.035 138.82 415.341 138.82 398.51V374.675C138.82 357.844 124.012 344.15 105.813 344.15Z"
     fill="#263238"
     id="path66"
     style="fill:#0d161e;fill-opacity:1" />
  <path
     d="M154.286 442.215H143.104H123.012C123.031 441.923 123.061 441.632 123.061 441.335V428.357C123.061 419.684 115.346 412.653 105.831 412.653H105.796C96.2805 412.653 88.5659 419.684 88.5659 428.357V441.335C88.5659 441.632 88.5958 441.923 88.6151 442.215H68.5233H57.3412C45.2617 442.215 35.4696 451.14 35.4696 462.15V488.096H176.155V462.15C176.155 451.14 166.365 442.215 154.286 442.215Z"
     fill="#263238"
     id="path68"
     style="fill:#0d161e;fill-opacity:1" />
  <path
     d="M154.286 442.215H143.103H136.616C148.696 442.215 158.488 451.14 158.488 462.15V488.096H176.155V462.15C176.155 451.14 166.365 442.215 154.286 442.215Z"
     fill="#5D8E33"
     id="path70"
     style="fill-opacity:1.0;fill:url(#linearGradient929)" />
  <path
     d="M57.3412 442.215H68.5233H75.0107C62.9312 442.215 53.1391 451.14 53.1391 462.15V488.096H35.4717V462.15C35.4717 451.14 45.2639 442.215 57.3412 442.215Z"
     fill="#99CA6F"
     id="path72"
     style="fill-opacity:1;fill:url(#linearGradient921)" />
  <path
     d="M176.155 492H35.4717C33.1072 492 31.1882 490.253 31.1882 488.096V462.15C31.1882 449.005 42.9208 438.311 57.3433 438.311H84.2823V428.357C84.2823 417.547 93.9331 408.749 105.796 408.749C117.694 408.749 127.344 417.545 127.344 428.357V438.311H154.286C168.706 438.311 180.439 449.005 180.439 462.15V488.096C180.439 490.253 178.522 492 176.155 492ZM39.7553 484.191H171.874V462.15C171.874 453.311 163.983 446.12 154.288 446.12H123.012C121.832 446.12 120.705 445.676 119.895 444.894C119.086 444.113 118.666 443.061 118.735 441.987L118.756 441.694C118.765 441.575 118.777 441.456 118.777 441.337V428.359C118.777 421.853 112.969 416.559 105.831 416.559C98.6557 416.559 92.8472 421.853 92.8472 428.359V441.337C92.8472 441.458 92.8601 441.575 92.8686 441.694L92.8901 441.987C92.9586 443.061 92.5388 444.113 91.7292 444.894C90.9196 445.676 89.7931 446.12 88.613 446.12H57.3433C47.6455 446.12 39.7553 453.311 39.7553 462.15V484.191V484.191Z"
     fill="#263238"
     id="path74"
     style="fill:#0d161e;fill-opacity:1" />
  <path
     d="M88.6151 442.215H123.012V428.328C123.012 419.671 115.312 412.653 105.813 412.653C96.3147 412.653 88.6151 419.671 88.6151 428.328V442.215Z"
     fill="#C7C7C7"
     id="path76"
     style="fill-opacity:1;fill:url(#linearGradient975)" />
  <path
     d="M123.012 446.12H88.6151C86.2506 446.12 84.3316 444.37 84.3316 442.215V428.328C84.3316 417.533 93.9695 408.749 105.813 408.749C117.657 408.749 127.295 417.533 127.295 428.328V442.215C127.295 444.372 125.376 446.12 123.012 446.12ZM92.8986 438.311H118.728V428.328C118.728 421.837 112.935 416.557 105.813 416.557C98.6921 416.557 92.8986 421.837 92.8986 428.328V438.311Z"
     fill="#263238"
     id="path78"
     style="fill:#0d161e;fill-opacity:1" />
</svg>
