<?xml version="1.0" encoding="UTF-8" standalone="no"?>
<svg
   xmlns:dc="http://purl.org/dc/elements/1.1/"
   xmlns:cc="http://creativecommons.org/ns#"
   xmlns:rdf="http://www.w3.org/1999/02/22-rdf-syntax-ns#"
   xmlns:svg="http://www.w3.org/2000/svg"
   xmlns="http://www.w3.org/2000/svg"
   xmlns:xlink="http://www.w3.org/1999/xlink"
   xmlns:sodipodi="http://sodipodi.sourceforge.net/DTD/sodipodi-0.dtd"
   xmlns:inkscape="http://www.inkscape.org/namespaces/inkscape"
   width="550"
   height="544"
   viewBox="0 0 550 544"
   fill="none"
   version="1.1"
   id="svg72"
   sodipodi:docname="servicePage_DuringCommercialization.svg"
   inkscape:version="1.0.2 (e86c870879, 2021-01-15)">
  <metadata
     id="metadata78">
    <rdf:RDF>
      <cc:Work
         rdf:about="">
        <dc:format>image/svg+xml</dc:format>
        <dc:type
           rdf:resource="http://purl.org/dc/dcmitype/StillImage" />
      </cc:Work>
    </rdf:RDF>
  </metadata>
  <defs
     id="defs76">
    <linearGradient
       inkscape:collect="always"
       id="linearGradient1092">
      <stop
         style="stop-color:#e5e7eb;stop-opacity:1"
         offset="0"
         id="stop1088" />
      <stop
         style="stop-color:#d1d5db;stop-opacity:1"
         offset="1"
         id="stop1090" />
    </linearGradient>
    <linearGradient
       inkscape:collect="always"
       id="linearGradient1086">
      <stop
         style="stop-color:#e5e7eb;stop-opacity:1"
         offset="0"
         id="stop1082" />
      <stop
         style="stop-color:#d1d5db;stop-opacity:1"
         offset="1"
         id="stop1084" />
    </linearGradient>
    <linearGradient
       inkscape:collect="always"
       id="linearGradient1080">
      <stop
         style="stop-color:#e5e7eb;stop-opacity:1"
         offset="0"
         id="stop1076" />
      <stop
         style="stop-color:#d1d5db;stop-opacity:1"
         offset="1"
         id="stop1078" />
    </linearGradient>
    <linearGradient
       inkscape:collect="always"
       id="linearGradient1066">
      <stop
         style="stop-color:#e5e7eb;stop-opacity:1"
         offset="0"
         id="stop1062" />
      <stop
         style="stop-color:#d1d5db;stop-opacity:1"
         offset="1"
         id="stop1064" />
    </linearGradient>
    <linearGradient
       inkscape:collect="always"
       id="linearGradient1060">
      <stop
         style="stop-color:#e5e7eb;stop-opacity:1"
         offset="0"
         id="stop1056" />
      <stop
         style="stop-color:#d1d5db;stop-opacity:1"
         offset="1"
         id="stop1058" />
    </linearGradient>
    <linearGradient
       inkscape:collect="always"
       id="linearGradient1054">
      <stop
         style="stop-color:#e5e7eb;stop-opacity:1"
         offset="0"
         id="stop1050" />
      <stop
         style="stop-color:#d1d5db;stop-opacity:1"
         offset="1"
         id="stop1052" />
    </linearGradient>
    <linearGradient
       inkscape:collect="always"
       id="linearGradient1048">
      <stop
         style="stop-color:#e5e7eb;stop-opacity:1"
         offset="0"
         id="stop1044" />
      <stop
         style="stop-color:#d1d5db;stop-opacity:1"
         offset="1"
         id="stop1046" />
    </linearGradient>
    <linearGradient
       inkscape:collect="always"
       id="linearGradient1034">
      <stop
         style="stop-color:#e5e7eb;stop-opacity:1"
         offset="0"
         id="stop1030" />
      <stop
         style="stop-color:#d1d5db;stop-opacity:1"
         offset="1"
         id="stop1032" />
    </linearGradient>
    <linearGradient
       inkscape:collect="always"
       id="linearGradient1028">
      <stop
         style="stop-color:#e5e7eb;stop-opacity:1"
         offset="0"
         id="stop1024" />
      <stop
         style="stop-color:#d1d5db;stop-opacity:1"
         offset="1"
         id="stop1026" />
    </linearGradient>
    <linearGradient
       inkscape:collect="always"
       id="linearGradient1022">
      <stop
         style="stop-color:#e5e7eb;stop-opacity:1"
         offset="0"
         id="stop1018" />
      <stop
         style="stop-color:#d1d5db;stop-opacity:1"
         offset="1"
         id="stop1020" />
    </linearGradient>
    <linearGradient
       inkscape:collect="always"
       id="linearGradient1010">
      <stop
         style="stop-color:#e5e7eb;stop-opacity:1"
         offset="0"
         id="stop1006" />
      <stop
         style="stop-color:#d1d5db;stop-opacity:1"
         offset="1"
         id="stop1008" />
    </linearGradient>
    <linearGradient
       inkscape:collect="always"
       id="linearGradient1002">
      <stop
         style="stop-color:#e5e7eb;stop-opacity:1"
         offset="0"
         id="stop998" />
      <stop
         style="stop-color:#d1d5db;stop-opacity:1"
         offset="1"
         id="stop1000" />
    </linearGradient>
    <linearGradient
       inkscape:collect="always"
       xlink:href="#linearGradient1002"
       id="linearGradient1004"
       x1="431.64868"
       y1="82.685295"
       x2="455.02625"
       y2="82.602005"
       gradientUnits="userSpaceOnUse" />
    <linearGradient
       inkscape:collect="always"
       xlink:href="#linearGradient1010"
       id="linearGradient1012"
       x1="462.7887"
       y1="82.38031"
       x2="523.20892"
       y2="82.568756"
       gradientUnits="userSpaceOnUse" />
    <linearGradient
       inkscape:collect="always"
       xlink:href="#linearGradient1028"
       id="linearGradient1014"
       x1="462.7887"
       y1="82.38031"
       x2="523.20892"
       y2="82.568756"
       gradientUnits="userSpaceOnUse" />
    <linearGradient
       inkscape:collect="always"
       xlink:href="#linearGradient1022"
       id="linearGradient1016"
       x1="462.7887"
       y1="82.38031"
       x2="523.20892"
       y2="82.568756"
       gradientUnits="userSpaceOnUse" />
    <linearGradient
       inkscape:collect="always"
       xlink:href="#linearGradient1034"
       id="linearGradient1036"
       x1="458.39853"
       y1="261.98358"
       x2="550.00543"
       y2="261.86978"
       gradientUnits="userSpaceOnUse" />
    <linearGradient
       inkscape:collect="always"
       xlink:href="#linearGradient1060"
       id="linearGradient1038"
       x1="458.39853"
       y1="261.98358"
       x2="550.00543"
       y2="261.86978"
       gradientUnits="userSpaceOnUse" />
    <linearGradient
       inkscape:collect="always"
       xlink:href="#linearGradient1054"
       id="linearGradient1040"
       x1="458.39853"
       y1="261.98358"
       x2="550.00543"
       y2="261.86978"
       gradientUnits="userSpaceOnUse" />
    <linearGradient
       inkscape:collect="always"
       xlink:href="#linearGradient1048"
       id="linearGradient1042"
       x1="458.39853"
       y1="261.98358"
       x2="550.00543"
       y2="261.86978"
       gradientUnits="userSpaceOnUse" />
    <linearGradient
       inkscape:collect="always"
       xlink:href="#linearGradient1066"
       id="linearGradient1068"
       x1="431.19659"
       y1="446.30457"
       x2="523.28955"
       y2="446.25583"
       gradientUnits="userSpaceOnUse" />
    <linearGradient
       inkscape:collect="always"
       xlink:href="#linearGradient1092"
       id="linearGradient1070"
       x1="431.19659"
       y1="446.30457"
       x2="523.28955"
       y2="446.25583"
       gradientUnits="userSpaceOnUse" />
    <linearGradient
       inkscape:collect="always"
       xlink:href="#linearGradient1086"
       id="linearGradient1072"
       x1="431.19659"
       y1="446.30457"
       x2="523.28955"
       y2="446.25583"
       gradientUnits="userSpaceOnUse" />
    <linearGradient
       inkscape:collect="always"
       xlink:href="#linearGradient1080"
       id="linearGradient1074"
       x1="431.19659"
       y1="446.30457"
       x2="523.28955"
       y2="446.25583"
       gradientUnits="userSpaceOnUse" />
    <linearGradient
       inkscape:collect="always"
       xlink:href="#linearGradient1092"
       id="linearGradient1122"
       gradientUnits="userSpaceOnUse"
       x1="268.54855"
       y1="274.92987"
       x2="10.434916"
       y2="280.90808" />
    <linearGradient
       inkscape:collect="always"
       xlink:href="#linearGradient1092"
       id="linearGradient1130"
       x1="387.87827"
       y1="135.86427"
       x2="473.61887"
       y2="135.86427"
       gradientUnits="userSpaceOnUse" />
    <linearGradient
       inkscape:collect="always"
       xlink:href="#linearGradient1092"
       id="linearGradient1140"
       x1="233.81029"
       y1="265.22699"
       x2="319.5509"
       y2="265.22699"
       gradientUnits="userSpaceOnUse" />
    <linearGradient
       inkscape:collect="always"
       xlink:href="#linearGradient1092"
       id="linearGradient1148"
       x1="57.055416"
       y1="263.92612"
       x2="142.79604"
       y2="263.92612"
       gradientUnits="userSpaceOnUse" />
    <linearGradient
       inkscape:collect="always"
       xlink:href="#linearGradient1092"
       id="linearGradient1156"
       x1="268.02499"
       y1="96.5"
       x2="411.02499"
       y2="96.5"
       gradientUnits="userSpaceOnUse" />
    <linearGradient
       inkscape:collect="always"
       xlink:href="#linearGradient1092"
       id="linearGradient1164"
       x1="299.388"
       y1="263.784"
       x2="442.388"
       y2="263.784"
       gradientUnits="userSpaceOnUse" />
    <linearGradient
       inkscape:collect="always"
       xlink:href="#linearGradient1092"
       id="linearGradient1172"
       x1="268.07495"
       y1="446.13699"
       x2="411.07495"
       y2="446.13699"
       gradientUnits="userSpaceOnUse" />
  </defs>
  <sodipodi:namedview
     pagecolor="#ffffff"
     bordercolor="#666666"
     borderopacity="1"
     objecttolerance="10"
     gridtolerance="10"
     guidetolerance="10"
     inkscape:pageopacity="0"
     inkscape:pageshadow="2"
     inkscape:window-width="2560"
     inkscape:window-height="1015"
     id="namedview74"
     showgrid="false"
     inkscape:zoom="1.5036765"
     inkscape:cx="255.47114"
     inkscape:cy="279.22664"
     inkscape:window-x="0"
     inkscape:window-y="0"
     inkscape:window-maximized="1"
     inkscape:current-layer="svg72" />
  <path
     d="M450.899 77.5015H435.885C433.399 77.5015 431.381 79.7339 431.381 82.4846C431.381 85.2353 433.399 87.4677 435.885 87.4677H450.899C453.386 87.4677 455.404 85.2353 455.404 82.4846C455.404 79.7339 453.386 77.5015 450.899 77.5015Z"
     fill="#E6E7E8"
     id="path4"
     style="fill-opacity:1;fill:url(#linearGradient1004)" />
  <path
     d="M467.413 87.4677H518.463C520.95 87.4677 522.968 85.2353 522.968 82.4846C522.968 79.7339 520.95 77.5015 518.463 77.5015H467.413C464.926 77.5015 462.908 79.7339 462.908 82.4846C462.908 85.2353 464.926 87.4677 467.413 87.4677Z"
     fill="#E6E7E8"
     id="path6"
     style="fill-opacity:1;fill:url(#linearGradient1012)" />
  <path
     d="M450.899 117.367H435.885C433.399 117.367 431.381 119.599 431.381 122.35C431.381 125.101 433.399 127.333 435.885 127.333H450.899C453.386 127.333 455.404 125.101 455.404 122.35C455.404 119.599 453.386 117.367 450.899 117.367Z"
     fill="#E6E7E8"
     id="path8"
     style="fill-opacity:1;fill:url(#linearGradient1014)" />
  <path
     d="M467.413 127.333H518.463C520.95 127.333 522.968 125.101 522.968 122.35C522.968 119.599 520.95 117.367 518.463 117.367H467.413C464.926 117.367 462.908 119.599 462.908 122.35C462.908 125.101 464.926 127.333 467.413 127.333Z"
     fill="#E6E7E8"
     id="path10"
     style="fill-opacity:1;fill:url(#linearGradient1016)" />
  <path
     d="M450.899 441.27H435.885C433.399 441.27 431.381 443.497 431.381 446.253C431.381 449.008 433.399 451.236 435.885 451.236H450.899C453.386 451.236 455.404 449.008 455.404 446.253C455.404 443.497 453.386 441.27 450.899 441.27Z"
     fill="#E6E7E8"
     id="path12"
     style="fill-opacity:1;fill:url(#linearGradient1068)" />
  <path
     d="M518.468 441.27H467.418C464.931 441.27 462.913 443.497 462.913 446.253C462.913 449.008 464.931 451.236 467.418 451.236H518.468C520.954 451.236 522.972 449.008 522.972 446.253C522.972 443.497 520.954 441.27 518.468 441.27Z"
     fill="#E6E7E8"
     id="path14"
     style="fill-opacity:1;fill:url(#linearGradient1070)" />
  <path
     d="M450.899 481.135H435.885C433.399 481.135 431.381 483.362 431.381 486.118C431.381 488.874 433.399 491.101 435.885 491.101H450.899C453.386 491.101 455.404 488.874 455.404 486.118C455.404 483.362 453.386 481.135 450.899 481.135Z"
     fill="#E6E7E8"
     id="path16"
     style="fill-opacity:1;fill:url(#linearGradient1072)" />
  <path
     d="M518.468 481.135H467.418C464.931 481.135 462.913 483.362 462.913 486.118C462.913 488.874 464.931 491.101 467.418 491.101H518.468C520.954 491.101 522.972 488.874 522.972 486.118C522.972 483.362 520.954 481.135 518.468 481.135Z"
     fill="#E6E7E8"
     id="path18"
     style="fill-opacity:1;fill:url(#linearGradient1074)" />
  <path
     d="M462.908 266.86H477.922C480.409 266.86 482.427 264.628 482.427 261.877C482.427 259.126 480.409 256.894 477.922 256.894H462.908C460.422 256.894 458.404 259.126 458.404 261.877C458.404 264.628 460.422 266.86 462.908 266.86Z"
     fill="#E6E7E8"
     id="path20"
     style="fill-opacity:1;fill:url(#linearGradient1036)" />
  <path
     d="M489.936 261.877C489.936 264.628 491.954 266.86 494.44 266.86H545.491C547.977 266.86 549.995 264.628 549.995 261.877C549.995 259.126 547.977 256.894 545.491 256.894H494.44C491.954 256.894 489.936 259.126 489.936 261.877Z"
     fill="#E6E7E8"
     id="path22"
     style="fill-opacity:1;fill:url(#linearGradient1038)" />
  <path
     d="M477.927 306.725C480.413 306.725 482.431 304.498 482.431 301.742C482.431 298.986 480.413 296.759 477.927 296.759H462.913C460.426 296.759 458.408 298.986 458.408 301.742C458.408 304.498 460.426 306.725 462.913 306.725H477.927Z"
     fill="#E6E7E8"
     id="path24"
     style="fill-opacity:1;fill:url(#linearGradient1040)" />
  <path
     d="M545.495 296.759H494.445C491.958 296.759 489.94 298.986 489.94 301.742C489.94 304.498 491.958 306.725 494.445 306.725H545.495C547.982 306.725 550 304.498 550 301.742C550 298.986 547.982 296.759 545.495 296.759Z"
     fill="#E6E7E8"
     id="path26"
     style="fill-opacity:1;fill:url(#linearGradient1042)" />
  <rect
     style="fill:url(#linearGradient1130);fill-opacity:1.0;stroke:none;stroke-width:29.449;stroke-linejoin:round;stroke-miterlimit:4;stroke-dasharray:none;stroke-opacity:1"
     id="rect967-5"
     width="85.740616"
     height="15.336668"
     x="387.87827"
     y="128.19594"
     ry="0"
     transform="rotate(40.89958)" />
  <rect
     style="fill:url(#linearGradient1140);fill-opacity:1.0;stroke:none;stroke-width:29.449;stroke-linejoin:round;stroke-miterlimit:4;stroke-dasharray:none;stroke-opacity:1"
     id="rect967-3"
     width="85.740616"
     height="15.336668"
     x="233.81029"
     y="257.55865"
     ry="0"
     transform="rotate(0.601652)" />
  <rect
     style="fill:url(#linearGradient1148);fill-opacity:1.0;stroke:none;stroke-width:29.449;stroke-linejoin:round;stroke-miterlimit:4;stroke-dasharray:none;stroke-opacity:1"
     id="rect967"
     width="85.740616"
     height="15.336668"
     x="57.055416"
     y="256.25778"
     ry="0"
     transform="rotate(-37.714037)" />
  <circle
     style="display:inline;fill:url(#linearGradient1122);fill-opacity:1;stroke:none;stroke-width:33.2435;stroke-linejoin:round;stroke-miterlimit:4;stroke-dasharray:none;stroke-opacity:1"
     id="path905"
     cx="139.505"
     cy="282"
     r="129" />
  <path
     d="m 129.50424,387.036 c 69.03516,0 125.00031,-55.96494 125.00031,-125 0,-69.03607 -55.96515,-125 -125.00031,-125 -69.035372,0 -124.99969,55.96393 -124.99969,125 0,69.03506 55.964318,125 124.99969,125 z"
     fill="#263238"
     id="path28"
     style="stroke-width:8;stroke:#fcc24c;stroke-opacity:1;stroke-miterlimit:4;stroke-dasharray:none;fill:#0d161e;fill-opacity:1" />
  <circle
     style="display:inline;fill:url(#linearGradient1164);fill-opacity:1.0;stroke:none;stroke-width:18.4256;stroke-linejoin:round;stroke-miterlimit:4;stroke-dasharray:none;stroke-opacity:1"
     id="path905-3-6"
     cx="370.888"
     cy="263.784"
     r="71.5" />
  <path
     d="m 361.4245,321.867 c 37.27917,0 67.4995,-30.22044 67.4995,-67.5 0,-37.27865 -30.22033,-67.5 -67.4995,-67.5 -37.27917,0 -67.5005,30.22135 -67.5005,67.5 0,37.27956 30.22133,67.5 67.5005,67.5 z"
     fill="#fcc24c"
     id="path30"
     style="stroke-width:8;stroke-miterlimit:4;stroke-dasharray:none;stroke:#0d161e;stroke-opacity:1" />
  <path
     d="M329.961 154.477C367.278 154.477 397.529 121.012 397.529 79.7303C397.529 38.4487 367.278 4.9834 329.961 4.9834C292.644 4.9834 262.392 38.4487 262.392 79.7303C262.392 121.012 292.644 154.477 329.961 154.477Z"
     fill="white"
     id="path32" />
  <circle
     style="display:inline;fill:url(#linearGradient1156);fill-opacity:1.0;stroke:none;stroke-width:18.4256;stroke-linejoin:round;stroke-miterlimit:4;stroke-dasharray:none;stroke-opacity:1"
     id="path905-3"
     cx="339.52499"
     cy="96.5"
     r="71.5" />
  <path
     d="m 330.2345,154.9326 c 37.27905,0 67.4995,-30.22099 67.4995,-67.5 0,-37.27921 -30.22045,-67.5 -67.4995,-67.5 -37.27905,0 -67.5005,30.22079 -67.5005,67.5 0,37.27901 30.22145,67.5 67.5005,67.5 z"
     fill="#c7c7c7"
     id="path34"
     style="stroke-width:8;stroke:#fcc24c;stroke-opacity:1;stroke-miterlimit:4;stroke-dasharray:none;fill:#0d161e;fill-opacity:1" />
  <circle
     style="display:inline;fill:url(#linearGradient1172);fill-opacity:1.0;stroke:none;stroke-width:18.4256;stroke-linejoin:round;stroke-miterlimit:4;stroke-dasharray:none;stroke-opacity:1"
     id="path905-3-7"
     cx="339.57495"
     cy="446.13699"
     r="71.5" />
  <path
     d="m 329.8925,503.751 c 37.27917,0 67.4995,-30.22048 67.4995,-67.5 0,-37.27869 -30.22033,-67.5 -67.4995,-67.5 -37.27917,0 -67.5005,30.22131 -67.5005,67.5 0,37.27952 30.22133,67.5 67.5005,67.5 z"
     fill="#c7c7c7"
     id="path36"
     style="stroke-width:8;stroke:#fcc24c;stroke-opacity:1;stroke-miterlimit:4;stroke-dasharray:none;fill:#0d161e;fill-opacity:1" />
  <path
     d="m 330.45692,261.69801 h 65.317 c 2.486,0 4.504,-2.233 4.504,-4.984 0,-2.75 -2.018,-4.983 -4.504,-4.983 h -65.317 c -2.486,0 -4.504,2.233 -4.504,4.983 0,2.751 2.018,4.984 4.504,4.984 z"
     fill="#3a2c60"
     id="path42"
     style="fill:#0d161e;fill-opacity:1" />
  <path
     d="m 299.9676,94.234008 h 65.317 c 2.486,0 4.504,-2.2324 4.504,-4.9831 0,-2.7507 -2.018,-4.9831 -4.504,-4.9831 h -65.317 c -2.486,0 -4.504,2.2324 -4.504,4.9831 0,2.7507 2.018,4.9831 4.504,4.9831 z"
     fill="#fcc24c"
     id="path44" />
  <path
     d="m 298.52229,444.28791 h 65.317 c 2.486,0 4.504,-2.228 4.504,-4.983 0,-2.756 -2.018,-4.983 -4.504,-4.983 h -65.317 c -2.486,0 -4.504,2.227 -4.504,4.983 0,2.755 2.018,4.983 4.504,4.983 z"
     fill="#3a2c60"
     id="path46"
     style="fill:#fcc24c;fill-opacity:1" />
  <path
     d="M432.881 57.5688H417.867C415.381 57.5688 413.363 59.8013 413.363 62.552C413.363 65.3027 415.381 67.5351 417.867 67.5351H432.881C435.367 67.5351 437.385 65.3027 437.385 62.552C437.385 59.8013 435.367 57.5688 432.881 57.5688Z"
     fill="#3A2C60"
     id="path48"
     style="fill:#0d161e;fill-opacity:1" />
  <path
     d="M449.395 67.5351H500.445C502.931 67.5351 504.95 65.3027 504.95 62.552C504.95 59.8013 502.931 57.5688 500.445 57.5688H449.395C446.908 57.5688 444.89 59.8013 444.89 62.552C444.89 65.3027 446.908 67.5351 449.395 67.5351Z"
     fill="#3A2C60"
     id="path50"
     style="fill:#0d161e;fill-opacity:1" />
  <path
     d="M432.881 97.4341H417.867C415.381 97.4341 413.363 99.6665 413.363 102.417C413.363 105.168 415.381 107.4 417.867 107.4H432.881C435.367 107.4 437.385 105.168 437.385 102.417C437.385 99.6665 435.367 97.4341 432.881 97.4341Z"
     fill="#3A2C60"
     id="path52"
     style="fill:#0d161e;fill-opacity:1" />
  <path
     d="M449.395 107.4H500.445C502.931 107.4 504.95 105.168 504.95 102.417C504.95 99.6665 502.931 97.4341 500.445 97.4341H449.395C446.908 97.4341 444.89 99.6665 444.89 102.417C444.89 105.168 446.908 107.4 449.395 107.4Z"
     fill="#3A2C60"
     id="path54"
     style="fill:#0d161e;fill-opacity:1" />
  <path
     d="M432.881 421.337H417.867C415.381 421.337 413.363 423.564 413.363 426.32C413.363 429.076 415.381 431.303 417.867 431.303H432.881C435.367 431.303 437.385 429.076 437.385 426.32C437.385 423.564 435.367 421.337 432.881 421.337Z"
     fill="#3A2C60"
     id="path56"
     style="fill:#0d161e;fill-opacity:1" />
  <path
     d="M500.45 421.337H449.399C446.913 421.337 444.895 423.564 444.895 426.32C444.895 429.076 446.913 431.303 449.399 431.303H500.45C502.936 431.303 504.954 429.076 504.954 426.32C504.954 423.564 502.936 421.337 500.45 421.337Z"
     fill="#3A2C60"
     id="path58"
     style="fill:#0d161e;fill-opacity:1" />
  <path
     d="M432.881 461.202H417.867C415.381 461.202 413.363 463.43 413.363 466.185C413.363 468.941 415.381 471.168 417.867 471.168H432.881C435.367 471.168 437.385 468.941 437.385 466.185C437.385 463.43 435.367 461.202 432.881 461.202Z"
     fill="#3A2C60"
     id="path60"
     style="fill:#0d161e;fill-opacity:1" />
  <path
     d="M500.45 461.202H449.399C446.913 461.202 444.895 463.43 444.895 466.185C444.895 468.941 446.913 471.168 449.399 471.168H500.45C502.936 471.168 504.954 468.941 504.954 466.185C504.954 463.43 502.936 461.202 500.45 461.202Z"
     fill="#3A2C60"
     id="path62"
     style="fill:#0d161e;fill-opacity:1" />
  <path
     d="M444.89 246.928H459.904C462.39 246.928 464.408 244.695 464.408 241.945C464.408 239.194 462.39 236.961 459.904 236.961H444.89C442.403 236.961 440.385 239.194 440.385 241.945C440.385 244.695 442.403 246.928 444.89 246.928Z"
     fill="#3A2C60"
     id="path64"
     style="fill:#0d161e;fill-opacity:1" />
  <path
     d="M471.917 241.945C471.917 244.695 473.936 246.928 476.422 246.928H527.472C529.959 246.928 531.977 244.695 531.977 241.945C531.977 239.194 529.959 236.961 527.472 236.961H476.422C473.936 236.961 471.917 239.194 471.917 241.945Z"
     fill="#3A2C60"
     id="path66"
     style="fill:#0d161e;fill-opacity:1" />
  <path
     d="M459.908 286.793C462.395 286.793 464.413 284.565 464.413 281.81C464.413 279.054 462.395 276.827 459.908 276.827H444.895C442.408 276.827 440.39 279.054 440.39 281.81C440.39 284.565 442.408 286.793 444.895 286.793H459.908Z"
     fill="#3A2C60"
     id="path68"
     style="fill:#0d161e;fill-opacity:1" />
  <path
     d="M527.477 276.827H476.427C473.94 276.827 471.922 279.054 471.922 281.81C471.922 284.565 473.94 286.793 476.427 286.793H527.477C529.964 286.793 531.982 284.565 531.982 281.81C531.982 279.054 529.964 276.827 527.477 276.827Z"
     fill="#3A2C60"
     id="path70"
     style="fill:#0d161e;fill-opacity:1" />
</svg>
