<?xml version="1.0" encoding="UTF-8" standalone="no"?>
<svg
   xmlns:dc="http://purl.org/dc/elements/1.1/"
   xmlns:cc="http://creativecommons.org/ns#"
   xmlns:rdf="http://www.w3.org/1999/02/22-rdf-syntax-ns#"
   xmlns:svg="http://www.w3.org/2000/svg"
   xmlns="http://www.w3.org/2000/svg"
   xmlns:xlink="http://www.w3.org/1999/xlink"
   xmlns:sodipodi="http://sodipodi.sourceforge.net/DTD/sodipodi-0.dtd"
   xmlns:inkscape="http://www.inkscape.org/namespaces/inkscape"
   width="360"
   height="555"
   viewBox="0 0 360 555"
   fill="none"
   version="1.1"
   id="svg30"
   sodipodi:docname="servicePage_ResearchingNewIdea.svg"
   inkscape:version="1.0.2 (e86c870879, 2021-01-15)">
  <metadata
     id="metadata36">
    <rdf:RDF>
      <cc:Work
         rdf:about="">
        <dc:format>image/svg+xml</dc:format>
        <dc:type
           rdf:resource="http://purl.org/dc/dcmitype/StillImage" />
        <dc:title></dc:title>
      </cc:Work>
    </rdf:RDF>
  </metadata>
  <defs
     id="defs34">
    <linearGradient
       inkscape:collect="always"
       id="linearGradient934">
      <stop
         style="stop-color:#e5e7eb;stop-opacity:1"
         offset="0"
         id="stop930" />
      <stop
         style="stop-color:#d1d5db;stop-opacity:1"
         offset="1"
         id="stop932" />
    </linearGradient>
    <linearGradient
       inkscape:collect="always"
       id="linearGradient924">
      <stop
         style="stop-color:#e5e7eb;stop-opacity:1"
         offset="0"
         id="stop920" />
      <stop
         style="stop-color:#d1d5db;stop-opacity:1"
         offset="1"
         id="stop922" />
    </linearGradient>
    <linearGradient
       inkscape:collect="always"
       xlink:href="#linearGradient934"
       id="linearGradient926"
       x1="328.565"
       y1="209.95551"
       x2="339.737"
       y2="209.95551"
       gradientUnits="userSpaceOnUse"
       gradientTransform="translate(4,-20)" />
    <linearGradient
       inkscape:collect="always"
       xlink:href="#linearGradient924"
       id="linearGradient928"
       x1="23.199499"
       y1="473.01199"
       x2="339.737"
       y2="473.01199"
       gradientUnits="userSpaceOnUse"
       gradientTransform="translate(4,-20)" />
  </defs>
  <sodipodi:namedview
     pagecolor="#ffffff"
     bordercolor="#666666"
     borderopacity="1"
     objecttolerance="10"
     gridtolerance="10"
     guidetolerance="10"
     inkscape:pageopacity="0"
     inkscape:pageshadow="2"
     inkscape:window-width="2560"
     inkscape:window-height="1015"
     id="namedview32"
     showgrid="false"
     inkscape:zoom="1.041599"
     inkscape:cx="256.80801"
     inkscape:cy="385.26096"
     inkscape:window-x="0"
     inkscape:window-y="0"
     inkscape:window-maximized="1"
     inkscape:current-layer="svg30" />
  <path
     d="M 338.151,554.218 H 32.7855 c -1.4815,0 -2.9023,-0.677 -3.9499,-1.882 -1.0476,-1.205 -1.6361,-2.84 -1.6361,-4.544 0,-1.704 0.5885,-3.339 1.6361,-4.544 1.0476,-1.205 2.4684,-1.882 3.9499,-1.882 H 332.565 V 358.231 c 0,-1.704 0.588,-3.338 1.636,-4.543 1.048,-1.206 2.468,-1.882 3.95,-1.882 1.481,0 2.902,0.676 3.95,1.882 1.047,1.205 1.636,2.839 1.636,4.543 v 189.561 c 0,1.704 -0.589,3.339 -1.636,4.544 -1.048,1.205 -2.469,1.882 -3.95,1.882 z"
     fill="#EBE7F2"
     id="path2"
     style="fill:url(#linearGradient928);fill-opacity:1" />
  <path
     d="m 338.151,250.921 c -1.482,0 -2.903,-0.677 -3.95,-1.882 -1.048,-1.205 -1.636,-2.84 -1.636,-4.544 V 135.416 c 0,-1.704 0.588,-3.339 1.636,-4.544 1.047,-1.205 2.468,-1.882 3.95,-1.882 1.481,0 2.902,0.677 3.95,1.882 1.047,1.205 1.636,2.84 1.636,4.544 v 109.079 c 0,1.704 -0.589,3.339 -1.636,4.544 -1.048,1.205 -2.469,1.882 -3.95,1.882 z"
     fill="#EBE7F2"
     id="path4"
     style="fill:url(#linearGradient926);fill-opacity:1" />
  <path
     d="m 315.807,250.921 c 1.481,0 2.902,-0.677 3.95,-1.882 1.047,-1.205 1.636,-2.84 1.636,-4.544 v -93.863 c 0,-1.704 -0.589,-3.338 -1.636,-4.543 -1.048,-1.205 -2.469,-1.882 -3.95,-1.882 -1.481,0 -2.902,0.677 -3.95,1.882 -1.047,1.205 -1.636,2.839 -1.636,4.543 v 93.863 c 0,1.704 0.589,3.339 1.636,4.544 1.048,1.205 2.469,1.882 3.95,1.882 z"
     fill="#846F75"
     id="path6"
     style="fill:#e5e7eb;fill-opacity:1" />
  <path
     d="m 315.807,376.866 c -1.481,0 -2.902,0.677 -3.95,1.882 -1.047,1.205 -1.636,2.84 -1.636,4.544 V 515.663 H 16.0276 V 50.4364 H 211.589 c 1.482,0 2.902,-0.677 3.95,-1.8821 1.048,-1.205 1.636,-2.8395 1.636,-4.5437 0,-1.7042 -0.588,-3.3386 -1.636,-4.5437 -1.048,-1.2051 -2.468,-1.8821 -3.95,-1.8821 H 10.44171 c -1.48148,0 -2.90228,0.677 -3.94985,1.8821 -1.04757,1.2051 -1.636086,2.8395 -1.636086,4.5437 V 522.089 c 0,1.704 0.588516,3.338 1.636086,4.543 1.04757,1.205 2.46837,1.882 3.94985,1.882 H 315.807 c 1.482,0 2.902,-0.677 3.95,-1.882 1.047,-1.205 1.636,-2.839 1.636,-4.543 V 383.292 c 0,-1.704 -0.589,-3.339 -1.636,-4.544 -1.048,-1.205 -2.468,-1.882 -3.95,-1.882 z"
     fill="#0C1821"
     id="path8"
     style="fill:#0d161e;fill-opacity:1" />
  <path
     d="m 359.058,298.325 -25.787,-29.751 c -0.518,-0.598 -1.133,-1.073 -1.811,-1.397 -0.677,-0.324 -1.403,-0.491 -2.137,-0.493 -1.48,0 -2.899,0.675 -3.946,1.877 l -7.429,8.531 -10.265,-11.808 c -1.048,-1.205 -2.468,-1.882 -3.949,-1.882 -1.482,0 -2.902,0.677 -3.95,1.882 l -47.791,54.979 c -0.533,0.592 -0.959,1.301 -1.251,2.085 -0.293,0.784 -0.447,1.628 -0.454,2.481 -0.006,0.853 0.135,1.699 0.416,2.489 0.281,0.79 0.696,1.507 1.22,2.11 0.525,0.604 1.148,1.081 1.835,1.404 0.686,0.323 1.422,0.486 2.163,0.478 0.742,-0.007 1.475,-0.184 2.157,-0.521 0.681,-0.337 1.298,-0.827 1.813,-1.44 l 43.843,-50.435 6.305,7.256 -120.656,138.522 c -0.55,0.632 -0.979,1.389 -1.26,2.223 l -15.938,47.14 -3.883,4.47 c -1.04,1.207 -1.622,2.838 -1.619,4.538 0.004,1.699 0.592,3.328 1.637,4.529 1.045,1.202 2.461,1.878 3.938,1.881 1.477,0.004 2.895,-0.666 3.944,-1.862 l 3.877,-4.46 41.007,-18.149 c 0.728,-0.323 1.389,-0.817 1.942,-1.45 L 359.036,307.421 c 0.521,-0.595 0.935,-1.302 1.218,-2.082 0.284,-0.779 0.431,-1.616 0.433,-2.46 0.002,-0.845 -0.141,-1.682 -0.42,-2.464 -0.28,-0.781 -0.691,-1.491 -1.209,-2.09 z M 219.141,449.86 201.246,429.211 304.899,310.218 l 17.897,20.65 z m -23.706,-9.152 13.699,15.81 -22.378,9.903 z m 135.269,-118.919 -17.898,-20.65 16.499,-18.94 17.897,20.652 z"
     fill="#0C1821"
     id="path10"
     style="fill:#0d161e;fill-opacity:1" />
  <path
     d="m 54.012,150.679 h 64.424 c 1.481,0 2.902,-0.677 3.95,-1.882 1.047,-1.206 1.636,-2.84 1.636,-4.544 0,-1.704 -0.589,-3.339 -1.636,-4.544 -1.048,-1.205 -2.469,-1.882 -3.95,-1.882 H 54.012 c -1.4815,0 -2.9023,0.677 -3.9498,1.882 -1.0476,1.205 -1.6361,2.84 -1.6361,4.544 0,1.704 0.5885,3.338 1.6361,4.544 1.0475,1.205 2.4683,1.882 3.9498,1.882 z"
     fill="#0C1821"
     id="path12"
     style="fill:#0d161e;fill-opacity:1" />
  <path
     d="m 48.4261,192.767 c 0,1.705 0.5885,3.339 1.6361,4.544 1.0475,1.205 2.4683,1.882 3.9498,1.882 H 266.03 c 1.481,0 2.902,-0.677 3.949,-1.882 1.048,-1.205 1.637,-2.839 1.637,-4.544 0,-1.704 -0.589,-3.338 -1.637,-4.543 -1.047,-1.205 -2.468,-1.882 -3.949,-1.882 H 54.012 c -1.4815,0 -2.9023,0.677 -3.9498,1.882 -1.0476,1.205 -1.6361,2.839 -1.6361,4.543 z"
     fill="#0C1821"
     id="path14"
     style="fill:#0d161e;fill-opacity:1" />
  <path
     d="M 266.03,224.871 H 54.012 c -1.4815,0 -2.9023,0.677 -3.9498,1.882 -1.0476,1.205 -1.6361,2.839 -1.6361,4.543 0,1.705 0.5885,3.339 1.6361,4.544 1.0475,1.205 2.4683,1.882 3.9498,1.882 H 266.03 c 1.481,0 2.902,-0.677 3.949,-1.882 1.048,-1.205 1.637,-2.839 1.637,-4.544 0,-1.704 -0.589,-3.338 -1.637,-4.543 -1.047,-1.205 -2.468,-1.882 -3.949,-1.882 z"
     fill="#0C1821"
     id="path16"
     style="fill:#0d161e;fill-opacity:1" />
  <path
     d="m 271.616,269.825 c 0,-1.704 -0.589,-3.338 -1.637,-4.543 -1.047,-1.205 -2.468,-1.882 -3.949,-1.882 H 54.012 c -1.4815,0 -2.9023,0.677 -3.9498,1.882 -1.0476,1.205 -1.6361,2.839 -1.6361,4.543 0,1.705 0.5885,3.339 1.6361,4.544 1.0475,1.205 2.4683,1.882 3.9498,1.882 H 266.03 c 1.481,0 2.902,-0.677 3.949,-1.882 1.048,-1.205 1.637,-2.839 1.637,-4.544 z"
     fill="#0C1821"
     id="path18"
     style="fill:#0d161e;fill-opacity:1" />
  <path
     d="m 54.012,393.948 c -1.4815,0 -2.9023,0.677 -3.9498,1.882 -1.0476,1.206 -1.6361,2.84 -1.6361,4.544 0,1.704 0.5885,3.339 1.6361,4.544 1.0475,1.205 2.4683,1.882 3.9498,1.882 h 64.424 c 1.481,0 2.902,-0.677 3.95,-1.882 1.047,-1.205 1.636,-2.84 1.636,-4.544 0,-1.704 -0.589,-3.338 -1.636,-4.544 -1.048,-1.205 -2.469,-1.882 -3.95,-1.882 z"
     fill="#0C1821"
     id="path20"
     style="fill:#0d161e;fill-opacity:1" />
  <path
     d="M 333.15644,104.96327 320.36133,84.50616 c -0.33486,-0.55701 -0.77955,-1.04348 -1.30908,-1.43094 -0.52951,-0.38754 -1.13315,-0.66843 -1.77518,-0.82617 -0.64203,-0.15782 -1.30996,-0.18938 -1.96449,-0.0929 -0.65453,0.0965 -1.28318,0.31911 -1.84841,0.65488 -0.56613,0.33577 -1.05726,0.77795 -1.44569,1.30083 -0.38844,0.5228 -0.66614,1.11584 -0.81706,1.74445 -0.15091,0.62846 -0.17234,1.28016 -0.0625,1.91673 0.11073,0.63656 0.34914,1.24587 0.70276,1.7916 l 8.16693,13.06202 h -21.09777 l 5.5988,-5.45884 c 0.90903,-0.91738 1.41176,-2.1466 1.40015,-3.42124 -0.0116,-1.2754 -0.53577,-2.49554 -1.46087,-3.39702 -0.9251,-0.90224 -2.17612,-1.41315 -3.4834,-1.42451 -1.30818,-0.0113 -2.56813,0.47913 -3.50841,1.36472 l -14.11222,13.76291 c -0.93492,0.91208 -1.46087,2.14887 -1.46087,3.43865 0,1.28977 0.52595,2.52656 1.46087,3.43864 l 14.11221,13.76215 c 0.9367,0.90527 2.20291,1.4124 3.5227,1.40937 1.31888,-0.003 2.58241,-0.51545 3.51555,-1.42527 0.93224,-0.9098 1.4573,-2.14205 1.45998,-3.4288 0.003,-1.28599 -0.51703,-2.52127 -1.4457,-3.43411 l -5.5988,-5.45959 h 29.98621 c 0.88492,0 1.75465,-0.2301 2.51902,-0.66608 0.76348,-0.43599 1.39479,-1.06271 1.82877,-1.81508 0.43308,-0.75237 0.65364,-1.60389 0.63846,-2.46752 -0.0152,-0.86288 -0.26611,-1.70684 -0.72686,-2.44407 z"
     fill="#fcc24c"
     id="path22"
     style="stroke-width:0.822123" />
  <path
     d="m 291.47776,57.282771 -8.23886,-1.848467 c -0.68193,-0.153053 -1.38972,-0.180406 -2.08217,-0.08068 -0.69343,0.09973 -1.35912,0.324701 -1.95786,0.662077 -0.59969,0.3373 -1.12096,0.780401 -1.5351,1.303946 -0.41317,0.523546 -0.71159,1.117317 -0.87705,1.74743 -0.16642,0.630037 -0.19608,1.284123 -0.088,1.924765 0.10805,0.640638 0.35197,1.255385 0.71638,1.809126 0.36536,0.553742 0.84455,1.035566 1.41171,1.418121 0.56622,0.382479 1.20895,0.658083 1.89089,0.811059 l 20.77594,4.658739 c 1.37728,0.308718 2.83109,0.09934 4.04098,-0.582093 1.20992,-0.681439 2.07741,-1.779163 2.41122,-3.051685 l 5.04142,-19.199684 c 0.16547,-0.630191 0.19415,-1.284278 0.0861,-1.924993 -0.10806,-0.64064 -0.35197,-1.255388 -0.71734,-1.809052 -0.36535,-0.553588 -0.84454,-1.035336 -1.41171,-1.417582 -0.56717,-0.382327 -1.2099,-0.657698 -1.89186,-0.810444 -0.68193,-0.152745 -1.38971,-0.179868 -2.08312,-0.07983 -0.69344,0.100039 -1.35816,0.325237 -1.95692,0.662844 -0.59967,0.337609 -1.12094,0.781016 -1.53413,1.304791 -0.41413,0.523777 -0.71159,1.117702 -0.87705,1.747892 l -1.998,7.615075 -15.79571,-23.949165 c -0.47633,-0.722851 -1.14678,-1.320234 -1.94543,-1.734675 -0.79863,-0.414519 -1.69961,-0.632189 -2.61588,-0.632189 -0.91627,0 -1.81724,0.21767 -2.61588,0.632189 -0.79863,0.414441 -1.4691,1.011824 -1.94541,1.734675 l -13.69633,20.76771 c -0.38641,0.553817 -0.64847,1.173481 -0.77089,1.82242 -0.12338,0.648862 -0.10433,1.313934 0.0556,1.955958 0.15973,0.642023 0.45716,1.24801 0.87418,1.782311 0.417,0.534303 0.94498,0.986085 1.55424,1.328764 0.60829,0.342602 1.28545,0.569262 1.99035,0.666456 0.70491,0.09721 1.42415,0.063 2.11469,-0.100487 0.69058,-0.163581 1.33904,-0.453167 1.90623,-0.851704 0.56717,-0.398536 1.04346,-0.898033 1.3983,-1.469061 l 9.13408,-13.84975 z"
     fill="#fcc24c"
     id="path26"
     style="stroke-width:0.857247" />
  <path
     d="m 283.38143,152.55469 c -14.83313,0 -29.33371,-4.39937 -41.66764,-12.64101 -12.33299,-8.24084 -21.94602,-19.95467 -27.62162,-33.65889 -5.67653,-13.70502 -7.16133,-28.784677 -4.26718,-43.333053 2.89416,-14.548458 10.03686,-27.912009 20.52643,-38.400784 10.48863,-10.488694 23.85279,-17.631557 38.40088,-20.525281 14.54902,-2.893723 29.629,-1.40835 43.33315,4.268291 13.70416,5.676632 25.41771,15.289581 33.65865,27.623211 8.24093,12.333629 12.63945,26.834069 12.63945,41.667558 -0.0224,19.884308 -7.93168,38.948248 -21.9926,53.008758 -14.06091,14.06051 -33.12489,21.96933 -53.00952,21.9912 z m 0,-139.593407 c -12.77545,4.05e-4 -25.26401,3.789064 -35.88585,10.88701 -10.62183,7.097866 -18.90096,17.186057 -23.78945,28.989058 -4.88848,11.802918 -6.16743,24.790501 -3.67475,37.320409 2.49268,12.52927 8.64428,24.03906 17.67792,33.07264 9.03364,9.03275 20.54319,15.18443 33.07366,17.67684 12.52954,2.49241 25.51738,1.213 37.31942,-3.67626 11.80297,-4.88847 21.89107,-13.16817 28.98906,-23.79047 7.09706,-10.6223 10.88545,-23.11027 10.88545,-35.885778 C 347.95733,60.429083 341.1453,44.010344 329.03587,31.900854 316.92643,19.791283 300.50697,12.979989 283.38143,12.961283 Z"
     fill="#fcc24c"
     id="path28"
     style="stroke-width:0.868492" />
  <path
     d="m 238.22479,112.80527 24.12395,0.49272 c 0.64945,0.0247 1.29999,-0.0811 1.91414,-0.31205 0.61419,-0.23093 1.17973,-0.58229 1.66323,-1.03319 0.48356,-0.45086 0.87565,-0.99252 1.15324,-1.59308 0.27758,-0.60056 0.43547,-1.24849 0.46395,-1.90531 0.029,-0.65758 -0.0722,-1.31065 -0.29707,-1.92196 -0.22482,-0.61128 -0.56905,-1.16834 -1.01246,-1.63879 -0.44329,-0.47035 -0.97691,-0.84508 -1.56973,-1.10167 -0.59331,-0.25585 -1.23372,-0.38992 -1.884,-0.39278 l -15.40177,-0.31698 11.55064,-17.65499 1.50282,7.67379 c 0.27,1.26294 1.0234,2.35661 2.0964,3.04473 1.07362,0.68855 2.38163,0.91792 3.64248,0.63733 1.26148,-0.28018 2.37394,-1.04734 3.09915,-2.13508 0.7257,-1.0885 1.00506,-2.41137 0.77877,-3.68306 l -3.79086,-19.344293 c -0.2514,-1.281704 -0.99842,-2.398948 -2.07773,-3.105079 -1.0793,-0.706125 -2.40222,-0.943126 -3.67731,-0.660113 l -19.24259,4.274823 c -1.27037,0.288229 -2.38798,1.070172 -3.108,2.176254 -0.71955,1.105305 -0.98248,2.443206 -0.73201,3.722188 0.25095,1.27821 0.99466,2.39222 2.06997,3.09894 1.0745,0.70656 2.39291,0.94769 3.66522,0.67032 l 7.63392,-1.69615 -16.4169,25.09299 c -0.48448,0.74051 -0.76809,1.59429 -0.82173,2.47262 -0.0531,0.87759 0.12567,1.749 0.51767,2.52407 0.39249,0.77432 0.98432,1.42508 1.71533,1.8852 0.73039,0.45969 1.57399,0.71177 2.44318,0.72983 z"
     fill="#fcc24c"
     id="path22-7"
     style="stroke-width:0.822123" />
</svg>
