<svg id="Layer_1" data-name="Layer 1" xmlns="http://www.w3.org/2000/svg" viewBox="0 0 1024 288"><defs><style>.cls-1{fill:#231f20;}.cls-2{fill:none;}.cls-3{fill:#fefefe;}.cls-4{fill:#fdfdfd;}.cls-5{fill:#656565;}.cls-6{fill:#6e6e6e;}</style></defs><rect class="cls-1" x="-0.66" y="-0.36" width="1025.32" height="288.72"/><path class="cls-2" d="M776.94,221l0-.14-.17.07Z"/><path class="cls-2" d="M710.16,217.52l.06,0-.12-.07Z"/><path class="cls-2" d="M761.9,121.63s0,0,0,0l.08,0Z"/><path class="cls-3" d="M660.65,134.26c-7.8,1.88-12.67,7.88-12,16,1.1,12.82-1.71,24.33-9.81,34.42-1,3.62-3.71,5.56-6.74,7.24a39.14,39.14,0,0,1-23.59,10.66c-19.12,1.78-33.15-6.87-42.61-22.83s-8.19-37.79,3.7-53.11c8.4-10.82,19.58-17.13,33.8-17.35a14.88,14.88,0,0,0,14.81-15.49c-.23-8.57-6.17-14.09-15.26-14a65.31,65.31,0,0,0-9,.53c-33.59,5-60.15,34.27-62.24,69.4-1.92,32.26,10.57,57.94,38.59,74.39,20.1,11.79,41.81,12.41,63.22,2.58,18.15-8.33,30.44-22.47,38-40.75,5-12.23,6.4-25.12,5.08-38.21C675.85,139.78,667.11,132.71,660.65,134.26Z"/><path class="cls-3" d="M457.76,121.06c-31.65.12-56.43,25.93-55.25,57,1.07,28.05,25.53,52.86,56.55,52.43,31.4-.44,56.25-25.73,55.23-56.83C513.32,143.79,488.45,120.7,457.76,121.06ZM488,185.84c-.64,1.62-1.41,3.2-2.12,4.79-.62,4.29-3.32,7-6.88,9-15.11,14.21-39.58,9.2-48.79-10.06-6-12.53-4.11-24.49,4.41-34.88,8.17-10,19.38-13.1,31.93-10.11C483.55,148.67,494.35,169.64,488,185.84Z"/><path class="cls-3" d="M781.16,216.23c3.44-2.68,6.37-5.54,6.42-10.06-.08-.1-.15-.2-.24-.3a6.5,6.5,0,0,1-1.51-2.71,17.9,17.9,0,0,1-1.72-4.86c-.11-.42-.21-.84-.29-1.27-2-1.78-4-3.9-6.81-1.3a29.29,29.29,0,0,1-14,8c-10.38,5.56-28.19,6.08-39-5.31-2.77-2.9-5.5-5.74-6.41-9.88-.49-2.27-.15-3.55,2.47-3.58,9-.09,17.88-1.71,26.88-1.31a.52.52,0,0,1,.76,0h0a73.93,73.93,0,0,1,21-2.26,5.39,5.39,0,0,1,3.38.28c3.8-1,7.65-1.81,11.39-3,5.49-1.68,6.66-6.27,6.4-11.12-.28-5-1.08-10-1.74-15a8.9,8.9,0,0,0-.6-.81,7,7,0,0,1-.49-1.32c-.14-.74-.28-1.48-.45-2.2a31.78,31.78,0,0,1-2.23-4.9c-.2-.24-.4-.47-.62-.69a7.55,7.55,0,0,1-.75-1.12l-.3-.81a16.76,16.76,0,0,1-2.85-4.65,1.89,1.89,0,0,1-2.39-.42c-4.13-4.76-9.4-8.1-14.36-11.84a2.89,2.89,0,0,1-1.15-2.09l-.08,0c-1.8,1.67-3.78.4-5.64,0-19.24-4.46-35.9-.49-49.13,14.87-1.25,1.44-2.26,3.34-4.46,3.33-.6,3-2.25,5.57-3.43,8.33-9.18,21.46-8.39,42,5.75,61.24a25.65,25.65,0,0,1,3.11,5c1.77-.18,2.43.84,2,3h0l.12.07c1.88-1.07,3.51.11,5,1.07A54.07,54.07,0,0,0,749,227.29c2.61-.17,5.35-.47,7.8,1,.07.07.11.14.17.2l.43-.39a12.4,12.4,0,0,1,5.09-1.18l5.48-1.61a11.45,11.45,0,0,0,1.43-1.79c2.31-1.51,4.34-4.13,7.45-2.56l.17-.07h0C777.29,218.37,779.53,217.5,781.16,216.23ZM716.73,163c.71-11.22,7.4-18.42,17-22.3,7.32-3,15.21-2.36,21.44,3.94,4.89,3.27,7.45,8.09,9,13.59.75,2.72.25,4.61-3.11,4.5-13.45,3.32-27.2,3.6-40.94,4C717.56,166.84,716.57,165.54,716.73,163Z"/><path class="cls-3" d="M705,209.4c-14.14-19.27-14.93-39.78-5.75-61.24,1.18-2.76,2.83-5.35,3.43-8.33a3.92,3.92,0,0,1-.67-.05c-1.48.81-1.17,2.55-1.89,3.79A60.53,60.53,0,0,0,692,171.82c-.64,16.23,4,30.61,15,42.76a5.9,5.9,0,0,1,1.06-.2A25.65,25.65,0,0,0,705,209.4Z"/><path class="cls-3" d="M707.11,136.5c13.23-15.36,29.89-19.33,49.13-14.87,1.86.43,3.84,1.7,5.64,0-1.58-.39-3.17-.73-4.72-1.19-14-4.19-27.19-2.53-39.74,5-5.84,3.53-9.81,8.93-14.63,13.48,0,.28-.09.56-.14.83C704.85,139.84,705.86,137.94,707.11,136.5Z"/><path class="cls-3" d="M702.65,139.83c.05-.27.11-.55.14-.83-.27.26-.53.53-.81.78A3.92,3.92,0,0,0,702.65,139.83Z"/><path class="cls-3" d="M787.06,150.4a7,7,0,0,0,.49,1.32,8.9,8.9,0,0,1,.6.81c-.08-.6-.16-1.2-.23-1.8h0l-.22-.19.12-.27c-.42-.68-.83-1.37-1.21-2.07C786.78,148.92,786.92,149.66,787.06,150.4Z"/><path class="cls-3" d="M782.71,140.68l.3.81a7.55,7.55,0,0,0,.75,1.12c.22.22.42.45.62.69-.17-.49-.33-1-.47-1.49A9.94,9.94,0,0,1,782.71,140.68Z"/><path class="cls-3" d="M785.83,203.16a6.5,6.5,0,0,0,1.51,2.71c.09.1.16.2.24.3a9.69,9.69,0,0,0-.05-1.31c-.88-.27-.95-.89-.71-1.64h0a10.09,10.09,0,0,1-2.71-4.92A17.9,17.9,0,0,0,785.83,203.16Z"/><path class="cls-3" d="M786.46,202c.12.41.23.82.36,1.22A6.56,6.56,0,0,0,786.46,202Z"/><path class="cls-3" d="M756.84,228.55l0,0h0Z"/><path class="cls-3" d="M756.75,228.28c-2.45-1.46-5.19-1.16-7.8-1a54.07,54.07,0,0,1-33.73-8.73c-1.49-1-3.12-2.14-5-1.07,5.48,2.89,10.61,6.36,16.57,8.44,9.86,3.46,20,2.63,30.05,2.62l.08-.07C756.86,228.42,756.82,228.35,756.75,228.28Z"/><path class="cls-3" d="M763.11,123.77c5,3.74,10.23,7.08,14.36,11.84a1.89,1.89,0,0,0,2.39.42l0-.05A87.24,87.24,0,0,0,762,121.68,2.89,2.89,0,0,0,763.11,123.77Z"/><path class="cls-3" d="M762.44,226.91a12.4,12.4,0,0,0-5.09,1.18l-.43.39,0,.05Z"/><path class="cls-3" d="M769.35,223.51a11.45,11.45,0,0,1-1.43,1.79l2-.6c1.78-2.16,4.45-2.71,6.84-3.75C773.69,219.38,771.66,222,769.35,223.51Z"/><path class="cls-3" d="M757,228.53l0-.05-.08.07h0Z"/><path class="cls-3" d="M781.16,216.23c-1.63,1.27-3.87,2.14-4.19,4.65h0c2.76-2.25,5.45-4.6,8.31-6.72,2.44-1.81,3.6-3.85,3.31-6.25a5.52,5.52,0,0,0-1-1.74C787.53,210.69,784.6,213.55,781.16,216.23Z"/><path class="cls-3" d="M787.58,206.17a5.52,5.52,0,0,1,1,1.74,8.44,8.44,0,0,0-1.06-3A9.69,9.69,0,0,1,787.58,206.17Z"/><path class="cls-3" d="M708.08,214.38c.08.18.18.36.25.55v0a5.09,5.09,0,0,1,1.76,2.45h0C710.51,215.22,709.85,214.2,708.08,214.38Z"/><path class="cls-3" d="M708.08,214.38a5.9,5.9,0,0,0-1.06.2,2.77,2.77,0,0,1,1.32.39v0C708.26,214.74,708.16,214.56,708.08,214.38Z"/><path class="cls-3" d="M239.05,142.08c-2.44-8.8-8-14.51-16.85-17.26-17.18-5.31-32.46-1.24-46.57,9-9.21,6.66-9.24,6.73-11-4.73-.41-2.64-1.19-3.9-4.07-3.45-7.4,1.17-14.82,2.15-22.22,3.31-2.11.33-3.05,1.41-2.36,3.89,5.27,19.14,5.84,38.72,4.73,58.4,0,10.49.12,21-.06,31.46-.07,4,1.22,5.82,5.45,5.61a127.06,127.06,0,0,1,15,0c4.78.33,6.42-1.3,6.36-6.21-.25-19,.1-38-.21-56.95-.1-6.37,2.69-10.32,7.75-13.33,1.71-1,3.32-2.2,5.09-3.05,4.75-2.28,9.24-5.1,14.89-5.06,12.9.11,18.9,5.27,19.23,18.14.41,15.3.17,30.62.15,45.93,0,4.65-.2,9.31-.31,14-.13,5.84.51,6.47,6.57,6.49,3.16,0,6.33,0,9.49,0,13-.16,11.68,2,11.8-12.08.12-14.28-1.47-28.53-.32-42.85A89.69,89.69,0,0,0,239.05,142.08Z"/><path class="cls-3" d="M376.32,157.86a68.46,68.46,0,0,0-1.18-11.4c-1.53-9.19-5.71-16.94-14.68-20.42-13.8-5.36-27.58-5-40.91,2.21-6,3.25-11.34,7.46-16.94,11.27-3.06-3.06-2.72-7.09-3.33-10.74-.4-2.42-.93-3.63-3.68-3.19-7.39,1.17-14.81,2.11-22.2,3.26-2.4.38-3.16,1.79-2.52,4.35A165.51,165.51,0,0,1,276,177.14c-.32,15.14-.25,30.29-.59,45.43-.09,4.39,1.46,6,5.83,5.71a111.76,111.76,0,0,1,15,.05c5,.38,6.21-1.61,6.16-6.33-.22-19.31,0-38.62-.12-57.93a12.29,12.29,0,0,1,5.43-10.9,65,65,0,0,1,15.07-8.28c13.7-5.16,25.34,2.24,26.61,16.63.16,1.83.24,3.66.26,5.49.25,18.46.36,36.93-.56,55.38-.21,4.24,1.24,6.12,5.72,5.88a139.66,139.66,0,0,1,16,0c4.63.28,6.14-1.45,6-6C376.06,200.79,376.16,179.32,376.32,157.86Z"/><path class="cls-4" d="M659.89,122.2c8.14.08,14.25-6.22,14.26-14.7S668,92.55,660,92.61s-13.92,6.45-13.9,15C646.12,116,651.91,122.12,659.89,122.2Z"/><path class="cls-5" d="M638.87,184.65a20.7,20.7,0,0,0-6.74,7.24C634.44,189.54,637.24,187.64,638.87,184.65Z"/><path class="cls-5" d="M638.87,184.65c-1.63,3-4.43,4.89-6.74,7.24C635.16,190.21,637.91,188.27,638.87,184.65Z"/><path class="cls-3" d="M928.38,73.23c-.53-3.62-2.38-4.47-5.87-4.26-7.57.44-14.91,1.86-21.69,5.18-10.63,5.2-18.57,12.78-19.82,25.37-.64,6.44-2.08,12.84-.93,19.37.74,4.22-.76,5.89-5.3,6-8.18.15-8.35.63-8.07,8.56.07,1.83.16,3.66.17,5.49,0,7.43,0,7.43,7.38,7.48,6.94,0,7,.11,7,6.9,0,22.31.1,44.63,0,66.95,0,4.17,1,6.08,5.59,5.74a107.65,107.65,0,0,1,14.48,0c3.87.24,4.83-1.38,4.79-4.94-.15-11.81-.06-23.63-.06-35.44H904.9c0-12,.12-24-.07-36-.06-4,1.53-4.74,5.14-4.29,5.1.64,10.29.6,15.41,1.13,3.7.39,4.7-1.24,4.53-4.58-.22-4.49-.39-9-.2-13.48.13-3.17-1.17-4-4.06-4-6,0-12-.3-18-.4-2.1,0-3.54-.37-3.31-3,.47-5.47.31-11,1.18-16.42,1.38-8.68,4.92-12,13.51-13.52a82,82,0,0,1,8.45-.86c2.73-.21,3.85-1.47,3.28-4.24C929.91,81.74,929,77.5,928.38,73.23Z"/><path class="cls-3" d="M840,75.29c-7,.21-14,.09-21,.06-2.67,0-4,1.07-3.86,3.9.22,4.81.15,9.65.43,14.46,1.4,24.25,2.76,48.49,2.23,72.8-.39,18.13-.27,36.27-.43,54.41,0,3.18.29,5.42,4.52,5.08a92.1,92.1,0,0,1,14.48,0c4.31.33,5.26-1.32,5.23-5.36-.18-21.29-.09-42.59-.09-63.88-.61-25.45-.62-50.89,2-76.24C843.82,77.81,844.26,75.17,840,75.29Z"/><path class="cls-3" d="M75.08,105.52c1,23.57,2.07,47.09,1.1,70.74-.67,16.09-2.85,32.12-2.23,48.25a4.17,4.17,0,0,0,.41,1.21c7.71.52,15.43.45,23.15.35,5.29-.07,6.26-.95,5.86-6.19-1.65-21.52-.63-43.15-2.67-64.67-.92-9.75.61-19.58,1.24-29.33.93-14.3.36-28.57.46-42.85,0-4.24-1.29-5.19-6.34-4.34-7.17,1.2-14.22,0-21.31-.42a3.32,3.32,0,0,0-.58.9C72.67,88,74.72,96.75,75.08,105.52Z"/><path class="cls-3" d="M74,224.51c-.62-16.13,1.56-32.16,2.23-48.25,1-23.65-.13-47.17-1.1-70.74-.36-8.77-2.41-17.49-.91-26.35a3.32,3.32,0,0,1,.58-.9c-.82,0-1.64-.07-2.47-.09.25,8,.13,16,.82,23.88,3.59,41.21,1,82.35-1,123.51l2.22.15A4.17,4.17,0,0,1,74,224.51Z"/><path class="cls-3" d="M74.75,78.27c7.09.37,14.14,1.62,21.31.42,5-.85,6.37.1,6.34,4.34-.1,14.28.47,28.55-.46,42.85-.63,9.75-2.16,19.58-1.24,29.33,2,21.52,1,43.15,2.67,64.67.4,5.24-.57,6.12-5.86,6.19-7.72.1-15.44.17-23.15-.35.89,1.63,2.77,1.44,4.56,1.6,3,.26,6-.41,9,0a99.65,99.65,0,0,1,11.81.7c3.36.38,5.35-1,5.17-4.85-.32-6.48-.51-13-.51-19.46,0-19.13-2.36-38.2-1.75-57.33.69-21.45,1.91-42.88,2-64.35,0-3.85-1-5.53-5.11-5.09a100.09,100.09,0,0,1-19,.25H78.34C77,77.2,75.65,77.29,74.75,78.27Z"/><path class="cls-3" d="M72.28,78.18c.83,0,1.65,0,2.47.09.9-1,2.21-1.07,3.59-1.07h2.15c-.82-.07-1.64-.14-2.46-.23A10.78,10.78,0,0,0,72.28,78.18Z"/><path class="cls-3" d="M78.92,227.32c-1.79-.16-3.67,0-4.56-1.6l-2.22-.15c1.39,1.5,2.82,2.83,5.13,2.5a77,77,0,0,1,10.6-.73C84.93,226.91,81.88,227.58,78.92,227.32Z"/><path class="cls-6" d="M485.86,190.63a39.6,39.6,0,0,1-6.88,9C482.54,197.62,485.24,194.92,485.86,190.63Z"/><path class="cls-6" d="M485.86,190.63c-2.51,2.85-5.08,5.65-6.88,9A39.6,39.6,0,0,0,485.86,190.63Z"/><path class="cls-3" d="M946.11,59.67c-1.6-.62-2.12-1.1-2.12-2s.59-1.47,1.91-1.47a4.37,4.37,0,0,1,2.06.51l.26.15.57-1.69-.18-.1a5.42,5.42,0,0,0-2.66-.59c-2.33,0-4,1.38-4,3.36,0,1.6,1,2.71,3.18,3.48,1.48.56,2,1.1,2,2s-.82,1.71-2.14,1.71a5.1,5.1,0,0,1-2.53-.71l-.27-.17L941.72,66l.15.1a6.17,6.17,0,0,0,3.06.77c3.15,0,4.27-1.91,4.27-3.55S948.27,60.51,946.11,59.67Z"/><path class="cls-3" d="M961.88,54.69h-2.3l-2.1,5.71c-.43,1.23-.75,2.2-1,3.06-.24-.87-.54-1.85-1-3.06l-2-5.71h-2.3l-.83,12h1.91l.32-5.15c.07-1.16.13-2.37.17-3.47.24.84.54,1.79.92,2.93l1.91,5.62h1.48l2.08-5.72c.39-1.07.73-2,1-3,0,1.15.1,2.41.15,3.5l.31,5.27h1.94Z"/></svg>