<?xml version="1.0" encoding="UTF-8" standalone="no"?>
<svg
   xmlns:dc="http://purl.org/dc/elements/1.1/"
   xmlns:cc="http://creativecommons.org/ns#"
   xmlns:rdf="http://www.w3.org/1999/02/22-rdf-syntax-ns#"
   xmlns:svg="http://www.w3.org/2000/svg"
   xmlns="http://www.w3.org/2000/svg"
   xmlns:sodipodi="http://sodipodi.sourceforge.net/DTD/sodipodi-0.dtd"
   xmlns:inkscape="http://www.inkscape.org/namespaces/inkscape"
   width="643"
   height="671.218"
   viewBox="0 0 643 671.218"
   version="1.1"
   id="svg16"
   sodipodi:docname="innocelfWhiteC.svg"
   inkscape:version="1.0.2 (e86c870879, 2021-01-15)">
  <sodipodi:namedview
     pagecolor="#000000"
     bordercolor="#666666"
     borderopacity="1"
     objecttolerance="10"
     gridtolerance="10"
     guidetolerance="10"
     inkscape:pageopacity="1"
     inkscape:pageshadow="2"
     inkscape:window-width="2560"
     inkscape:window-height="1015"
     id="namedview14"
     showgrid="false"
     inkscape:zoom="1.2618851"
     inkscape:cx="321.5"
     inkscape:cy="145.41737"
     inkscape:window-x="0"
     inkscape:window-y="0"
     inkscape:window-maximized="1"
     inkscape:current-layer="svg16"
     inkscape:document-rotation="0" />
  <metadata
     id="metadata20">
    <rdf:RDF>
      <cc:Work
         rdf:about="">
        <dc:format>image/svg+xml</dc:format>
        <dc:type
           rdf:resource="http://purl.org/dc/dcmitype/StillImage" />
        <dc:title></dc:title>
      </cc:Work>
    </rdf:RDF>
  </metadata>
  <defs
     id="defs11">
    <linearGradient
       id="linear-gradient"
       x1="0.5"
       x2="0.5"
       y2="1"
       gradientUnits="objectBoundingBox">
      <stop
         offset="0"
         stop-color="#f1f1f1"
         id="stop2" />
      <stop
         offset="0.611"
         stop-color="#f4f4f4"
         id="stop4" />
      <stop
         offset="1"
         stop-color="#fff"
         id="stop6" />
    </linearGradient>
    <clipPath
       id="clip-path">
      <rect
         id="Rectangle_2"
         data-name="Rectangle 2"
         width="643"
         height="671.218"
         fill="url(#linear-gradient)" />
    </clipPath>
  </defs>
  <g
     id="Group_1"
     data-name="Group 1"
     clip-path="url(#clip-path)"
     style="fill:#ffffff;fill-opacity:1">
    <path
       id="Path_1"
       data-name="Path 1"
       d="M 321.5,671.218 C 144.225,671.218 0,520.664 0,335.609 0,141.9 168.763,3.269 320.225,0.016 a 59.541,59.541 0 1 1 2.555,119.054 c -94.193,2.03 -203.693,97.056 -203.693,216.538 0,119.39 90.8,216.522 202.416,216.522 111.616,0 202.416,-97.13 202.416,-216.521 a 284.306,284.306 0 0 0 -2.5,-34.167 59.544,59.544 0 0 1 117.7,-18.112 400.327,400.327 0 0 1 3.887,52.279 c 0,185.056 -144.225,335.609 -321.5,335.609"
       transform="translate(0,0.001)"
       fill="url(#linear-gradient)"
       style="fill:#ffffff;fill-opacity:1" />
    <path
       id="Path_2"
       data-name="Path 2"
       d="m 217.249,72.5 a 61.89,61.89 0 1 0 -61.893,61.9 61.892,61.892 0 0 0 61.893,-61.9"
       transform="translate(412.484,46.831)"
       fill="url(#linear-gradient)"
       style="fill:#ffffff;fill-opacity:1" />
  </g>
</svg>
